<svg id="Layer_1" data-name="Layer 1" xmlns="http://www.w3.org/2000/svg" xmlns:xlink="http://www.w3.org/1999/xlink" viewBox="0 0 1158.45 658.74"><defs><style>.cls-1{fill:#fff;}.cls-2{mask:url(#mask);}.cls-3{mask:url(#mask-2);}.cls-4{mask:url(#mask-3);}</style><mask id="mask" x="368.13" y="193.29" width="72.48" height="25.64" maskUnits="userSpaceOnUse"><g transform="translate(-80.55 -52.26)"><g id="b"><path id="a" class="cls-1" d="M448.68,271.08h72.48V245.55H448.68Z"/></g></g></mask><mask id="mask-2" x="557.72" y="193.29" width="40.2" height="25.64" maskUnits="userSpaceOnUse"><g transform="translate(-80.55 -52.26)"><g id="d"><path id="c" class="cls-1" d="M638.28,271.08h40.2V245.55h-40.2Z"/></g></g></mask><mask id="mask-3" x="674.84" y="193.29" width="136.82" height="25.64" maskUnits="userSpaceOnUse"><g transform="translate(-80.55 -52.26)"><g id="f"><path id="e" class="cls-1" d="M755.39,271.08H892.21V245.55H755.39Z"/></g></g></mask></defs><title>bdg-page</title><path class="cls-1" d="M502.4,179.91h9.17c8.25,0,15.36-3,15.36-15.81,0-10.54-5.28-15.59-15.82-15.59H502.4Zm9.39-63.25c11,0,14.22-4.81,14.22-13.29,0-8.25-4.59-13.3-14.45-13.3h-9.17v26.59ZM446,56.39h83.22c41.26,0,54.1,20.62,54.1,40.33,0,16.5-9.4,27.73-24.53,32.77,12.84,4.13,28.89,14.21,28.89,36.67,0,25.89-17.89,47.44-59.84,47.44H446ZM920.08,213.6H880.19a73.33,73.33,0,0,1-2.52-13.06c-8.72,12.14-22.24,17.18-41.5,17.18-53.87,0-67.4-43.77-67.4-79.52,0-50,25-85.94,79.09-85.94,53,0,70.84,26.36,72.45,53.63H862.54c-1.38-7.57-3.44-14.21-14.45-14.21-11.92,0-17.65,11.92-17.65,44.46,0,27.73,4.59,42.17,17.65,42.17,11.92,0,14.9-9.63,14.9-19.71v-2.06h-14.9V121.7h72v91.9" transform="translate(-80.55 -52.26)"/><g class="cls-2"><path class="cls-1" d="M458.08,266.31c1.86,0,3.48-.92,3.48-3.37,0-2.13-1.62-3-3.48-3h-3.31v6.38h3.31Zm-.59-10.82c1.61,0,3.23-.44,3.23-2.56s-1.43-2.5-2.87-2.5h-3.08v5.06Zm-8.81-9.5h10.61c4.36,0,7.66,1.47,7.66,6,0,3.41-1.87,4.73-5.06,5.43v.15c3.63.44,5.83,2.34,5.83,6.05,0,4.84-3.48,7.15-8.14,7.15h-10.9V246ZM475,246h6.12v15.88c0,3.16,1.32,4.48,3.85,4.48s4-1.28,4-4.59V246h5.95v15.66c0,5.69-3.71,9.54-10.13,9.54-6,0-9.79-3.52-9.79-9V246m32.46,16.62c-.44,2,.33,4.25,4.22,4.25,2.56,0,3.44-1,3.44-2.38,0-2.06-2.05-2.57-4.47-3.45-3.63-1.25-8.11-3-8.11-8.18,0-4.62,3.56-7.44,9.61-7.3,7.41.15,9.5,4.52,8.7,8.29l-5.62.52c.37-2.87-.65-4.48-3.55-4.48-1.95,0-3.05.74-3.05,2.28,0,2.05,2,2.67,4.4,3.52,3.75,1.24,8.18,2.75,8.18,7.88,0,4.44-3.3,7.63-9.75,7.63-6.06,0-10.2-2.79-9.36-8.07l5.36-.51" transform="translate(-80.55 -52.26)"/></g><path class="cls-1" d="M526.85,246h19.77v4.55h-6.9v20.21H533.6V250.54h-6.75V246m26.55,0h6.13V266.2h10.31v4.55H553.4V246m23.15,0H593v4.55H582.67v5.32h8.62v4.55h-8.62v5.79h10.64v4.55H576.55V246m44.05,20.32c2.72,0,5.32-1.65,5.32-8.07s-2.6-7.81-5.32-7.81h-2.75v15.88ZM611.72,246h9.47c6.16,0,10.93,3.6,10.93,12.25,0,8.48-4.55,12.51-10.93,12.51h-9.47Z" transform="translate(-80.55 -52.26)"/><g class="cls-3"><path class="cls-1" d="M638.28,246h12.77v4.33h-3.34v16.1h3.34v4.33H638.28v-4.33h3.3v-16.1h-3.3V246m30,12.25h10.2v12.51h-4.14v-4.18c-.88,2.75-2.87,4.62-7.12,4.62-5.72,0-10-4-10-12.95s4.33-12.69,11.08-12.69c7.6,0,10.57,4.3,9.72,8.66l-5.76.62c.44-3.41-1.24-5-3.66-5-2.68,0-5,2-5,8.48s2,8.36,5,8.36c2.75,0,4.29-1.69,4.36-3.38v-.7h-4.62v-4.4" transform="translate(-80.55 -52.26)"/></g><path class="cls-1" d="M685.23,246H698v4.33h-3.34v16.1H698v4.33H685.23v-4.33h3.3v-16.1h-3.3V246m18.41,0h19.77v4.55h-6.89v20.21h-6.13V250.54h-6.75V246m30.74,15.52h5.32L738,256.3a24.74,24.74,0,0,1-.84-4.25H737a31.44,31.44,0,0,1-.92,4.21l-1.72,5.25Zm0-15.52h6.2l8.36,24.76h-6.2l-1.54-4.69h-8.29l-1.5,4.69h-5.36Z" transform="translate(-80.55 -52.26)"/><g class="cls-4"><path class="cls-1" d="M755.39,246h6.13V266.2h10.31v4.55H755.39V246m43.4,12.25H809v12.51h-4.15v-4.18c-.88,2.75-2.86,4.62-7.12,4.62-5.72,0-10-4-10-12.95s4.33-12.69,11.08-12.69c7.59,0,10.57,4.3,9.72,8.66l-5.76.62c.44-3.41-1.25-5-3.67-5-2.68,0-5,2-5,8.48s2,8.36,5,8.36c2.75,0,4.29-1.69,4.36-3.38v-.7h-4.62v-4.4M823,250.43v6.09h2.2c1.76,0,3.82-.55,3.82-3.19,0-2.16-1.4-2.9-3.09-2.9ZM816.83,246H827c4.85,0,8.11,2.35,8.11,6.9a6.93,6.93,0,0,1-5,6.71,7.39,7.39,0,0,1,1.73,2.35c1,2.09,1.72,4.4,3.88,4.4a2.79,2.79,0,0,0,1-.19l-.48,4.37a12,12,0,0,1-2.46.33c-2.94,0-4.62-1.14-6.35-5.06-.73-1.76-1.76-4.84-3.12-4.84H823v9.79h-6.13Zm41.89,12c0-6.16-2.42-8.14-5.06-8.14s-5,2-5,8.14c0,6.86,2.39,8.84,5,8.84S858.72,264.88,858.72,258Zm-16.36,0c0-8.91,4.73-12.47,11.37-12.47S865,249.11,865,258c0,9.91-4.87,13.17-11.26,13.17-6.64,0-11.37-3.56-11.37-13.17Zm29.93-12h6.13v15.88c0,3.16,1.32,4.48,3.85,4.48s4-1.28,4-4.59V246h5.94v15.66c0,5.69-3.7,9.54-10.12,9.54-6,0-9.8-3.52-9.8-9V246" transform="translate(-80.55 -52.26)"/></g><path class="cls-1" d="M906.77,250.43v7h2.86a3.37,3.37,0,0,0,3.64-3.7c0-2.53-1.73-3.34-3.64-3.34ZM900.65,246H911c4.88,0,8.4,2.46,8.4,7.41,0,5.39-3.41,8.51-8.4,8.51h-4.26v8.84h-6.12ZM661.49,175.32h11.23c15.13,0,19.71-6.64,19.71-41.25,0-34.14-4.58-39.64-20.63-39.64H661.49ZM606.24,56.39h70.61c53.64,0,77.25,29.1,77.25,76.77,0,49.27-26.36,80.44-77.71,80.44H606.24V56.39Z" transform="translate(-80.55 -52.26)"/><path class="cls-1" d="M109.88,444.41a10.39,10.39,0,0,0,3.81-1,6.71,6.71,0,0,0,2.36-2,6.89,6.89,0,0,0,1.17-2.54,9.26,9.26,0,0,0,.17-2.72,5,5,0,0,0-2.16-3.81,6.57,6.57,0,0,0-4.62-1.14l-12,1.09a2,2,0,0,0-1.8,1.74l-1.2,9.19a2,2,0,0,0,2.17,2.26Zm-2.65,22.53a10.52,10.52,0,0,0,3.84-1,8.86,8.86,0,0,0,2.67-2,7.76,7.76,0,0,0,1.86-5.8,5.84,5.84,0,0,0-2.16-4.21,6.75,6.75,0,0,0-5.06-1.27l-12.55,1.14A2,2,0,0,0,94,455.45L92.7,465.82a2,2,0,0,0,1.72,2.24,2.16,2.16,0,0,0,.44,0ZM82.7,474.75l6.08-48A2,2,0,0,1,90.59,425l21.67-2a15.58,15.58,0,0,1,5.71.44,13.26,13.26,0,0,1,4.48,2.17,11,11,0,0,1,3.06,3.54,11.49,11.49,0,0,1,1.39,4.61,13,13,0,0,1-.51,5,14.17,14.17,0,0,1-5.67,7.68,11.38,11.38,0,0,1-4.31,1.81,9.28,9.28,0,0,1,3.2,1.22,10.38,10.38,0,0,1,2.55,2.2,10.62,10.62,0,0,1,1.74,2.93,11.9,11.9,0,0,1,.8,3.33,16,16,0,0,1-.49,5.56,13.75,13.75,0,0,1-2.7,5.19,15.79,15.79,0,0,1-5.15,4,21.09,21.09,0,0,1-7.87,2.06L84.87,477a2,2,0,0,1-2.17-2.25Zm94.88-5.26a30.39,30.39,0,0,1-9.26-.43,19.26,19.26,0,0,1-7-3,14.79,14.79,0,0,1-4.6-5.13,18.88,18.88,0,0,1-2.09-9,13.45,13.45,0,0,1,.12-1.71l3.8-29.85a2,2,0,0,1,1.8-1.74l5-.46a2,2,0,0,1,2.17,2.25l-3.7,28.76c0,.27-.06.65-.09,1.16a11.25,11.25,0,0,0,1.21,5.71,9.36,9.36,0,0,0,2.65,3.14,11.22,11.22,0,0,0,4,1.91,14.55,14.55,0,0,0,5.24.37q6.36-.57,9.32-4.5A21.23,21.23,0,0,0,190,446.87l3.74-29.63a2,2,0,0,1,1.81-1.75l5-.45a2,2,0,0,1,2.17,2.24l-3.69,29a47.53,47.53,0,0,1-2,8.82,21.89,21.89,0,0,1-3.91,7.11,19.45,19.45,0,0,1-6.34,4.93,25.88,25.88,0,0,1-9.16,2.38M248.73,463a35.07,35.07,0,0,1-7-.05,31.87,31.87,0,0,1-6.42-1.38,25.55,25.55,0,0,1-5.4-2.52,18.2,18.2,0,0,1-2.85-2.19,2,2,0,0,1-.23-2.61l2.73-3.77a2,2,0,0,1,3-.29,19.23,19.23,0,0,0,6.12,3.55A22.62,22.62,0,0,0,248.69,455a11.31,11.31,0,0,0,4.15-1.07,8.36,8.36,0,0,0,2.71-2,7.06,7.06,0,0,0,1.43-2.51,6.72,6.72,0,0,0,.31-2.58,4.25,4.25,0,0,0-2.2-3.31,22.13,22.13,0,0,0-4.87-2.18q-2.85-.93-6.26-1.82a32.74,32.74,0,0,1-6.31-2.32,16.82,16.82,0,0,1-5-3.7,9.88,9.88,0,0,1-2.44-6,14,14,0,0,1,.8-6,15.41,15.41,0,0,1,3.4-5.44,19.65,19.65,0,0,1,5.76-4.11,22.4,22.4,0,0,1,7.81-2.06A28.65,28.65,0,0,1,259.31,411a21.77,21.77,0,0,1,7.57,4.06,2,2,0,0,1,.3,2.72l-2.76,3.72a2,2,0,0,1-2.92.32,16.68,16.68,0,0,0-5.76-3,22.16,22.16,0,0,0-8.34-.9,10.19,10.19,0,0,0-3.32.84,8.77,8.77,0,0,0-2.51,1.66,6.67,6.67,0,0,0-1.57,2.22,5,5,0,0,0-.43,2.54,3.9,3.9,0,0,0,2.17,3.07,23.9,23.9,0,0,0,4.86,2.06c1.9.6,4,1.2,6.26,1.82a33.21,33.21,0,0,1,6.32,2.39,17.14,17.14,0,0,1,5,3.78,9.92,9.92,0,0,1,2.43,6,16.27,16.27,0,0,1-.71,6.54,16.05,16.05,0,0,1-3.3,5.72,18.74,18.74,0,0,1-5.78,4.3,22.56,22.56,0,0,1-8.1,2.16m55.16-8.39,5-39a2,2,0,0,0-2.17-2.25l-10.51,1a2,2,0,0,1-2.17-2.23l.48-4a2,2,0,0,1,1.81-1.76l35.8-3.26a2,2,0,0,1,2.18,1.81,2,2,0,0,1,0,.42l-.48,4a2,2,0,0,1-1.81,1.76l-12.24,1.12a2,2,0,0,0-1.81,1.73l-5.23,40.75a2,2,0,0,1-1.81,1.74l-4.86.44a2,2,0,0,1-2.17-2.25m51.47-4.68,6.09-48a2,2,0,0,1,1.8-1.74l4.87-.45a2,2,0,0,1,2.17,2.25l-4.94,39a2,2,0,0,0,2.17,2.25l17.54-1.6a2,2,0,0,1,2.17,2.25l-.52,4a2,2,0,0,1-1.8,1.74l-27.38,2.49a2,2,0,0,1-2.17-2.25m59.44-5.41,6.08-48a2,2,0,0,1,1.82-1.74L453.61,392a2,2,0,0,1,2.17,2.23l-.48,4a2,2,0,0,1-1.8,1.76l-22.82,2.07a2,2,0,0,0-1.8,1.74l-1.2,9.2a2,2,0,0,0,2.17,2.25l20.52-1.87a2,2,0,0,1,2.16,2.25l-.51,4a2,2,0,0,1-1.8,1.75l-22.29,2a2,2,0,0,0-1.81,1.75L424.8,435.6a2,2,0,0,0,2.17,2.25l21-1.91a2,2,0,0,1,2.17,2.24l-.52,4.05a2,2,0,0,1-1.81,1.74L417,446.78a2,2,0,0,1-2.17-2.25M80.93,507.13,80.56,503a2.07,2.07,0,0,1,1.89-2.24L354.35,477a2,2,0,0,1,1.58.54l20,18.34a2.06,2.06,0,0,0,2.92-.11h0L399,473.63a2.06,2.06,0,0,1,1.35-.67L456.83,468a2.06,2.06,0,0,1,2.24,1.88l.37,4.12a2.07,2.07,0,0,1-1.89,2.24l-53.22,4.66a2.05,2.05,0,0,0-1.35.66l-23.65,25.88a2.08,2.08,0,0,1-2.93.13h0L353,486.09a2,2,0,0,0-1.58-.53L83.17,509a2.05,2.05,0,0,1-2.24-1.87" transform="translate(-80.55 -52.26)"/><path class="cls-1" d="M714.07,711c-4.8,0-9.6,0-14.4,0-.54,0-1.07-.61-1.6-.94a8,8,0,0,1,1.43-1,7.44,7.44,0,0,1,1.6-.22c4.33-.68,5.69-2.25,5.7-6.62v-50.7c0-4.55-1.44-6.15-6-6.76a5.41,5.41,0,0,1-1.59-.23c-.45-.22-.75-.72-1.11-1.09.38-.28.76-.81,1.14-.8,10.6.15,21.27-.34,31.79.72,12.43,1.24,21.07,9.74,23.84,22,2.42,10.68,1.66,21.17-3.56,31s-13.73,14.39-24.65,14.73C722.46,711.07,718.26,711,714.07,711ZM718,644.57c-.07,1.37-.13,2-.13,2.56v59.2c0,.28-.11.63,0,.8.38.48.83,1.23,1.29,1.26a56.05,56.05,0,0,0,6.08,0c9.68-.53,14.7-4.66,17-14.05,1.69-6.75,1.76-13.66,1.62-20.55-.12-6.36-.61-12.7-3.24-18.65-1.94-4.36-5-7.77-9.67-8.86C726.85,645.29,722.51,645.12,718,644.57Z" transform="translate(-80.55 -52.26)"/><path class="cls-1" d="M637.36,677.13v6.52c0,7.43.09,14.87-.05,22.31,0,2.13.64,2.65,2.64,2.53,3.1-.18,6.22,0,9.32-.18,5.35-.32,9.7-2.68,12.3-7.42,1.94-3.53,3.36-7.35,5-11,.37-.85.52-2.11,1.8-1.57.49.21.86,1.3.85,2-.06,6.22-.26,12.43-.31,18.65,0,1.55-.43,2.1-2.07,2.09-15.82-.06-31.64,0-47.46-.07-.6,0-1.19-.61-1.79-.94a7.67,7.67,0,0,1,1.62-1c.82-.25,1.74-.23,2.59-.43,3.19-.77,4.48-2.32,4.49-5.57q0-26.16,0-52.32c0-3.39-1.25-4.92-4.58-5.7-1-.23-2-.22-3-.5-.44-.13-.75-.7-1.12-1.07a10,10,0,0,1,1.14-.83,1.92,1.92,0,0,1,.8,0h45c.53,0,1.06.06,1.92.12V663.8c-1.09.52-1.74.1-2.24-1.2-1.2-3.08-2.44-6.16-3.87-9.14-2.72-5.68-7.25-8.52-13.64-8.31-2.56.08-5.14.06-7.7,0-1.21,0-1.68.37-1.68,1.62q.06,13.08,0,26.16c0,1.08.3,1.7,1.49,1.57h.2c8.08.31,10.75-1.57,13.15-9.31a9.4,9.4,0,0,1,.59-1.93,6,6,0,0,1,1.28-1.22c.31.48.86,1,.88,1.45.1,2.29,0,4.59,0,6.89,0,5.82,0,11.63,0,17.44a5.35,5.35,0,0,1-.73,1.82c-.51-.48-1.23-.88-1.48-1.47-.71-1.68-1.14-3.47-1.82-5.15a8.64,8.64,0,0,0-8.41-5.88C640.9,677.1,639.29,677.13,637.36,677.13Z" transform="translate(-80.55 -52.26)"/><path class="cls-1" d="M458.5,710.87c-.74,0-1.27.09-1.81.09H409.44c-1.13,0-2.53.25-1.81-1.79,1.25-.19,2.53-.3,3.78-.57,3.48-.74,4.73-2.32,4.73-6q0-24.64,0-49.29c0-.94,0-1.89,0-2.84-.07-3.19-1.22-4.69-4.34-5.47-1.17-.29-2.41-.34-3.58-.62a1.22,1.22,0,0,1-.72-.94c0-.31.45-.69.79-.89a2.36,2.36,0,0,1,1-.05h45.23c.47,0,.93.06,1.92.13,0,2.28,0,4.54,0,6.8.06,4.25.19,8.51.19,12.77,0,.57-.53,1.15-.82,1.72-.56-.42-1.38-.73-1.64-1.29-1.53-3.31-2.77-6.76-4.42-10-2.64-5.2-7-7.63-12.88-7.51-2.71.06-5.41.05-8.12,0-1.15,0-1.52.41-1.52,1.54q0,13.18,0,26.36c0,1,.33,1.5,1.4,1.45s2.16,0,3.25,0c4.33,0,7.35-2,8.94-6a47.05,47.05,0,0,0,1.66-5c.33-1.23.85-1.79,2.24-1.21a14.54,14.54,0,0,1,.13,1.53c0,8,0,16,0,23.93,0,.64-.54,1.28-.84,1.92a7.54,7.54,0,0,1-1.49-1.74c-.77-1.79-1.27-3.7-2-5.5a8.23,8.23,0,0,0-7.76-5.24c-1.73-.08-3.47,0-5.34,0,0,.82-.11,1.48-.11,2.14,0,9,.05,18-.05,27,0,1.83.54,2.33,2.3,2.24,3.11-.16,6.22,0,9.33-.15,5.59-.29,10.08-2.72,12.77-7.69,1.86-3.43,3.17-7.16,4.83-10.7.33-.7,1.14-1.17,1.73-1.75.32.69.93,1.38.92,2.07-.05,6.35-.2,12.7-.34,19.05A12.94,12.94,0,0,1,458.5,710.87Z" transform="translate(-80.55 -52.26)"/><path class="cls-1" d="M568.66,709.23c1.71-.3,3.47-.48,5.15-.92,3-.78,4.3-2.34,4.3-5.36q.07-28.49,0-57a4.53,4.53,0,0,0-.18-.77c-3.38-.54-6.69-.22-9.08,2.42a44.16,44.16,0,0,0-5.47,7.72c-1.44,2.5-2.35,5.31-3.62,7.91-.27.55-1.13.82-1.71,1.22-.3-.57-.85-1.15-.84-1.71.09-6.15.29-12.3.41-18.44,0-1.41.61-1.82,2-1.82q24,.06,48.06,0c1.25,0,1.81.28,1.83,1.68.09,6.14.31,12.29.4,18.43,0,.62-.55,1.24-.85,1.86-.6-.47-1.45-.83-1.76-1.45-1.71-3.45-3.1-7.06-5-10.4a25.28,25.28,0,0,0-4.61-5.58c-2-1.94-4.73-2.1-7.42-2-1.21,0-1.24.75-1.24,1.62q0,4.36,0,8.72v45.83c0,5.36,1.42,6.9,6.72,7.69,1,.15,2.76-.7,2.75,1.28,0,.28-1.85.77-2.84.78-8.45.07-16.9,0-25.35,0C569.15,711,568,711,568.66,709.23Z" transform="translate(-80.55 -52.26)"/><path class="cls-1" d="M801.2,711c-4.12,0-8.25,0-12.37,0-.59,0-1.17-.51-1.75-.78.51-.37,1-1,1.54-1.08,6.62-1,7.54-2.48,5.63-9-1.24-4.21-2.5-8.42-3.65-12.66-.35-1.32-.89-1.87-2.34-1.85-5.27.09-10.55,0-15.82.09a2.47,2.47,0,0,0-1.89,1.2c-1.47,4.49-3,9-4.06,13.59-1.22,5.07,0,6.86,5,8.35.62.19,1.07.9,1.6,1.37a5.26,5.26,0,0,1-1.8.73q-8.12.09-16.23,0a5.29,5.29,0,0,1-1.67-.66c.36-.48.63-1.24,1.09-1.38,4.14-1.29,6.53-4.34,7.9-8.15,2.7-7.5,5.21-15.07,7.71-22.64q5.82-17.62,11.5-35.29c.42-1.28.95-1.86,2.4-1.81,4.9.2,3.71-.74,5.1,3.83C794.6,663,800,681.21,805.49,699.4c.35,1.17.77,2.31,1.15,3.47a8.58,8.58,0,0,0,6.65,5.89,7.32,7.32,0,0,1,2,1.39,8.31,8.31,0,0,1-2.37.77C809,711,805.12,711,801.2,711Zm-29.42-28.08H789.2l-8-28.3-.5,0C777.75,664,774.79,673.33,771.78,682.88Z" transform="translate(-80.55 -52.26)"/><path class="cls-1" d="M933.58,677.05c2.07-4.23,4-8.09,5.87-12,1.8-3.71,3.6-7.42,5.36-11.15a18.4,18.4,0,0,0,1.1-3c.81-3,0-4.59-2.94-5.68-.76-.29-1.6-.38-2.32-.71-.4-.19-.65-.7-1-1.07.35-.3.71-.86,1.07-.86q8.93-.09,17.85,0c.36,0,1,.57,1,.86a1.45,1.45,0,0,1-.85,1.1c-4.91,1.09-7.68,4.61-9.79,8.75C944.46,662.13,940,671,935.64,680a6.19,6.19,0,0,0-.4,2.55c0,6.56,0,13.12,0,19.68,0,4.34,1.39,5.92,5.73,6.58a18.89,18.89,0,0,1,2.41.33,1.26,1.26,0,0,1,.72.94c0,.31-.45.72-.79.88a3.18,3.18,0,0,1-1.2.05c-8.18,0-16.37,0-24.55,0-.7,0-2-.46-2-.84-.22-1.57,1.23-.94,2-1.16s1.87-.28,2.78-.53c2.78-.78,4-2.24,4-5.12q.06-10.24,0-20.49a6.68,6.68,0,0,0-.76-2.68c-4.62-9.55-9.33-19.07-13.92-28.63-1.67-3.48-3.86-6.17-7.9-6.89-.46-.09-.79-.84-1.19-1.29.47-.25.94-.73,1.42-.73q12.38-.07,24.75,0c.47,0,.94.48,1.41.73-.42.39-.77,1-1.26,1.14-1.27.43-2.66.55-3.9,1-2,.76-2.53,2-2,4a9.48,9.48,0,0,0,.63,1.71q5.64,12.25,11.31,24.49C933,676,933.18,676.3,933.58,677.05Z" transform="translate(-80.55 -52.26)"/><path class="cls-1" d="M489.89,711c-7.37,0-14.74,0-22.1,0-.63,0-1.26-.56-1.88-.85a8.12,8.12,0,0,1,1.74-1.11c.89-.29,1.87-.29,2.78-.53,2.73-.75,3.83-2.06,4.1-4.84.08-.81.09-1.62.09-2.43V652.28c0-5.6-1.21-6.91-6.84-7.74-.66-.1-1.24-.79-1.86-1.21a6.07,6.07,0,0,1,2-.77q12.18-.09,24.34,0c.63,0,1.26.56,1.9.86a13.75,13.75,0,0,1-1.77,1.11,5.7,5.7,0,0,1-1.4.2c-4.05.61-5.38,2.1-5.39,6.19,0,7.37,0,14.74,0,22.11,0,11.08,0,22.17,0,33.26,0,1.64.4,2.32,2.14,2.19,2.15-.15,4.32,0,6.48-.13,6-.24,10.54-2.91,13.31-8.19,1.78-3.4,3.1-7,4.72-10.53.3-.64,1-1.45,1.64-1.52,1.41-.15,1,1.11,1,1.9-.19,6.42-.46,12.83-.62,19.25,0,1.51-.75,1.73-2,1.72C504.77,710.94,497.33,711,489.89,711Z" transform="translate(-80.55 -52.26)"/><path class="cls-1" d="M907.54,711h-46c-.27,0-.59.09-.8,0a14.53,14.53,0,0,1-1.42-.94,5.11,5.11,0,0,1,1.42-1c1-.29,2.14-.3,3.18-.58,2.88-.78,4-2.28,4-5.26q0-26.37,0-52.75c0-3.08-1.17-4.58-4.19-5.36-1.17-.3-2.41-.33-3.58-.64a1.59,1.59,0,0,1-.8-1.1c0-.19.57-.56.93-.75a1.91,1.91,0,0,1,.8,0c8.18,0,16.37,0,24.55,0,.62,0,1.24.58,1.86.89a15,15,0,0,1-1.79,1.09,5.26,5.26,0,0,1-1.4.2c-3.93.6-5.26,2.09-5.27,6.07,0,8.32,0,16.64,0,25,0,10.14,0,20.28,0,30.43,0,1.74.41,2.44,2.25,2.29,2.82-.24,5.68-.09,8.49-.41a13,13,0,0,0,10.34-6.7c2.09-3.76,3.68-7.8,5.46-11.73.38-.84.51-2.11,1.8-1.53a2.54,2.54,0,0,1,.87,2c-.12,5.88-.34,11.75-.53,17.63C907.7,708.75,907.62,709.74,907.54,711Z" transform="translate(-80.55 -52.26)"/><path class="cls-1" d="M821,709.23c1.58-.29,3.2-.47,4.75-.89,2.57-.7,3.69-2.15,3.92-4.79.06-.67,0-1.35,0-2V652c0-5.18-1.38-6.75-6.49-7.38a3.52,3.52,0,0,1-1.2-.17,7.56,7.56,0,0,1-1.2-1c.41-.31.81-.87,1.24-.9,1.76-.1,3.52-.05,5.27-.05,6.7,0,13.39,0,20.08,0a5.8,5.8,0,0,1,1.94.83,9,9,0,0,1-1.74,1.14,22.91,22.91,0,0,1-2.39.41c-3.36.8-4.59,2.24-4.59,5.68q0,26.16,0,52.33c0,3.51,1.4,5,5,5.71.93.18,1.9.16,2.81.42a1.6,1.6,0,0,1,.82,1.07c0,.19-.53.6-.89.77a2.55,2.55,0,0,1-1,0H822.7C821.55,711,820.38,711,821,709.23Z" transform="translate(-80.55 -52.26)"/><path class="cls-1" d="M539.85,676.78q0,12.27,0,24.54c0,5.49,1.3,6.92,6.72,7.58a3.66,3.66,0,0,1,1.39.21,1.46,1.46,0,0,1,.61,1c0,.25-.42.68-.71.75a9.09,9.09,0,0,1-1.81.06c-8,0-16.1,0-24.14,0a5.71,5.71,0,0,1-1.94-.8,9.26,9.26,0,0,1,1.88-1.16c1.09-.34,2.28-.36,3.37-.68a4.68,4.68,0,0,0,3.69-4.53c0-.75.06-1.49.06-2.23V652c0-5.22-1.34-6.74-6.48-7.37a3.5,3.5,0,0,1-1.19-.17,8.63,8.63,0,0,1-1.32-1.11c.44-.28.88-.81,1.33-.82q13-.07,26,0c.45,0,.89.53,1.34.81-.43.38-.81,1-1.3,1.11-7.06,1.34-7.46,1.8-7.46,9Z" transform="translate(-80.55 -52.26)"/><path class="cls-1" d="M1145.92,396a1.31,1.31,0,0,0,.09-.28c.12-1,.68-1.24,1.59-.73.5.27.71,1,1.43.92,0,0,.11.15.15.23s0,.22.1.26c.61.46,1.42.53,2,1.08l5.1-1.17a2.7,2.7,0,0,0,2.4.15c.63-.25,1.26-.83,2-.32.07.05.48-.18.48-.26a2.61,2.61,0,0,0-.28-.65c2,.38,3.79-.48,5.74-.69.12,0,.32-.07.35-.15.2-.63.76-.63,1.26-.73,2.86-.68,5.72-1.39,8.57-2.1a3.8,3.8,0,0,0,.86-.33c.48-.25.84-.15,1.34.36l-1.79.68,0,.18,2-.18c-1.52.45-3.14.66-4.45,2.07a15.7,15.7,0,0,1,5.56,0v.22l-4.75,1.34,0,.26.64.3-.71,1.09,1.16.76-.76,1,.61.48c-.38.15-.63.27-.91.35-.66.18-1.34.23-1.72,1-.1.17-.58.15-.88.22,0,.71-.18,1-1,.86a1.7,1.7,0,0,0-1.74.86c-.05.1-.13.28-.21.28-.86,0-1,.71-1.34,1.26-.15.26-.58.38-.91.51-.68.28-1.44.43-2.09.73s-1.29.84-1.95,1.24a17.58,17.58,0,0,1-2.3,1.39c-1.24.56-2.53.94-3.79,1.42-.38.15-.68.45-1,.63-2,1-2.5,2.75-2.73,4.72-.17,1.5-.43,3-.68,4.45s-.43,3-.78,4.4a1.86,1.86,0,0,0,1.94,2.2c2.08-.18,4.15-.28,6.25-.41a6.91,6.91,0,0,1,.91,0,3.44,3.44,0,0,0,2-.2c.35-.17.88,0,1.31-.07.74-.13,1.44-.38,2.18-.51s1.61-.18,2.4-.25c.05,0,.17.05.2,0a4.5,4.5,0,0,1,2.43-.81c1-.22,2.09-.45,3.13-.73a3.9,3.9,0,0,0,1.11-.53,4.41,4.41,0,0,0,.79-.61c.3-.25.63-.37.93-.05a7.18,7.18,0,0,1,.53.91c.63.28.63.28.53,1.39h1.22l-.36.33c.76,1.22-.81.86-.88,1.57l1.39.13a6.63,6.63,0,0,0,.35,2.7l-1.84,1.62,1.18.38-1.59.73.08.2c.12,0,.28-.05.38,0a1.73,1.73,0,0,1,.53.51c0,.1-.13.43-.28.48-1.16.4-2.07,1.44-3.46,1.31-.46,0-.94.38-1.39.61a5.83,5.83,0,0,0-.86.45,8,8,0,0,0-1,.69c-.1.07-.18.27-.28.3a14.93,14.93,0,0,1-2.66.91,55.3,55.3,0,0,1-6.36.81,26.44,26.44,0,0,0-3.49.55c-.2,0-.43,0-.63,0-.66.1-1.29.25-1.93.38-.27.07-.55.18-.83.25l-6.24,1.69a.92.92,0,0,0-.68,1c-.06,3.06-.18,6.12-.08,9.2a45.65,45.65,0,0,0,.71,6.14,1.8,1.8,0,0,0,2.45,1.44,19.7,19.7,0,0,1,4.73-.27,43.17,43.17,0,0,0,4.62-.66c1.26-.2,2.53-.46,3.79-.66a9.72,9.72,0,0,0,2.3-.28c1.32-.48,2.68-.25,4-.45a6,6,0,0,0,1.18-.13,2.17,2.17,0,0,0,1.54-1.62,1.37,1.37,0,0,0,1.93-.78c.12-.38.35-.43.65-.2a9,9,0,0,1,.79.73l1.29-4.07a4.12,4.12,0,0,1,.12.53c0,.15-.05.28-.07.43-.21.94-.08,1.06,1.06.91l-.76,1.82a10.87,10.87,0,0,1-.23,1.52c-.12.53.3,1.36-.88,1.46,1.11.84.93,1.85.73,2.86a1.16,1.16,0,0,0,.63,1.47c.43.22.71.83,1.32.86a1.19,1.19,0,0,0,.8-.23c.54-.51,1-1.09,1.5-1.62a.62.62,0,0,1,.32-.23,1.76,1.76,0,0,0,1.47-1.84c0-.94.23-1.9.28-2.83.1-1.67.1-3.31.23-5s.4-3.51.53-5.26c.1-1.21.1-2.42.15-3.64,0-.12,0-.23,0-.35.23-1.82.41-3.64.71-5.44.35-2.22.76-4.42,1.14-6.62a6.89,6.89,0,0,1,.23-.81c0-.17.2-.38.17-.53-.28-1.82.63-3.43.76-5.18.1-1.52.23-3,.35-4.52.08-.91.16-1.8.21-2.71a4,4,0,0,0-.1-.73l-.28-.08a16.18,16.18,0,0,0-.91,1.75,10.11,10.11,0,0,0-.46,2,12.24,12.24,0,0,0-.22,2.08c0,.22.27.48.43.7-.23.16-.69.28-.76.54s.15.7.28,1.11c-1.09.3-1.07,1.19-1,2.07a2,2,0,0,1,0,.43l-.43,2.91h-.27l-.36.88c-.12-.28-.38-.58-.38-.86,0-1.09,0-2.17,0-3.46a3.73,3.73,0,0,0-.46.93c-.15,1.07-.12,2.15-.35,3.19a35.52,35.52,0,0,1-1.09,3.56,2.23,2.23,0,0,0-.15.53c0,.48.1.91-.45,1.34-.33.26-.26,1.11-.28,1.72a8,8,0,0,1-1.24,4.07l-.2-.08c.07-1.31.15-2.62.28-3.92a5.66,5.66,0,0,1,.22-.88c.13-.54.23-1.07.33-1.6a20.1,20.1,0,0,1,0-2.45,23.25,23.25,0,0,1,.53-2.37,3.56,3.56,0,0,0,0-.43l.22-1.95c0-.08.13-.18.11-.25-.28-1.44.55-2.73.73-4.12.07-.48-.15-1.39.73-1.62l-.23-.73c-.07-.21-.25-.41-.22-.61.07-.71.2-1.42.3-2.12a1.3,1.3,0,0,1,.1-.41,1.07,1.07,0,0,0-.07-1.51c.85-.77.65-1.9,1-2.83.17-.51.4-1,.63-1.6-.41-.35-.23-.81,0-1.31a2.38,2.38,0,0,0,.18-.91,2.52,2.52,0,0,1,.68-2.15.9.9,0,0,0,.1-.78,1.4,1.4,0,0,1,.28-1.32,4,4,0,0,0,.25-.88,3.75,3.75,0,0,1,.16-.43,6,6,0,0,0,.32-.61c.28-.86.48-1.72.81-2.55.15-.38.55-.63.81-1l3.21-4.27a1,1,0,0,1,.2-.2,24,24,0,0,0,3.44-3.31,4.05,4.05,0,0,1,2.07-1.44,11.74,11.74,0,0,0,2.81-1.49c1.29-.69,2.55-1.37,3.87-1.95a33.65,33.65,0,0,1,3.86-1.41c1-.33,2.13-.38,3.11-.74,1.9-.68,3.87-.45,5.77-.76a8.78,8.78,0,0,1,2.9.31c1.19.25,2.35.63,3.49,1a8.06,8.06,0,0,1,1.06.53c.61.26,1.21.51,1.82.71a2,2,0,0,1,1.16,1.44c0,.48.36.68.71.46a.64.64,0,0,1,1,.33c.38.8,1.16,1.11,1.74,1.69,1,1,2.1,1.84,3.14,2.78a5.1,5.1,0,0,1,.68,1,37.34,37.34,0,0,1,2.22,4.25,17.45,17.45,0,0,1,.71,3.69c.08.5,0,1,.13,1.56a2.74,2.74,0,0,1-.28,2.13c-.05.1-.08.33,0,.4.58.76.24,1.57.2,2.35-.28,4.63-2.58,8.19-6,11.1a7.81,7.81,0,0,1-2.53,1.51,46.68,46.68,0,0,0-4.83,2.46c-.12.05-.22.17-.35.2-2,.38-3.77,1.54-5.84,1.69-.5,0-1,.43-1.51.53-1.29.3-2.58.58-3.9.81s-2.37.38-3.56.51-1.49.35-1.52,1.18a.86.86,0,0,0,.16.53c1.64,2.18,2.42,4.73,3.51,7.16.66,1.46,1.42,2.88,2.18,4.32s1.59,3,2.45,4.42c1.32,2.2,2.68,4.37,4,6.55,1.09,1.79,2.23,3.56,3.31,5.36s2.15,3.48,3.07,5.3a6.07,6.07,0,0,1,.48,2.46c0,.3-.39.65-.71,1.11.15.58-.11,1.06-.93,1.52a2.51,2.51,0,0,0-.74.63,3.16,3.16,0,0,1-2.37.31c-.18-.15-.23-.43-.38-.71l-.94.15a1.72,1.72,0,0,1-1.69-.66c-.78-.88-1.74-1.61-2.43-2.56-1.17-1.65-2.22-3.39-3.26-5.11-.86-1.39-1.67-2.78-2.46-4.19q-1.93-3.65-3.8-7.36c-1.36-2.75-2.73-5.51-4-8.26-.78-1.7-1.34-3.52-2.23-5.16-.45-.89-.17-1.87-.75-2.65a7,7,0,0,0-.64-.69,4.06,4.06,0,0,0-.6.74,4.77,4.77,0,0,0-.25,1.18c-.38,2.66-.84,5.31-1.14,8q-.64,5.66-1.14,11.3c-.18,1.87-.2,3.74-.3,5.61-.13,2.12-.24,4.27-.34,6.39,0,.59.07,1.17,0,1.72s-.28,1.39-.43,2.08a1.87,1.87,0,0,0-.13.4c0,1.57-.86,2.63-1.69,3.82a5.11,5.11,0,0,1-2.35,2.15,41.2,41.2,0,0,1-4.63,1.15c-.35.08-.6-.13-.63-.56,0-.15-.3-.3-.48-.4s-.66-.18-.93-.33a16.26,16.26,0,0,1-1.85-1,9.11,9.11,0,0,1-1.72-1.34,2.22,2.22,0,0,1-.6-2c0-.15-.26-.5-.46-.55a.76.76,0,0,1-.68-.91c0-.76-.31-1-1.39-1.11-.15-.79-.15-.79-1.16-2.05l.85.35a.64.64,0,0,0,.13-.22l-1-.71-.15.17.23.41c-.1,0-.2,0-.28-.05a.72.72,0,0,0-1,.23,2.48,2.48,0,0,0,0,.88,3.15,3.15,0,0,0-.53-.08,5.62,5.62,0,0,0-1.24.18c-.33.15-.58.48-1,.13a2.44,2.44,0,0,0-.53.63c-.18.45-.13,1.16-.91.53,0-.05-.23-.05-.25,0a2,2,0,0,1-1.62.56c-.08,0-.18,0-.2.07-.58,1.44-2.28.84-3.16,1.75-.15.15-.56,0-.82.12-.47.18-.94.41-1.38.63a7,7,0,0,1-.75.54,5.7,5.7,0,0,1-3.31.37,8.29,8.29,0,0,1-1.51.41c-1.59.05-3.18-.1-4.75.07-1.89.18-3.59-.53-5.38-.88-1.52-.3-2.57-1.34-3.89-1.95a5.46,5.46,0,0,1-2.35-2.4c-.7-1.29-1.46-2.52-2.07-3.86a31.06,31.06,0,0,1-1.14-3.58c-.32-1.06-.7-2.12-1-3.2a22,22,0,0,1-.4-2.58c-.27-1.94-.6-3.89-.76-5.86a45.15,45.15,0,0,1-.28-6.14c.1-1.75,0-3.49,0-5.21,0-.68.08-1.37.1-2.05a.72.72,0,0,0-.09-.4c-.25-.41-.15-.68.2-1s.38-.63-.2-.93-1.19-.66-1.8-1a4.9,4.9,0,0,1,.56-.81.62.62,0,0,1,.53-.15c.23,0,.46.12.68.12.51,0,.85-.1.46-.73.55-.25,1-.48.69-1.24-.13-.33.18-.81.25-1.24.12-.73.13-1.46.31-2.2a15.9,15.9,0,0,1,.75-1.92,1.3,1.3,0,0,1,.18-1.54c.13-.15.46-.15.76-.18a3.45,3.45,0,0,0,.4-2.8,4.56,4.56,0,0,1,.21-1.34,3.06,3.06,0,0,0-.79-.38.73.73,0,0,0-.6.25c-1,1.16-2,2.43-3.09,3.54-2.09,2.07-3.91,4.4-6.34,6.14-.71.51-1.21,1.27-1.9,1.82-1.66,1.37-3.38,2.69-5.1,4a43.3,43.3,0,0,0-3.54,2.58c-1.54,1.44-3.41,2.45-5,3.87-.75.71-1.42,1.46-2.15,2.17a5.37,5.37,0,0,1-1.34,1,1.4,1.4,0,0,0-.86,1.49c-.1,2.1-.23,4.22-.3,6.32,0,.53.15,1.09.17,1.65.08,1.76.1,3.56.18,5.33,0,1.09.15,2.16.15,3.25,0,1.49-.09,3-.1,4.47,0,1.29.08,2.55,0,3.84,0,.94-.1,1.87-.16,2.81-.07,1.24-.13,2.47-.28,3.69s-.4,2.58-.63,3.86c0,.16-.25.28-.4.41s-.51.43-.72.66c-.33.4-.62.83-.95,1.23a10.46,10.46,0,0,1-.79.84c-1.21-.63-3.76-.89-4.44-.38v-1.06c-.58,0-1.08-.1-.91-.86l-.86-.19a.84.84,0,0,0-1.06-.88.22.22,0,0,1-.22-.12c.07-.89-1-1.39-.71-2.38a2.84,2.84,0,0,0,0-1.39c0-.2-.3-.38-.5-.53-.46-.35-1.11-.58-.51-1.35a.73.73,0,0,0,0-.56c-.31-.66-.63-1.31-1-2l-.13-.25-.23-.08-.33.61-.12-.1a7.88,7.88,0,0,0,.45-3.34,1.29,1.29,0,0,1,.43-.88v3.26l.2.07.43-.68.76.2c0-.25.15-.53.18-.78.13-1.12.23-2.25.35-3.36,0-.08.08-.16,0-.21-.4-1.92.08-3.85-.1-5.78a7.84,7.84,0,0,1,.33-3.8c.18-.37-.15-.94-.15-1.44,0-.7,0-1.39.08-2.09,0-.28,0-.56,0-.84,0-1.08-.09-2.17,0-3.26,0-.63.31-1.26.36-1.92a4.83,4.83,0,0,0-.13-1.36c0-.18-.15-.36-.13-.53.18-1.17.36-2.33.61-3.49a1.17,1.17,0,0,0-.1-1,3.52,3.52,0,0,1-.43-1.82,2.14,2.14,0,0,0-1.52-2.18l.21-.55h-.41c0-.1,0-.18.08-.23.45-.61.91-1.21,1.41-1.78a4.65,4.65,0,0,0,1-2.53,2.2,2.2,0,0,1,.07-.58c.64-1.64.41-3.39.56-5.11a4.09,4.09,0,0,1,.18-.75,1.27,1.27,0,0,0,.15-.41c0-.93,0-1.87.07-2.78.06-.66.26-1.29.33-1.95s0-1.16.1-1.76c.13-1.39.26-2.78.36-4.17.12-1.57.23-3.11.3-4.68a1.89,1.89,0,0,0-.28-.68l-.53.7v-2.78l.58-.21c-.15-.18-.28-.38-.43-.56a1.3,1.3,0,0,1-.18-1.39,11.58,11.58,0,0,0,.26-1.33c.07-.35.2-.73.27-1.08.1-.56.18-1.12.26-1.7l-.23-.07,1.19-.74-.08-.2-1.19.13a1.6,1.6,0,0,1,1.34-.56,2.26,2.26,0,0,0,1-.25c1.59-1.11,3.16-2.3,4.73-3.41a15,15,0,0,1,2.88-1.54,14.79,14.79,0,0,1,2.38-1c1.49-.3,2.73-1.21,4.22-1.49.91-.15,1.79-.35,2.7-.48a1.53,1.53,0,0,1,.94.28.84.84,0,0,0,1.11,0c.4-.25.88-.58,1.24.13,0,.1.28.15.43.18,1.06.22,2.15.43,3.23.68.23.05.41.33.66.55,1-.86,1.92.23,2.93.41a5,5,0,0,1,.91.38c-.25.73.23.78.76,1a10.12,10.12,0,0,1,2.43,1.29c1.34,1.11,2.6,2.35,3.89,3.57a8.2,8.2,0,0,1,.66.91,15.44,15.44,0,0,1,1.49,2,20.53,20.53,0,0,1,.76,2.17c.37.91.78,1.8,1.18,2.71l.28,0c.18-.56.36-1.12.51-1.67a2.89,2.89,0,0,0,.12-.91.85.85,0,0,0-.35-.61c-.43-.25-.58-.76-.15-.93,1.06-.43.82-1.42,1-2.2.13-.47,0-1,.08-1.47.1-.3.51-.53.78-.78-.33.5-.1.88.28,1.23.1.1.3.12.46.18l.4-1.12.43-.33a2,2,0,0,0-.61-.2c-.14,0-.27.15-.43.26l-.55,0Zm66.91-11.44a7.88,7.88,0,0,0,1.19,0c.68-.09,1.35-.24,2-.38s1.15-.25,1.73-.38l0-.27a2.93,2.93,0,0,0-.58-.06c-1.13.12-2.28.21-3.39.41-.35.06-.64.43-1,.65-.82.07-1.65.1-2.45.24-.29.05-.73.38-.73.58s.35.56.68,1c.14-.69.07-1.5.78-.66a.4.4,0,0,0,.38,0c.46-.38.9-.76,1.35-1.16Zm9.35,23.51a2.32,2.32,0,0,1,1.75-.95,2.21,2.21,0,0,0,1-.31c.38-.21.74-.54,1.12-.75a6.59,6.59,0,0,0,2.07-2.45c.28-.45.15-1.29.6-1.82,0-.05,0-.2,0-.28,0-.55,0-1.08,0-1.64s.13-1.29.13-1.92a2.83,2.83,0,0,0-1.07-2.48,10.36,10.36,0,0,0-2.8-1.36,25.21,25.21,0,0,0-5-.76,12,12,0,0,0-3.51.43c-1.77.46-3.49,1.11-5.2,1.67-.59.18-1.19.33-1.77.53a5.89,5.89,0,0,0-1.67.58c-1,.68-1.87,1.52-2.81,2.28a4.71,4.71,0,0,0-1.24,4.14,3.85,3.85,0,0,1,.08,1.31,11.83,11.83,0,0,0-.23,1.55,37.31,37.31,0,0,1-.78,7.5c-.2,1.09-.2,1.12.78.81,0,0,.08,0,.13,0a.85.85,0,0,0,.43,1.19,1.69,1.69,0,0,0,1.69-1.14l2.07-.46,0,.18a3,3,0,0,0-.58.4,3.41,3.41,0,0,0-.43.66c.41.13,1.09.43,1.19.3.48-.65,1.21-.55,1.85-.78,1.44-.58,2.88-1.19,4.29-1.79.1-.05.23-.1.28-.21a2.27,2.27,0,0,1,1.72-.75c.61-.08,1.09-1,1.69-1,1.77-.23,3.09-1.31,4.53-2.12.53-.31,1-.74,1.51-1.09l-.1-.23-1.94.63Zm-90.63-6.8c-.23-.64-.33-1.08-.53-1.49a5.2,5.2,0,0,0-1-1.72,4.78,4.78,0,0,0-3.16-1.16,18.74,18.74,0,0,0-6.09,1.38,16.82,16.82,0,0,0-2.53,1.06c-1.77,1-3.46,2.19-5.21,3.27-1.41.88-1.41,1-1.13,2.58.22,1.32.88,2.57.53,4a16,16,0,0,0-.11,3.33c0,.92,0,1.84,0,2.76,0,1.34.05,2.71,0,4.07,0,1.07-.23,2.15-.33,3.24,0,.35,0,.78.53.5a26.54,26.54,0,0,0,2.55-1.84c.81-.66,1.47-1.57,2.46-1.69.78-.81,1.49-1.55,2.2-2.25,1-1,2.45-1.67,3.13-3.06a4.89,4.89,0,0,0,.25-.68c.28-.18.58-.31.86-.51,1.06-.78,2.1-1.62,3.19-2.35.6-.4.73-.58.3-1.16a.61.61,0,0,1,.08-.94c.8-.78,1.56-1.59,2.4-2.3a4.19,4.19,0,0,0,1.44-2.78,6.28,6.28,0,0,1,.58-2,2,2,0,0,0,.18-.76c0-.15-.18-.31-.26-.46a1.48,1.48,0,0,0-.33.33,3.19,3.19,0,0,0-.2.51Zm-1.82,6.89c-1-.33-1.44-.07-1.64.91.55-.33,1-.58,1.61-.93Zm53.38,54.34.4.15.41-.91c-.18-.05-.48-.17-.48-.15-.15.28-.23.58-.36.89ZM1175,392.62l0,.3c.46.08.89.13,1.09-.6l-1.16.3Zm-76.08,40.59a6.69,6.69,0,0,0,.71-.43c.38-.25.33-.35-.2-.61l-.53,1Zm-.07,1.29c.15-.2.35-.38.33-.43a1.6,1.6,0,0,0-.41-.41c-.1.11-.28.23-.28.31a1.74,1.74,0,0,0,.31.5Zm86.34,27.27-.28-.18-.46.76.23.15.48-.75Zm-214.36,4c-.48-.51-1-1-1.41-1.47s-.81-1.06-1.57-1.16c-.08,0-.08-.35,0-.56a46.66,46.66,0,0,1-5-5.66l.15-.17.48.25a1.52,1.52,0,0,0-1.09-1.77,5.65,5.65,0,0,1-.73-.23c-.23,0-.43-.12-.78-.23,0-.27.07-.63.07-1a1.39,1.39,0,0,0-.15-.63c-.4-.63-1.29-.93-1.31-1.87,0-.1-.26-.18-.38-.25a1.21,1.21,0,0,0-1-1.95.87.87,0,0,1-.55-.38c-.46-.63-.89-1.31-1.32-1.94a4.56,4.56,0,0,0-.55-.53,2,2,0,0,0-1.22-1.65,3.26,3.26,0,0,1-.91-.83c.41.08.81.13,1.39.23l-.35-1.22-.53.74c-.2-.38-.38-.69-.56-1s-.25-1-.93-.63c-.08,0-.31-.13-.38-.25-.26-.43-.48-.89-.71-1.32l.53.15.13-.15-.48-.88-.15.05-.06.81c-.53-1-1.11-1.47-2.3-.79a18.87,18.87,0,0,1-2.57.84,1.34,1.34,0,0,0-.69.73,4.43,4.43,0,0,0-.17,1.42,2.86,2.86,0,0,1-.31,1.87,1.29,1.29,0,0,0-.07.63c0,2.4-.13,4.8-.13,7.2,0,.86.31,1.72.38,2.58.18,2,.43,3.92.46,5.89a43.9,43.9,0,0,0,.5,5.28,15.5,15.5,0,0,1,.18,2.35,1.19,1.19,0,0,1-.91,1.34c-.51.13-.94.58-1.44.76-.76.25-1.11,1.14-2,1.19-.16,0-.31.48-.46.76-.35-.38-.66-.36-1.09,0a2.15,2.15,0,0,1-1.34.18,9.57,9.57,0,0,1-1.28-.33c-.54.86-.51.81-1.39.25a3.86,3.86,0,0,0-1.37-.23c-.28.94-1.14.69-1.59.79l-1.16-1-1.65-1.36-.3.88c-.73-.3-1.44-.63-2.2-.91-.35-.12-.38-.28-.35-.63.07-.58.12-1.19-.69-1.42-.27-.07-.45-.37-.73-.6a1.18,1.18,0,0,0-.53,1.29c.05.2-.15.45-.25.68a2.51,2.51,0,0,1-.31-.61,10.11,10.11,0,0,1,0-1.56,1,1,0,0,1,.33-.64c.1-.07.38.13.48.16a3.54,3.54,0,0,1,1-.13c.46,0,.61-.15.48-.53a1.12,1.12,0,0,1,.16-1.19,1.51,1.51,0,0,0,.07-.48c0-1.54.1-3.08.13-4.63,0-.48-.13-.93-.15-1.41a50.44,50.44,0,0,1-.26-5.49c0-1.44-.25-2.85-.2-4.29,0-.66,0-1.32-.07-2a3.9,3.9,0,0,1,.12-.46,2.81,2.81,0,0,0,.15-.88c-.53-2.08-.3-4.2-.48-6.27a21.86,21.86,0,0,1,.23-2.76,16.29,16.29,0,0,0-.2-3,5.08,5.08,0,0,1-.15-2.32.9.9,0,0,0,0-.36c-.35-1.11,0-2.22,0-3.33,0-1.95-.15-3.9-.2-5.84,0-.63.05-1.29.08-1.92a7.86,7.86,0,0,0,0-.84c0-.35-.1-.7-.1-1.06,0-1.36-.1-2.7-.08-4,0-.91.16-1.8.21-2.71.07-2,.07-4.09.15-6.11.1-2.2.28-4.4.4-6.63.05-.88,0-1.79,0-2.7,0-.73.1-1.57-1.16-1.57a12,12,0,0,1,1-1,.48.48,0,0,1,.48,0c.35.26.7.36.91-.05.12-.25-.05-.63-.11-.93a.76.76,0,0,0-.15-.26.72.72,0,0,1,1,.51c.08.18.33.28.51.4l.3-.48c0-.05,0-.1,0-.15a1.29,1.29,0,0,0,0-1.82l.91.86.15-.07-.2-.84a3.81,3.81,0,0,0,1.11.05,4.74,4.74,0,0,0,1-.45,1.06,1.06,0,0,0,1.54.15.35.35,0,0,1,.28-.05c1.06.63,2.47.28,3.38,1.36a1.17,1.17,0,0,0,1.62.13c.2-.13.63.1.94.33a2.41,2.41,0,0,0,.85,0,1.72,1.72,0,0,0,.74-.53c.07-.1-.1-.38-.13-.55a2.76,2.76,0,0,1,.05-1c.43-.91,1-1.72,1.42-2.63s1.16-1.19,1.61-1.82c.71-.94,2-1.14,2.48-2.3,0-.1.25-.13.38-.18a10.09,10.09,0,0,0,1.42-.43,18.25,18.25,0,0,1,2.68-1.21,14.24,14.24,0,0,1,3-.21c.13,0,.28.11.41.11l3.56-.05a4.29,4.29,0,0,1,1.34.05c1.95.52,3.89,1,5.82,1.67a6,6,0,0,1,2,1.36,53.14,53.14,0,0,1,5.16,5,15.33,15.33,0,0,1,3.59,7.25,21.11,21.11,0,0,1,.23,2.88,25.77,25.77,0,0,1-1.22,7.61,33.23,33.23,0,0,1-1.67,4.19,11.49,11.49,0,0,0-.72,2.09c-.2,1.17-1.17,1.79-1.75,2.69-.29.46-.54.91-.83,1.37-.51.71-1,1.39-1.54,2.1s-.89,1.34-1.33,2a19,19,0,0,1-1.34,1.89c-.65.74-1.41,1.37-2.07,2.08-1.24,1.31-2.43,2.65-3.67,4a1.56,1.56,0,0,1-.73.41,1.23,1.23,0,0,0-.9,1.16c-.06.51.22.76.59,1.11a18,18,0,0,1,4.15,5,10.68,10.68,0,0,0,1.2,1.52c.51.68,1,1.34,1.47,2,.78,1.21,1.54,2.45,2.32,3.69.23.33.51.63.73,1,1.17,1.49,2.33,3,3.52,4.5.88,1.14,1.72,2.28,2.63,3.36.75.89,1.74,1.62,2.4,2.58a12.19,12.19,0,0,0,1.79,1.67c1.37,1.34,2.58,2.83,3.87,4.27.55.61,1.06,1.24,1.64,1.82.25.25.68.3,1,.53.56.48,1.06,1,1.59,1.54.74.71,1.52,1.39,2.23,2.1,1,1,2,2,2.93,3,.81.81,1.62,1.62,2.4,2.45a19.72,19.72,0,0,1,2,2.15,30.52,30.52,0,0,1,1.61,2.65c-1.13.13-.37.81-.35,1.11a6.24,6.24,0,0,1-.86,1.12,18.1,18.1,0,0,1-2.2,1.44c-.12.07-.45-.15-.71-.23-.42-.13-.68,0-.55.5h-1.57c-.43.94-2.2,1-3.06.48a7.2,7.2,0,0,0-1.11-.32c-.61-.2-1.2-.42-1.79-.66a2.16,2.16,0,0,0-1.52-.3c-.43.1-1-.26-1.44-.46s-1-.43-1.52-.56c-.17-.05-.4.23-.73.43l-1.59-1.89.17-.18,1.09.71.15-.13a4.5,4.5,0,0,0-1-1.77l-2.42-2.93c-.21-.23-.48-.38-.69-.6s-.55-.79-.88-1.12a6.16,6.16,0,0,0-.73-.53,5.34,5.34,0,0,0-.53-.83c-1.6-1.67-3.21-3.34-4.81-5l-.5-.61c.6-.07.45-.53.4-.86a.71.71,0,0,0-.88-.65l.48,1.51Zm-17.54-42.11a3.42,3.42,0,0,0-.18-.43c-.45-.68-.43-.66.31-.81.15-.05.28-.28.38-.43.63-1,1.26-2,1.92-3.06a23.23,23.23,0,0,0,2.15-3.26c.7-1.66,2.09-3,2.35-4.9a1.21,1.21,0,0,1,.27-.48c.36-.61,1.07-1.09.46-1.95-.05-.07.07-.27.15-.42s.33-.33.3-.43c-.22-1.14.74-2,.56-3.16s.38-2.23.56-3.34a3.29,3.29,0,0,0,0-1c-.08-.4-.23-.8-.33-1.21a3.94,3.94,0,0,0,.46-.23l-1.14-2-.66,1.29a15.44,15.44,0,0,1-.45-2.65c0-.74.12-1.39-.76-1.77a14.83,14.83,0,0,1-1.52-1,1,1,0,0,0-.73.05,2.72,2.72,0,0,0-.63.27,6.77,6.77,0,0,0-.61.59,2.12,2.12,0,0,0-.48.6c-.45.84-.88,1.7-1.26,2.53a26.74,26.74,0,0,0-1.11,2.45c-.41,1.06-.71,2.15-1,3.21l-.73,2.23c-.18.55-.38,1.11-.53,1.66-.11.33-.16.69-.26,1-.48,1.54-1,3.08-1.39,4.65-.35,1.34-.6,2.73-.83,4.1s-.43,2.9-.63,4.34c-.08.48-.21,1-.26,1.44s-.1,1.17-.2,1.75c-.15.78,0,1.11.68,1.41a4.89,4.89,0,0,0-.91,1.19c-.27.73.69.61.89,1.14l4-3.62-.12-.15,1.16.15ZM945.83,387c-.15,0-.25,0-.28.08-.59.84-1.18,1.68-1.75,2.54-.07.1,0,.3.05.45.18,0,.46,0,.53-.15.51-.83,1-1.72,1.47-2.58a1.51,1.51,0,0,0-.05-.33Zm11.25,60.11-.25.23a11,11,0,0,0,.68,1c.1.13.35.11.55.16,0-.16,0-.38,0-.49-.27-.33-.58-.63-.88-.93Zm-3.72-5.54c-.1-1.12-.35-1.32-1.08-.81l1.06.81ZM947,386c-.88.18-.95.32-.49,1l.49-1Zm98.45,37.33c-.5,2-.13,3.9-.78,5.77.67.73.19,1.74.23,2.68a36.24,36.24,0,0,1-.12,4.17c-.07,1.25-.3,2.49-.38,3.74-.09,1.77-.08,3.55-.15,5.33s-.17,3.56-.2,5.34c0,2,0,3.94,0,5.92,0,1.32.09,2.65,0,4a12.2,12.2,0,0,1-.67,2.35,4.79,4.79,0,0,1-.29.93,1.61,1.61,0,0,1-.63.71,8.19,8.19,0,0,1-2.81.91c-.73,0-1.84.46-2.32-.81l-.38.59-.51-1.19-.2.05c-.1.28-.17.53-.25.81l-.23.05a5.54,5.54,0,0,1-.55-1c-.28-.91-.36-1-1.14-.48-.1.05-.2.07-.41.15,0-.38.43-.89-.32-.84,0-.1,0-.15,0-.17l.55-.76-1-.36c-.3-.1-.61-.2-.88-.32s-.53-.38-.84-.59c.15-.12.33-.17.38-.3a3.48,3.48,0,0,0,.13-.73c-.2,0-.43-.1-.58,0-.48.28-.66,0-.74-.4,0-.15,0-.33,0-.66-1,.78-1.64.13-2.25-.61,1.5-.53,1.62-1.84,1.62-3.23l-.43.53a131,131,0,0,1,.46-14.86c.48-4.9.22-9.86,1.18-14.69l.61.11a3.08,3.08,0,0,0-.25-.76,4.77,4.77,0,0,1-.51-2.81c0-.71,0-1.49.81-2a1.72,1.72,0,0,0-.2-.61c-.1-.17-.38-.3-.38-.45a34.29,34.29,0,0,0-.08-4.42c-.22-1.52.28-2.91.38-4.35.08-1-.17-2.07-.15-3.11,0-1.42.28-2.81.38-4.2,0-.83,0-1.69.08-2.52.28-1.6.17-3.26.86-4.81.43-1,.5-2.14.93-3.13a5.22,5.22,0,0,1,1.49-2c.31-.22,1.09.05,1.62.26a.78.78,0,0,0,1-.23,4.88,4.88,0,0,1,1.11-.89.78.78,0,0,1,1.19.16c.07.1.22.25.33.25,1.31-.05,2.47.88,3.89.53.48-.13,1.11.23,1.67.38a9.77,9.77,0,0,1,1.16.48,1.53,1.53,0,0,1,.48.4c.73,1.12,1.49,2.23,2.17,3.36s1.19,2.2,1.8,3.29c1.26,2.25,1.67,4.8,2.42,7.2a65.85,65.85,0,0,1,2.1,8.88c.33,1.89.89,3.71,1.24,5.58a18.34,18.34,0,0,0,.78,2.58c.26.68.61.71,1.17.25s1.36-1,2-1.54a5.8,5.8,0,0,0,1.49-1.72c1-2.27,2-4.62,2.9-7,.71-1.72,1.34-3.49,2-5.21a3.35,3.35,0,0,1,.71-.86s.13-.08.15-.13c.25-1.26,1.57-1.94,1.75-3.26a11.79,11.79,0,0,1,.68-1.74c.07-.33-.15-.73-.08-1.06s.28-1.17.58-1.27c.66-.17.76-.75,1.12-1.16a5.46,5.46,0,0,0,.7-1.31,5.75,5.75,0,0,0,.13-.94l-.23-.07a19.77,19.77,0,0,1,1.27-1.7,1,1,0,0,1,1.49-.35,4.54,4.54,0,0,0,1.59.15c.63,0,.88-.45,1.21-.88a1.59,1.59,0,0,1,.68-.48c.33-.13.66,0,.64.37-.05.56.25.59.65.51a5.77,5.77,0,0,1,.71-.1,1.09,1.09,0,0,1,.38.07c0,1.09,1.16.54,1.52,1.12,0,.1.35,0,.53,0,.73,0,1.46-.07,2.2,0a2.33,2.33,0,0,1,1,.63c.38.33.61.79,1,1.09a5.68,5.68,0,0,1,1.84,2.76c.53,1.74,1.17,3.48,1.55,5.25a26.8,26.8,0,0,1,.25,3.92c0,.08,0,.18,0,.2.86,1.11.5,2.43.68,3.67.25,1.61.46,3.28.58,4.93.1,1.23,0,2.5.08,3.76,0,1.59.12,3.16.07,4.75s-.27,3.42-.35,5.11c-.08,1.09,0,2.17,0,3.26-.18,2.1-.46,4.2-.61,6.32s-.28,4.47-.38,6.72c-.07,1.37-.15,2.76-.15,4.12,0,.81.2,1.64.13,2.48a32.24,32.24,0,0,1-.58,3.33c-.18.94-.41,1.87-.61,2.81a.54.54,0,0,0,.05.33,3.81,3.81,0,0,1-.3,3.23,2.62,2.62,0,0,1-.36.48l-.63-.15c-.07.38,0,.84-.25,1.06s-.58,0-1,0a.46.46,0,0,1-.07.18l-.33.63c-.2-.18-.41-.33-.58-.51s-.23-.3-.33-.3a.45.45,0,0,0-.33.3c-.2.63-.48.63-.91.2-.07-.07-.25-.15-.3-.1-.66.41-1.06-.07-1.54-.35s-.81-.33-1.17-.53c-1.36-.78-1.92-2.23-2.75-3.44a11.36,11.36,0,0,0-1-1.19,5.83,5.83,0,0,1-.86-1,12.47,12.47,0,0,1-1.44-4.95c-.15-2.71-.12-5.41-.1-8.11,0-1.29.23-2.61.3-3.9s0-2.4.08-3.61a5.84,5.84,0,0,1,.58-1.52c-.5-.15-.58-.5-.35-1.14a4,4,0,0,0,.38-2.09c-.41-1.34.15-2.53.15-3.79a3.74,3.74,0,0,1,.3-1c.05-.13.13-.35.05-.43-.63-.68-.22-1.47-.15-2.17a13.32,13.32,0,0,1,.56-2.28c.15-.5-.08-.71-.48-.86s-.79,0-.89.41a3.4,3.4,0,0,1-1.24,2.17c-.07.05,0,.25,0,.38a8.21,8.21,0,0,1-.43,1.09c-.12.28-.43.6-.4.86.15.83-.41,1.29-.83,1.84a11.71,11.71,0,0,0-1.82,2.53,8.45,8.45,0,0,1-1.57,2.4,27.92,27.92,0,0,1-2.07,2c-.23.2-.43.45-.66.63a13.29,13.29,0,0,1-2,1.39,13.51,13.51,0,0,1-5,1.21,7.41,7.41,0,0,1-6.16-2.2c-1-1.06-2.08-2.1-3-3.23-.7-.89-1.21-1.92-1.82-2.88-.73-1.14-1.49-2.28-2.12-3.47s-1.29-2.55-2-3.81a5.56,5.56,0,0,0-.5-.76Zm-10.72-23.51c.08-.07.19-.14.29-.23.76-.71.39-1.74.71-2.6.15-.43-.23-1,.49-1.29,0,0,0-.21.07-.33.13-.87.28-1.74.41-2.63a.63.63,0,0,0-.2-.5c-.66-.5-1.45,0-1.62.88-.13.68-.36,1.37-.46,2.06a8.78,8.78,0,0,0,0,1.3c-.17.38-.45.93-.7,1.51,0,.08.07.21.12.31l.79,1.51Zm-1.69,11.3.23,0a2.76,2.76,0,0,1,.07-.71,1.73,1.73,0,0,1,.4-.57c.1-.28.13-.69.33-.82.61-.37.35-.73.13-1.24a7,7,0,0,1-.51.58,18,18,0,0,1-.08-2.81,9.27,9.27,0,0,0-.07-2.78,6.74,6.74,0,0,0-.38,2c-.1.94-.15,1.9-.25,2.83,0,.53-.13,1-.13,1.54a17.86,17.86,0,0,0,.18,2.08Zm.14,24.86c.07-.13.14-.22.2-.32.58-.88.45-1.18-.62-1.5-.13,0-.2-.21-.3-.33l-.31-.63-.93.5c.71.37,1.08.81.68,1.33-.61.79-.08,1.39.2,2,.1.18.51.39.63.32a1.23,1.23,0,0,0,.54-.68c0-.09-.26-.3-.41-.46l-.45-.47.17-.14.63.36Zm-.19-12c.23.39.46.8.72,1.27.38-.43.39-.72.09-1.1s-.79-.9,0-1.47c.28-.19.2-.89.25-1.37a.81.81,0,0,0-.53-.13c-.12,0-.22.25-.33.39a2.51,2.51,0,0,1,0-.85,4,4,0,0,0-.1-.77l-.33,0c0,.84-.07,1.67-.12,2.51,0,.23-.08.46-.1.69a1.72,1.72,0,0,0,0,.71c0,.09.41.06.61.08Zm.17-8.88-.35,0c-.06.45-.08.9-.13,1.35s-.13.85-.2,1.28-.18,1-.21,1.53c0,.11.33.37.43.33.69-.25,1.09-.12,1.12.84a1.21,1.21,0,0,0,.32-1.47c-.12-.28-.53-.4-.83-.58l-.23.15v-3.38Zm.48-13c.71-1.06.81-1.42.23-2.23a1.48,1.48,0,0,0-.26,2.23Zm-.71,22.57c-.81.45-.88,1.11-.33,2.6.53-.91.1-1.82.31-2.63Zm-.48,6.24-.18,0a9.61,9.61,0,0,0-.17,1.7c0,.12.38.3.6.4,0,0,.33-.25.31-.35-.18-.61-.38-1.16-.58-1.75Zm-.48,10.92v-2.05a1.41,1.41,0,0,0,0,2Zm1.82-26.41.25,0c0-.58.53-1.16,0-1.72h-.3v1.7Zm-2.17,33.94a1.16,1.16,0,0,0,.91-1.69l-.94,1.69Zm.38,3.84h.43c0-.35,0-.71,0-1,0-.05-.3-.08-.48-.13v1.14Zm.58-24.56c-.51,1.18-.53,1.36,0,1.81Zm-.79,10.36.21,0c.32-.73.3-1-.31-1.34l.08,1.34Zm1.8-21.11.35.1.31-.83a2.26,2.26,0,0,0-.43-.18l-.26.89Zm42.33-22.34c-.38-.73-.68-.78-1.23-.23Zm-44.55,54.27.09-.4a6.09,6.09,0,0,0-.73-.1s-.08.21-.11.33l.75.17Z" transform="translate(-80.55 -52.26)"/><path class="cls-1" d="M1024,425.62c0,.66,0,1.24,0,1.82s.1,1.39.14,2.09c0,.36,0,.71,0,1.07-.07,1.13-.1,2.27-.23,3.39-.14,1.32-.39,2.62-.57,3.94a4.43,4.43,0,0,0,.08.8,1.92,1.92,0,0,1,0,.76c-.65,1.89-.78,3.91-1.29,5.81-.43,1.64-.68,3.46-1.87,4.87a.4.4,0,0,0-.12.23c.17,1.49-.91,2.3-1.77,3.21-1.24,1.31-2.48,2.6-3.64,4a13.21,13.21,0,0,1-4.43,3.32,9.86,9.86,0,0,0-2.19,1,1.12,1.12,0,0,1-.69.1,5.88,5.88,0,0,0-2.85.63,5.55,5.55,0,0,1-2.15.25c-.84-.07-1.64-.45-2.48-.55a5.15,5.15,0,0,1-2.15-.61c-.88-.61-1.82-1.11-2.73-1.67l-3.91-2.5a1.49,1.49,0,0,1-.41-.38c-.63-.83-1.24-1.69-1.84-2.53a.84.84,0,0,0-.41-.38c-.45-.17-.53-.53-.55-1a2.08,2.08,0,0,0-.31-.86c-.88-1.44-1.84-2.83-2.65-4.32-.66-1.21-1.11-2.53-1.67-3.82,0-.12-.07-.32-.18-.37a1.18,1.18,0,0,1-.5-1.42.86.86,0,0,0-.38-.71c-.58-.3-.73-.58,0-1.06l-.6-.23a7.53,7.53,0,0,1-.43-1.26c-.1-.56-.13-1.11-.23-1.67a5.35,5.35,0,0,0-.33-1.57,3.08,3.08,0,0,1-.3-2.4.85.85,0,0,0,0-.35c-.8-2.45-.27-4.95-.35-7.43,0-1.54,0-3.08.1-4.63.05-1,.25-1.94.38-2.9.05-.43.1-.89.13-1.32a.87.87,0,0,1,0-.28c.58-1.87.25-3.91,1.11-5.76a33.16,33.16,0,0,0,1.11-3.54c.1-.35.1-.68.58-1s.53-1,.68-1.59.18-1.41.31-2.12.2-1.22,1-1.39c.1,0,.1-.46.12-.68s0-.54.06-.56c.85-.15,1-1,1.33-1.54.54-.81,1-1.65,1.47-2.5.38-.69.78-1.34,1.11-2.05a3.65,3.65,0,0,1,1.65-1.9.61.61,0,0,0,.27-.3c.18-.56.31-1.14.48-1.8l-.61-.07c.11-.09.16-.2.25-.23.48-.15.89-.32,1-.93,0-.14.26-.24.38-.38s.29-.29.28-.42c0-.59.19-.65.71-.48.18.08.48-.15.71-.25-.17-.16-.33-.46-.51-.48a6,6,0,0,0-1.09.18c-.19,0-.44.07-.55,0a.48.48,0,0,1-.1-.51.71.71,0,0,1,.5-.25,2.2,2.2,0,0,0,.76-.16l-.88-.59c.54-.32,1.18,1,1.56-.17,1.75.15,2,.07,2-.48,1.11,0,2.23.15,3.34.07.4,0,1,0,1.24-.5,0,0,.12-.08.18-.08.95,0,1.89,0,2.83.05.13,0,.31.08.4,0,1.2-.76,2.46-.33,3.69-.2a14.16,14.16,0,0,1,2.46.65,6.37,6.37,0,0,1,1.12.61c.2.1.38.28.55.3a8.81,8.81,0,0,1,3.21,1.6,3,3,0,0,0,1.09.15l0,.45a1,1,0,0,0,.21.08,2.39,2.39,0,0,1,2.45.63c1.29,1.06,2,2.5,3.08,3.71a2.06,2.06,0,0,1,.28.66,24.5,24.5,0,0,1,.91,5.39c.1,2.4.5,4.8.66,7.22.12,2,.07,4,.15,6,0,1,.15,1.92.2,2.88.05,1.21,0,2.43,0,3.64,0,.33,0,.66,0,1v5a1.59,1.59,0,0,0,.13.68c.17.38.2.68-.13.78Zm-16,14.21h.28a3,3,0,0,1,0,1c-.59,1.71-1.24,3.39-1.85,5.08a1.61,1.61,0,0,0,0,.49l.2.07c.15-.19.38-.35.46-.57a17.17,17.17,0,0,0,.78-2.22c.2-.72.28-1.39,1.24-1.59.68-.14,1-2.63.38-3.27l-.28,1.21c-.13-1.41-.71-2.86.23-3.88a7.8,7.8,0,0,1-.23-2.22c.15-.68.5-1.29-.1-1.9a.56.56,0,0,1,0-.28c.23-1.12.43-2.24.63-3.37a4.39,4.39,0,0,0,.11-1c0-.86-.06-1.75,0-2.61.08-.63.41-1.26-.08-1.89-.07-.08,0-.31,0-.36l.64,0-.21-1.34c1-.58,1.07-.71.41-1.9-.18-.3-.3-.6-.46-.93l.16-.08c.22.38.45.76.68,1.11l.88-.68-1.87-2,.53,0a14,14,0,0,0,0-1.72c0-.26-.28-.48-.46-.71a8.33,8.33,0,0,1-.17-1.95c0-1.06,0-2.12-.13-3.18,0-.38,0-.63.38-.66.81-.07.66-.76.66-1.19s-.31-.68-.46-1l-.23.1-.22,1.12-.11,0-.12-1.84c.23.05.4.1.55.12,1-1.21.36-2.5.41-3.81.5.2.76,0,.73-.61,0-1.19,0-2.38-.1-3.57,0-.15-.13-.27-.2-.4-.1.13-.3.25-.3.38,0,.56,0,1.14.07,1.69s0,1,.1,1.49l-.25.05a3.45,3.45,0,0,1-.3-.65c-.1-.48-.13-1-.23-1.47a.81.81,0,0,0-.41-.58c-.6-.25-.55-.61-.22-1s.27-.53-.18-.65c.56-.38.56-.68.08-1.14a3.93,3.93,0,0,1-.61-1.21l.15-.05.35.22c.13-.43-.4-.88-1.26-1.08-.48-.1-.81.2-.88.88a1.73,1.73,0,0,0-2,1.21c0,.28-.35.51-.56.71s-.5.23-.63.43a34.92,34.92,0,0,0-2.37,3.21c-1.14,1.92-2.18,3.89-3.24,5.87a30.8,30.8,0,0,0-1.36,2.83c-.36.86-.56,1.77-.86,2.63a20.62,20.62,0,0,0-1.32,3.69c-.2,1.31-1,2.4-1,3.76,0,.51-.43,1-.48,1.49-.21,2-.38,4-.53,5.94,0,.41.12.81.1,1.22-.05,1.79-.13,3.56-.21,5.33a29.18,29.18,0,0,0-.12,3c0,1,.23,2,.38,3.05a.15.15,0,0,0,.07.13,2.06,2.06,0,0,1,.41,1.74,4.6,4.6,0,0,0,.12,1.29c.36,1.22.71,2.45,1.19,3.64a31,31,0,0,0,1.82,3.87c.76,1.31,1.69,2.53,2.55,3.77a.65.65,0,0,0,1,.1c1-.76,1.92-1.55,2.91-2.28a1.88,1.88,0,0,1,.65-.15,1.46,1.46,0,0,0,.36-.2c-.18-.79.3-1.06.88-1.34.1,0,.13-.23.18-.36.58-1.41,1.16-2.83,1.72-4.27.12-.33.18-.7.28-1.06.32-1.11.68-2.22,1-3.36Zm2.79-24.67.39,0a5,5,0,0,1,.3-1.31c.59-1.12.33-1.17-.61-1.64a5,5,0,0,1,.12.94c-.05.66-.15,1.29-.2,1.95Zm-29.35,2.31c.65-1.32.75-2.8.28-3.37a4.59,4.59,0,0,0-.28,3.36Zm30.91,2.63c-1.1,1.13-1.17,1.36-.61,2,.19-.35.3-.8.59-1,.49-.35.32-.58,0-.93Zm-.58,3.49a1.53,1.53,0,0,0-.33,1.89,2,2,0,0,0,.33-1.89Zm-.1,3.13-.36.15a2.66,2.66,0,0,0,.27.78c0,.08.36,0,.55-.07l-.46-.81Zm-.92,6,.45.08.17-1.16-.39,0-.23,1.16Zm-.4,4.63-.3-.08-.43.86.13.18c.17-.05.46-.05.51-.15a2.41,2.41,0,0,0,.1-.76Zm-28.9-19.31-.35.05.15.68.29,0Z" transform="translate(-80.55 -52.26)"/></svg>