<svg width="475" height="220" viewBox="0 0 475 220" xmlns="http://www.w3.org/2000/svg" xmlns:xlink="http://www.w3.org/1999/xlink"><defs><path id="a" d="M.04 25.557h72.48V.024H.04v25.533z"/><path id="c" d="M.735 25.557h40.204V.029H.735v25.528z"/><path id="e" d="M.478 25.557h136.819V.029H.478v25.528z"/></defs><g fill="none" fill-rule="evenodd"><path d="M56.395 127.91h9.17c8.253 0 15.36-2.98 15.36-15.815 0-10.54-5.273-15.583-15.819-15.583h-8.711v31.398zm9.399-63.252c11.004 0 14.213-4.813 14.213-13.292 0-8.25-4.585-13.292-14.442-13.292h-9.17v26.584h9.399zM0 4.387h83.217c41.264 0 54.102 20.625 54.102 40.333 0 16.5-9.4 27.73-24.53 32.771 12.838 4.125 28.886 14.208 28.886 36.667 0 25.897-17.882 47.439-59.834 47.439H0V4.387zm474.078 157.21h-39.89c-.687-2.52-2.292-8.708-2.521-13.062-8.712 12.145-22.237 17.187-41.494 17.187-53.873 0-67.399-43.773-67.399-79.523 0-49.958 24.988-85.937 79.09-85.937 52.957 0 70.838 26.354 72.443 53.625h-57.77c-1.376-7.563-3.44-14.208-14.443-14.208-11.92 0-17.652 11.916-17.652 44.458 0 27.729 4.585 42.168 17.652 42.168 11.92 0 14.901-9.625 14.901-19.708v-2.062h-14.901V69.699h71.984v91.898" fill="#0A0B09"/><g transform="translate(2.643 193.525)"><mask id="b" fill="#fff"><use xlink:href="#a"/></mask><path d="M9.432 20.786c1.87 0 3.486-.916 3.486-3.371 0-2.129-1.616-3.009-3.486-3.009H6.13v6.38h3.3zM8.845 9.97c1.614 0 3.228-.44 3.228-2.567 0-2.165-1.429-2.497-2.861-2.497H6.13V9.97h2.714zM.04.47h10.604c4.365 0 7.666 1.468 7.666 5.978 0 3.41-1.87 4.732-5.062 5.426v.147c3.632.44 5.832 2.349 5.832 6.052 0 4.842-3.484 7.152-8.144 7.152H.04V.469zm26.264 0h6.128v15.88c0 3.155 1.318 4.475 3.85 4.475 2.495 0 4-1.284 4-4.585V.47h5.943v15.66c0 5.685-3.705 9.537-10.125 9.537-6.018 0-9.796-3.522-9.796-8.987V.47m32.46 16.615c-.44 1.98.33 4.253 4.22 4.253 2.566 0 3.448-1.027 3.448-2.385 0-2.053-2.054-2.567-4.477-3.447-3.631-1.246-8.108-3.006-8.108-8.178 0-4.62 3.56-7.445 9.614-7.299 7.41.147 9.5 4.512 8.695 8.29l-5.616.512c.367-2.862-.658-4.473-3.556-4.473-1.946 0-3.046.733-3.046 2.275 0 2.051 1.98 2.677 4.401 3.52 3.743 1.245 8.182 2.75 8.182 7.883 0 4.437-3.302 7.63-9.757 7.63-6.054 0-10.2-2.788-9.357-8.07l5.357-.511" fill="#0A0B09" mask="url(#b)"/></g><path fill="#0A0B09" d="M80.847 193.994h19.774v4.548h-6.897v20.207h-6.128v-20.207h-6.749v-4.548m26.556 0h6.126v20.209h10.31v4.546h-16.436v-24.755m23.145 0h16.398v4.548h-10.273v5.317h8.622v4.549h-8.622v5.795h10.641v4.546h-16.766v-24.755m44.054 20.316c2.714 0 5.318-1.65 5.318-8.066 0-6.38-2.604-7.813-5.318-7.813h-2.753v15.88h2.753zm-8.878-20.316h9.465c6.162 0 10.932 3.595 10.932 12.25 0 8.472-4.55 12.505-10.932 12.505h-9.465v-24.755z"/><g transform="translate(191.543 193.525)"><mask id="d" fill="#fff"><use xlink:href="#c"/></mask><path fill="#0A0B09" mask="url(#d)" d="M.735.47h12.768v4.328h-3.34v16.1h3.34v4.327H.735v-4.327h3.303v-16.1H.735V.469M30.74 12.72h10.2v12.505h-4.147v-4.18c-.879 2.75-2.861 4.622-7.116 4.622-5.724 0-10.015-3.964-10.015-12.947C19.662 3.734 23.99.03 30.74.03c7.594 0 10.565 4.291 9.722 8.655l-5.76.625c.44-3.412-1.248-4.952-3.669-4.952-2.677 0-5.025 1.943-5.025 8.474 0 6.526 2.016 8.36 4.988 8.36 2.751 0 4.292-1.687 4.365-3.376v-.696H30.74v-4.4"/></g><path fill="#0A0B09" d="M239.228 193.994h12.768v4.328h-3.34v16.1h3.34v4.327h-12.768v-4.326h3.303v-16.1h-3.303v-4.33m18.412.001h19.775v4.548h-6.898v20.207h-6.125v-20.207h-6.751v-4.548m30.739 15.514h5.32l-1.689-5.209c-.585-1.76-.843-4.253-.843-4.253h-.147s-.367 2.532-.917 4.218l-1.724 5.244zm0-15.514h6.2l8.365 24.755h-6.2l-1.54-4.693h-8.292l-1.504 4.693h-5.357l8.328-24.755z"/><g transform="translate(308.917 193.525)"><mask id="f" fill="#fff"><use xlink:href="#e"/></mask><path fill="#0A0B09" mask="url(#f)" d="M.478.47h6.126v20.208h10.31v4.547H.478V.469M43.872 12.72h10.199v12.505h-4.145v-4.18c-.88 2.75-2.863 4.622-7.118 4.622-5.722 0-10.015-3.964-10.015-12.947C32.793 3.734 37.12.03 43.872.03c7.594 0 10.567 4.291 9.724 8.655l-5.76.625c.438-3.412-1.25-4.952-3.67-4.952-2.678 0-5.026 1.943-5.026 8.474 0 6.526 2.016 8.36 4.989 8.36 2.75 0 4.291-1.687 4.365-3.376v-.696h-4.622v-4.4m24.17-7.814v6.09h2.203c1.762 0 3.816-.55 3.816-3.192 0-2.163-1.396-2.898-3.083-2.898h-2.936zM61.918.469h10.197c4.844 0 8.108 2.349 8.108 6.896 0 3.705-2.53 5.941-4.99 6.711.735.624 1.286 1.467 1.726 2.349 1.027 2.088 1.724 4.4 3.888 4.4.552 0 .992-.185.992-.185l-.479 4.365s-1.32.33-2.457.33c-2.935 0-4.622-1.135-6.348-5.06-.733-1.762-1.76-4.842-3.117-4.842h-1.396v9.792h-6.124V.469zM103.806 12.5c0-6.16-2.42-8.142-5.061-8.142-2.643 0-5.027 1.982-5.027 8.142 0 6.858 2.384 8.838 5.027 8.838 2.64 0 5.061-1.98 5.061-8.838zm-16.36 0c0-8.912 4.731-12.47 11.372-12.47 6.529 0 11.26 3.558 11.26 12.47 0 9.901-4.878 13.167-11.26 13.167-6.64 0-11.373-3.559-11.373-13.167zM117.376.47h6.127v15.88c0 3.155 1.319 4.475 3.85 4.475 2.496 0 4-1.284 4-4.585V.47h5.944v15.66c0 5.685-3.705 9.537-10.126 9.537-6.017 0-9.795-3.522-9.795-8.987V.47"/></g><path d="M460.772 198.43v7.044h2.861c1.907 0 3.633-1.026 3.633-3.705 0-2.528-1.726-3.338-3.633-3.338h-2.861zm-6.125-4.436h10.382c4.878 0 8.401 2.457 8.401 7.408 0 5.392-3.411 8.509-8.401 8.509h-4.257v8.838h-6.125v-24.755zm-239.16-70.67h11.233c15.13 0 19.715-6.644 19.715-41.25 0-34.145-4.585-39.645-20.632-39.645h-10.316v80.895zM160.238 4.387h70.608c53.644 0 77.257 29.104 77.257 76.77 0 49.273-26.364 80.44-77.715 80.44h-70.15V4.387z" fill="#0A0B09"/></g></svg>