<svg width="724" height="128" viewBox="0 0 724 128" xmlns="http://www.w3.org/2000/svg"><path d="M.8 15.4C1 8 5.5 1.9 13.4 1.9h38.2c28.3 0 40.9 20.3 40.9 40.7 0 20.5-12.6 40.5-40.9 40.5H27.1v31.5c0 6.7-5.9 12.2-13.1 12.2-6.8 0-13.1-5.8-13.1-12.2V15.4H.8zm26.3 9.7V60h23.2C60.6 60 66 50.6 66 42.5 66 34.8 61 25 51.1 25h-24v.1zm135.4 77.8h35.8c5.9 0 10.8 5.2 10.8 11.5 0 5.9-5 11.3-10.8 11.5h-51.7c-6.7 0-10.4-5-10.4-11.2V13.2c.2-6.5 6.3-12.2 13.1-12.2 7.2 0 13.1 5.6 13.1 12.2v89.7h.1zm155.3-101c5.9 0 10.8 5.2 10.8 11.7 0 5.9-5 11.5-10.8 11.5h-41.4v28.4h35.8c5.9 0 10.8 5 10.8 11.3 0 5.9-5 11.3-10.8 11.3h-35.8v26.6h43c5.9 0 10.8 5.2 10.8 11.5 0 5.9-5 11.5-10.8 11.5h-58.9c-6.7 0-10.3-5-10.4-11.2V13.1c.2-6.1 3.8-11.2 10.4-11.2h57.3zm80.8 94.7l-8.5 22.7c-2.3 6.1-9.9 9-16.6 6.8-6.5-2.2-10.1-10.3-7.9-16.4l35.8-96.5C404.3 5.6 410 1 419.2 1h1.1c9.2 0 14.9 4.7 17.8 12.2l35.8 96.5c2.2 6.1-1.4 14.2-7.9 16.4-6.7 2.2-14.2-.7-16.6-6.8l-8.5-22.7h-42.3zm33.9-22.9l-12.6-43.2-12.6 43.2h25.2zm84.8 12.4c7-2.7 13.7 1.1 16.2 6.3 2.7 5.6 8.8 11.7 20 11.7 10.6 0 18-5 18.2-13.1.2-5.6-2.3-10.4-14.9-14l-14.9-4.1c-27.4-8.5-32-24.1-32-35.3 0-22.1 18.9-37.1 42.7-37.1 17.8 0 31.1 7.7 37.8 20.7 3.1 5.9.5 11.7-4 14.6-6.5 4.1-12.2 2.3-16.6-3.1-5.2-6.7-12.1-8.6-17.6-8.6-9.2 0-16 5.4-16 12.8 0 3.2 1.3 9.2 13.3 12.6l14.8 4.3c30.1 8.6 34.4 25.6 34 37.4-.4 24.7-22.7 36.4-44.6 36.4-21.9 0-37.8-10.6-43.2-26.6-2.2-6.4.6-12.5 6.8-14.9zM710.7 1.9c5.9 0 10.8 5.2 10.8 11.7 0 5.9-5 11.5-10.8 11.5h-41.4v28.4h35.8c5.9 0 10.8 5 10.8 11.3 0 5.9-5 11.3-10.8 11.3h-35.8v26.6h43c5.9 0 10.8 5.2 10.8 11.5 0 5.9-5 11.5-10.8 11.5h-58.9c-6.7 0-10.3-5-10.4-11.2V13.1c.2-6.1 3.8-11.2 10.4-11.2h57.3z" fill="#231F20"/></svg>