<svg xmlns="http://www.w3.org/2000/svg" width="125" height="41" viewBox="0 0 125 41"><g fill="#000000" fill-rule="evenodd"><path d="M87.737 6.398c.01-.036.028-.072.033-.11.05-.407.27-.494.63-.292.197.11.282.395.567.366.016-.002.042.057.058.09.016.034.014.086.04.105.24.18.562.21.787.424l2.017-.46c.19.17.68.18.95.06.25-.1.5-.33.81-.13.03.02.19-.07.19-.1-.01-.09-.07-.17-.11-.26.77.15 1.5-.19 2.27-.27.05 0 .13-.03.14-.06.08-.25.3-.25.5-.29 1.13-.27 2.26-.55 3.39-.83.11-.03.23-.07.34-.13.19-.1.33-.06.53.14l-.71.27.01.07.77-.07c-.6.18-1.24.26-1.76.82.78-.12 1.5-.13 2.2.01v.09l-1.88.53.01.1.25.12-.28.43.46.3-.3.38.24.19c-.15.06-.25.11-.36.14-.26.07-.53.09-.68.39-.04.07-.23.06-.35.09.02.28-.07.38-.39.34-.31-.04-.52.09-.69.34-.02.04-.05.11-.08.11-.34.01-.4.28-.53.5-.06.1-.23.15-.36.2-.27.11-.57.17-.83.29-.27.14-.51.33-.77.49-.3.19-.59.41-.91.55-.49.22-1 .37-1.5.56-.15.06-.27.18-.41.25-.78.38-.99 1.09-1.08 1.87-.07.59-.17 1.17-.27 1.76-.1.58-.17 1.17-.31 1.74-.11.45.3.91.77.87.82-.07 1.64-.11 2.47-.16.12-.01.24-.01.36 0 .27.03.53.05.8-.08.14-.07.35 0 .52-.03.29-.05.57-.15.86-.2.31-.05.64-.07.95-.1.02 0 .07.02.08.01.27-.26.63-.25.96-.32.41-.09.83-.18 1.24-.29.15-.04.3-.12.44-.21.11-.06.21-.15.31-.24.12-.1.25-.15.37-.02.07.08.11.19.21.36.25.11.25.11.21.55h.48l-.14.13c.3.48-.32.34-.35.62.17.02.35.03.55.05.02.34-.03.73.14 1.07l-.73.64.47.15c-.26.12-.44.2-.63.29l.03.08c.05 0 .11-.02.15 0 .08.06.17.12.21.2.02.04-.05.17-.11.19-.46.16-.82.57-1.37.52-.18-.01-.37.15-.55.24-.12.05-.23.11-.34.18-.13.08-.26.17-.38.27-.04.03-.07.11-.11.12-.35.13-.69.3-1.05.36-.84.14-1.68.28-2.52.32-.48.03-.92.13-1.38.22-.08.01-.17 0-.25.01-.26.04-.51.1-.76.15-.11.03-.22.07-.33.1l-2.47.67c-.22.06-.27.22-.27.41-.02 1.21-.07 2.42-.03 3.64.02.81.15 1.62.28 2.43.07.46.49.71.97.57.62-.18 1.24-.08 1.87-.11.61-.03 1.22-.16 1.83-.26.5-.08 1-.18 1.5-.26.3-.04.63 0 .91-.11.52-.19 1.06-.1 1.58-.18.15-.02.32 0 .47-.05.32-.09.52-.32.61-.64.33.14.64.01.76-.31.05-.15.14-.17.26-.08.09.07.18.16.31.29l.51-1.61c.01.06.05.14.05.21.01.06-.02.11-.03.17-.08.37-.03.42.42.36l-.3.72c-.02.15-.03.38-.09.6-.05.21.12.54-.35.58.44.33.37.73.29 1.13-.04.23-.04.44.25.58.17.09.28.33.52.34.11 0 .25-.02.32-.09.21-.2.39-.43.59-.64.03-.04.08-.08.13-.09.36-.06.57-.35.58-.73.01-.37.09-.75.11-1.12.04-.66.04-1.31.09-1.97.05-.7.16-1.39.21-2.08.04-.48.04-.96.06-1.44 0-.05-.01-.09-.01-.14.09-.72.16-1.44.28-2.15.14-.88.3-1.75.45-2.62.02-.11.06-.22.09-.32.02-.07.08-.15.07-.21-.11-.72.25-1.36.3-2.05.04-.6.09-1.19.14-1.79.03-.36.06-.71.08-1.07 0-.09-.02-.19-.04-.29l-.11-.03c-.12.23-.27.45-.36.69-.09.25-.14.52-.18.79-.05.27-.09.55-.09.82 0 .09.11.19.17.28-.09.06-.27.11-.3.21-.03.12.06.28.11.44-.43.12-.42.47-.39.82 0 .05.02.11.01.17l-.17 1.15h-.11l-.14.35c-.05-.11-.15-.23-.15-.34-.02-.43-.01-.86-.01-1.37-.08.16-.17.26-.18.37-.06.42-.05.85-.14 1.26-.1.48-.28.94-.43 1.41-.02.07-.06.14-.06.21-.02.19.04.36-.18.53-.13.1-.1.44-.11.68-.03.58-.17 1.12-.49 1.61-.05-.02-.08-.03-.08-.03.03-.52.06-1.04.11-1.553.01-.12.06-.23.09-.35.05-.21.09-.42.13-.63 0-.31-.03-.65.01-.97.04-.32.14-.63.21-.94.01-.05-.02-.11-.02-.17l.09-.77c.01-.03.05-.07.04-.1-.11-.57.22-1.08.29-1.63.03-.19-.06-.55.29-.64-.03-.09-.06-.19-.09-.29-.03-.08-.1-.16-.09-.24.03-.28.08-.56.12-.84.01-.05.01-.12.04-.16.16-.2.14-.392-.03-.6.34-.303.26-.75.4-1.12.07-.2.16-.393.25-.63-.16-.14-.09-.32-.01-.52a.96.96 0 0 0 .07-.36c0-.31 0-.62.27-.85.06-.05.07-.22.04-.31-.06-.2-.01-.36.11-.52.06-.09.06-.23.1-.35.01-.06.04-.11.06-.17.04-.08.1-.16.13-.24.11-.34.19-.68.32-1.01.06-.15.215-.25.32-.39l1.27-1.69c.02-.03.05-.06.08-.08.54-.35.91-.87 1.36-1.31.22-.22.43-.49.82-.57.39-.08.74-.39 1.11-.59.51-.27 1.01-.54 1.53-.77.5-.22 1.01-.4 1.53-.56.4-.13.84-.15 1.23-.29.75-.27 1.53-.18 2.28-.3.37-.05.77.04 1.15.12.47.1.93.25 1.38.39.15.04.28.15.42.21.24.1.48.2.72.28.19.06.46.37.46.57 0 .19.14.27.28.18.22-.13.35.03.39.13.15.32.46.44.69.67.383.39.83.73 1.24 1.1.11.11.19.26.27.4.3.55.653 1.1.88 1.68.18.46.2.97.28 1.46.03.2.02.41.05.62.04.29.08.58-.11.84-.02.04-.03.13 0 .16.23.3.094.62.08.93-.11 1.83-1.02 3.24-2.37 4.39-.29.25-.61.46-1 .6-.66.25-1.28.64-1.91.97-.05.02-.09.07-.14.08-.79.15-1.49.61-2.31.67-.2.02-.39.17-.6.21-.51.12-1.02.23-1.54.32-.47.09-.94.15-1.41.2-.48.06-.59.14-.6.47 0 .07.02.16.06.21.65.86.96 1.87 1.39 2.83.26.58.564 1.14.864 1.71.31.59.63 1.17.97 1.75.52.87 1.06 1.73 1.59 2.59.43.71.88 1.41 1.31 2.12.42.69.85 1.38 1.213 2.1.15.28.17.64.19.97.01.12-.153.26-.28.44.06.23-.043.42-.37.603a.99.99 0 0 0-.29.25c-.13.13-.81.24-.94.12-.07-.06-.09-.17-.15-.28-.11.02-.24.04-.37.06-.27.04-.48-.04-.67-.26-.31-.35-.69-.64-.96-1.016-.464-.65-.88-1.34-1.293-2.02-.34-.55-.66-1.1-.97-1.66-.51-.96-1.014-1.93-1.504-2.91-.54-1.09-1.08-2.18-1.6-3.27-.31-.67-.53-1.39-.88-2.04-.18-.35-.07-.74-.3-1.05-.07-.1-.17-.18-.25-.27-.08.1-.19.18-.24.29-.06.15-.08.31-.1.47-.15 1.05-.33 2.1-.45 3.16-.17 1.49-.32 2.98-.45 4.47-.07.74-.08 1.48-.12 2.22-.05.84-.093 1.69-.134 2.53-.01.23.03.46 0 .68-.03.272-.11.55-.17.82-.01.05-.05.11-.05.16.02.62-.34 1.04-.67 1.51-.26.36-.52.72-.93.852-.59.2-1.21.32-1.83.455-.14.03-.24-.05-.25-.22-.01-.06-.12-.12-.19-.16-.12-.06-.26-.07-.37-.13-.25-.12-.5-.24-.73-.39-.24-.16-.49-.32-.68-.53-.18-.21-.31-.46-.24-.78.02-.06-.1-.2-.18-.22-.2-.05-.28-.14-.27-.36.01-.3-.12-.39-.55-.44-.06-.31-.06-.31-.46-.81l.34.14c.02-.03.04-.06.05-.09l-.41-.28-.06.07.09.16c-.04-.01-.08-.01-.11-.02-.16-.07-.31-.06-.4.09-.04.08-.01.21-.01.35-.05-.01-.13-.03-.21-.03-.16.02-.34.01-.49.07-.13.06-.23.19-.39.05-.07.08-.17.15-.21.25-.07.18-.05.46-.36.21-.02-.02-.09-.02-.1 0-.17.19-.4.22-.64.22-.03 0-.07.01-.08.03-.23.57-.9.33-1.25.69-.06.06-.22.01-.324.05-.186.07-.37.16-.544.25-.11.06-.19.17-.3.21-.45.15-.91.27-1.31.15-.243.07-.42.15-.594.16-.63.02-1.26-.04-1.88.03-.75.07-1.42-.21-2.13-.35-.6-.12-1.018-.53-1.54-.77-.39-.18-.7-.54-.927-.95-.28-.51-.58-1-.82-1.53-.2-.45-.31-.94-.45-1.415-.13-.42-.28-.84-.38-1.266-.08-.33-.12-.68-.16-1.02-.108-.77-.237-1.54-.3-2.32-.07-.81-.15-1.62-.11-2.43.04-.69-.02-1.38.02-2.06.02-.27.03-.54.04-.81 0-.06-.01-.12-.038-.16-.1-.16-.06-.27.08-.39.18-.16.15-.25-.08-.37-.24-.12-.47-.26-.71-.4.08-.13.14-.24.22-.32.045-.05.14-.07.21-.06.09 0 .18.05.27.05.2.01.335-.04.18-.29.22-.1.39-.19.274-.49-.05-.13.07-.32.1-.49.047-.29.05-.58.12-.87.06-.24.18-.47.3-.76-.11-.15-.1-.397.07-.61.05-.06.18-.06.3-.07.26-.327.21-.71.157-1.11-.02-.17.05-.35.083-.53-.07-.038-.18-.12-.31-.15-.07-.02-.19.04-.24.1-.41.46-.78.96-1.22 1.4-.83.82-1.55 1.74-2.51 2.43-.28.2-.48.5-.75.72-.66.54-1.34 1.063-2.02 1.58-.46.35-.98.632-1.4 1.023-.61.57-1.35.97-1.96 1.53-.295.28-.56.58-.85.86-.16.15-.335.31-.53.4-.29.12-.33.34-.34.59-.04.83-.09 1.67-.12 2.5-.005.21.06.43.07.65.03.7.04 1.41.07 2.11.015.43.06.856.06 1.285 0 .59-.034 1.18-.04 1.77 0 .51.03 1.01.02 1.52 0 .37-.04.74-.063 1.11-.03.49-.05.98-.11 1.46-.06.51-.16 1.02-.25 1.53-.01.06-.1.11-.16.16-.095.09-.2.17-.285.26-.13.16-.245.33-.376.49-.094.12-.204.22-.31.33-.48-.25-1.49-.35-1.756-.15v-.42c-.23 0-.43-.04-.36-.34l-.34-.075c-.01-.2-.11-.384-.42-.346-.03.01-.09-.03-.09-.05.03-.35-.41-.55-.28-.94.06-.17.04-.37.01-.55-.01-.08-.12-.15-.2-.21-.18-.14-.44-.23-.2-.536.03-.05.02-.156-.01-.22-.12-.26-.25-.52-.38-.78l-.05-.1-.09-.03-.13.24c-.03-.02-.05-.04-.05-.04.18-.42.19-.866.18-1.32-.01-.12.07-.24.17-.35v1.29l.08.03c.06-.1.12-.2.17-.27l.3.08c.02-.1.06-.21.07-.31.05-.443.09-.89.14-1.33 0-.03.03-.06.02-.08-.16-.76.03-1.523-.04-2.29-.04-.49-.08-1.01.13-1.5.07-.15-.06-.374-.06-.57-.01-.28.02-.55.03-.83.01-.11.02-.22.02-.33-.01-.43-.036-.86-.017-1.29.01-.25.12-.5.14-.76.02-.18-.02-.36-.05-.54-.01-.07-.06-.14-.05-.21.07-.46.14-.92.24-1.38.03-.14.04-.23-.04-.38-.12-.21-.18-.48-.17-.72.02-.45-.22-.69-.6-.86l.08-.22h-.16c.01-.04.01-.07.03-.09.18-.24.36-.48.56-.705.26-.29.33-.64.39-1 .01-.08 0-.16.03-.23.25-.65.16-1.34.22-2.02.01-.1.04-.2.07-.3.02-.053.06-.103.06-.16.01-.37 0-.74.03-1.1.02-.26.1-.51.13-.77.03-.23.02-.46.04-.7.048-.55.1-1.1.14-1.65.05-.62.09-1.23.12-1.85 0-.09-.072-.18-.112-.27l-.21.28v-1.1l.23-.084c-.06-.073-.11-.15-.17-.223-.145-.17-.14-.35-.07-.55.06-.165.064-.35.1-.524.03-.14.08-.29.11-.43.04-.22.07-.44.1-.67l-.09-.03.47-.29-.03-.08-.47.05c.17-.2.34-.21.53-.22.14-.01.304-.03.414-.1.63-.44 1.25-.91 1.872-1.35.35-.25.74-.44 1.14-.61.32-.13.61-.32.94-.39.59-.12 1.08-.48 1.67-.59.36-.06.71-.14 1.07-.19.12-.01.27.04.37.11.16.12.28.11.44.01.16-.1.35-.23.49.05.02.04.11.06.17.07.42.09.85.17 1.28.27.09.02.16.13.26.22.41-.34.76.09 1.16.16.11.02.22.09.36.15-.1.29.09.31.3.39.33.13.68.29.96.51.53.44 1.03.93 1.54 1.41.1.1.17.24.26.36.2.26.44.5.59.78.14.26.19.58.3.86.15.36.31.71.47 1.07l.11.008c.07-.22.14-.44.2-.66.03-.12.06-.24.05-.36-.01-.09-.07-.2-.14-.24-.17-.1-.23-.3-.06-.37.42-.17.327-.56.41-.87.05-.183-.02-.4.03-.58.04-.12.2-.21.31-.31-.13.2-.04.35.11.487.04.04.12.05.18.07l.16-.44.17-.13c-.08-.03-.16-.08-.24-.08-.056 0-.11.06-.17.1l-.22.01zm26.47-4.528c.157.004.317.03.47.01.27-.036.535-.097.8-.15.23-.047.458-.1.686-.15l-.01-.11c-.076-.008-.154-.03-.228-.022-.448.046-.9.082-1.342.16-.137.024-.252.17-.378.26-.324.027-.652.038-.972.094-.112.02-.287.15-.287.23 0 .11.14.22.27.397.056-.27.025-.59.308-.26.02.02.117.02.15-.01.183-.15.356-.3.533-.46zm3.702 9.304c.19-.214.39-.372.69-.376.13-.002.27-.06.39-.125.15-.083.29-.212.44-.294.4-.22.59-.63.82-.97.11-.18.06-.51.24-.72.01-.02-.01-.08-.01-.11 0-.22-.01-.43 0-.65.01-.26.05-.51.05-.76-.02-.38-.08-.77-.42-.98-.35-.22-.72-.44-1.11-.54-.64-.16-1.3-.27-1.96-.3-.46-.03-.94.06-1.39.17-.7.18-1.38.44-2.06.66-.23.07-.47.13-.7.21-.22.07-.48.1-.66.23-.39.27-.74.6-1.11.9-.39.32-.63 1.15-.49 1.64.05.16.04.35.03.52-.02.2-.1.41-.09.61.03 1-.14 1.98-.31 2.97-.08.43-.08.44.31.32.01-.01.03.01.05.01-.08.22-.01.41.17.47.22.07.61-.19.67-.45l.82-.18.02.07c-.08.05-.17.09-.23.16-.07.07-.12.17-.17.26.16.05.43.17.47.12.19-.26.48-.22.73-.31.57-.23 1.14-.47 1.7-.71.04-.02.09-.04.11-.08.18-.22.4-.27.68-.3.24-.03.43-.38.67-.41.7-.09 1.22-.52 1.79-.84.21-.12.4-.29.6-.43l-.04-.09c-.25.08-.5.16-.77.25zm-35.86-2.69c-.09-.255-.13-.43-.21-.59-.11-.238-.2-.526-.38-.68-.35-.286-.79-.48-1.25-.46-.83.04-1.64.237-2.41.544-.34.134-.7.237-1 .42-.7.41-1.37.868-2.06 1.294-.56.347-.56.397-.45 1.02.09.524.35 1.016.21 1.595-.1.42-.03.878-.04 1.32-.01.364-.01.728-.01 1.092 0 .53.02 1.07 0 1.61-.02.42-.09.85-.13 1.28-.02.14.02.31.21.2.35-.22.68-.47 1.01-.73.32-.26.58-.62.97-.67.31-.32.59-.61.87-.89.41-.41.97-.66 1.24-1.21.05-.09.07-.2.1-.27.11-.07.23-.12.34-.2.42-.31.83-.64 1.26-.93.24-.16.29-.23.12-.46-.11-.15-.09-.26.03-.37.32-.31.62-.63.95-.91.35-.29.52-.69.57-1.1.04-.29.11-.54.23-.79.04-.09.07-.2.07-.3 0-.06-.07-.12-.1-.18-.05.04-.1.08-.13.13-.03.03-.03.08-.08.2zm-.72 2.725c-.39-.13-.57-.03-.65.36.22-.13.4-.23.64-.37zm21.12 21.5l.16.06.16-.36c-.07-.02-.19-.07-.19-.06-.06.11-.09.23-.14.35zm-3.2-27.63l.02.12c.18.03.35.05.43-.24l-.46.12zm-30.1 16.06c.14-.08.21-.12.28-.17.15-.1.13-.14-.08-.24l-.21.41zm-.03.51c.06-.08.14-.15.13-.17-.04-.07-.1-.11-.16-.16-.04.04-.11.09-.11.12.01.06.06.11.12.2zm34.16 10.79l-.11-.07-.18.3.09.06.19-.3zm-84.81 1.59c-.19-.2-.39-.38-.56-.58-.17-.2-.32-.42-.62-.46-.03-.01-.03-.14-.02-.22-.72-.69-1.39-1.44-1.99-2.24l.06-.07.19.1c.06-.32-.16-.66-.43-.7-.1-.02-.2-.06-.29-.09-.09-.02-.17-.05-.31-.09.01-.11.03-.25.03-.4 0-.08-.02-.18-.06-.25-.16-.25-.51-.37-.52-.74 0-.04-.1-.07-.15-.1.23-.38.03-.74-.41-.77-.08-.01-.17-.08-.22-.15-.18-.25-.35-.52-.52-.77-.06-.08-.15-.14-.22-.21-.03-.31-.21-.51-.48-.65-.14-.08-.26-.2-.36-.33.16.03.32.05.55.09l-.14-.48-.21.29c-.08-.15-.15-.27-.22-.39-.08-.15-.1-.38-.37-.25-.03.01-.12-.05-.15-.1-.1-.17-.19-.35-.28-.52l.21.06.05-.06-.19-.35-.06.02-.02.32c-.21-.38-.44-.58-.91-.31-.3.17-.68.2-1.02.33-.11.04-.23.17-.27.29-.06.17-.07.37-.07.56 0 .25.05.51-.12.74-.04.06-.03.17-.03.25-.02.95-.05 1.9-.05 2.85 0 .34.12.68.15 1.02.07.77.17 1.55.18 2.33.01.71.11 1.4.2 2.09.04.31.08.62.07.93 0 .23-.06.45-.36.53-.2.05-.37.23-.57.3-.3.1-.44.45-.8.47-.06.01-.12.19-.18.3-.14-.15-.26-.14-.43.01-.12.1-.35.08-.53.07-.18-.02-.35-.09-.51-.13-.21.34-.2.32-.55.1-.14-.09-.35-.06-.54-.09-.11.37-.45.27-.63.31l-.46-.39-.65-.54-.12.35c-.29-.12-.57-.25-.87-.36-.14-.05-.15-.11-.14-.25.03-.23.05-.47-.27-.56-.11-.03-.18-.15-.29-.24-.17.14-.26.28-.21.51.02.08-.06.18-.1.27-.04-.08-.11-.16-.12-.24-.02-.2-.02-.41-.01-.62.01-.09.06-.2.13-.25.04-.03.15.05.19.06.15-.02.28-.07.41-.05.18.01.24-.06.19-.21-.06-.18-.06-.32.06-.47.03-.05.02-.13.03-.19.02-.61.04-1.22.05-1.83 0-.19-.05-.37-.06-.56-.05-.72-.13-1.45-.1-2.17.02-.57-.1-1.13-.08-1.7.01-.26-.02-.52-.03-.78 0-.06.04-.12.05-.18.02-.12.08-.24.06-.35-.21-.82-.12-1.66-.19-2.48-.04-.36.08-.72.09-1.09 0-.4-.01-.8-.08-1.18-.07-.31-.13-.61-.06-.92.01-.05.02-.1.01-.14-.14-.44 0-.88 0-1.32-.01-.77-.06-1.54-.08-2.31-.01-.25.02-.51.03-.76 0-.11 0-.22-.01-.33-.01-.14-.04-.28-.04-.42-.02-.54-.04-1.07-.03-1.6 0-.36.06-.71.08-1.07.03-.81.03-1.62.06-2.42.04-.87.11-1.74.16-2.62.02-.35 0-.71 0-1.07-.01-.29.04-.62-.46-.62.16-.16.28-.28.41-.38.04-.04.15-.03.19 0 .14.1.28.14.36-.02.05-.1-.02-.25-.04-.37a.374.374 0 0 0-.06-.1c.21-.06.31.04.38.2.03.07.13.11.2.16l.12-.19c.01-.02 0-.04.01-.06.2-.23.22-.46.02-.72l.36.34.06-.03-.08-.33c.15.01.3.05.44.02.13-.02.26-.11.41-.18.16.18.37.23.61.06.03-.02.08-.03.11-.02.42.25.98.11 1.34.54.16.19.4.2.64.05.08-.05.25.04.37.13.11 0 .24.03.34-.01a.68.68 0 0 0 .29-.21c.03-.04-.04-.15-.05-.22 0-.14-.03-.29.02-.4.17-.36.4-.68.56-1.04.15-.32.46-.47.64-.72.28-.37.8-.45.98-.91.02-.04.1-.05.15-.07.19-.05.38-.09.56-.17.36-.15.69-.39 1.06-.48.37-.1.77-.06 1.17-.08.05 0 .11.04.16.04L14.07.6c.175-.01.36-.022.53.02.77.206 1.54.4 2.3.66.3.1.576.32.81.54.7.64 1.44 1.256 2.04 1.98.696.826 1.23 1.78 1.42 2.87.07.37.07.76.09 1.14.05 1.04-.227 2.027-.48 3.01-.144.57-.44 1.11-.66 1.66-.11.27-.236.54-.285.825-.08.464-.466.71-.693 1.066-.114.18-.213.36-.33.54-.2.28-.41.55-.61.83-.18.26-.35.53-.525.8-.17.25-.33.52-.53.75-.256.29-.556.54-.82.82-.49.52-.96 1.05-1.45 1.57a.633.633 0 0 1-.29.16c-.23.07-.33.23-.357.46-.022.2.09.3.236.44.625.58 1.25 1.18 1.64 1.97.11.22.32.4.475.6.2.27.4.53.58.8.31.48.61.97.92 1.46.09.13.2.25.29.38.46.59.92 1.19 1.39 1.78.35.45.68.9 1.04 1.33.3.35.69.64.95 1.02.2.28.48.44.71.66.54.53 1.02 1.12 1.53 1.69.22.24.42.49.65.72.1.1.27.12.38.21.22.19.42.41.63.61.29.28.6.55.88.83.4.39.78.8 1.16 1.19.32.32.64.64.95.97.27.28.55.54.77.85.24.32.42.68.64 1.05-.45.05-.15.32-.14.44-.14.18-.21.34-.34.44-.27.21-.57.4-.87.57-.05.03-.18-.06-.28-.09-.17-.05-.27-.01-.22.2h-.62c-.17.37-.87.38-1.21.19-.13-.07-.29-.08-.44-.13a8.58 8.58 0 0 1-.71-.26c-.19-.08-.35-.18-.6-.12-.17.04-.38-.1-.57-.18-.2-.07-.4-.17-.6-.22-.07-.02-.16.09-.29.17-.2-.24-.41-.49-.63-.75l.07-.07.43.28.06-.05c-.07-.26-.22-.49-.4-.7-.32-.39-.64-.78-.96-1.16-.08-.09-.19-.15-.27-.24-.12-.14-.22-.31-.35-.44-.08-.09-.2-.14-.29-.21-.07-.11-.12-.24-.21-.33-.63-.66-1.27-1.32-1.9-1.97-.07-.08-.13-.16-.2-.24.24-.03.18-.21.16-.34-.03-.15-.11-.29-.35-.26l.19.6zm-6.94-16.66c-.04-.1-.05-.14-.07-.17-.18-.27-.17-.26.12-.32.06-.02.11-.11.15-.17.25-.4.5-.81.76-1.21.28-.43.65-.82.85-1.29.28-.66.83-1.19.93-1.94.01-.07.07-.13.11-.19.14-.24.42-.43.18-.77-.02-.03.03-.11.06-.17.04-.06.13-.13.12-.17-.09-.45.29-.78.22-1.25-.06-.42.15-.88.22-1.32.02-.13.01-.26-.01-.39-.03-.16-.09-.32-.13-.48.07-.03.12-.06.18-.09l-.45-.8-.26.51c-.08-.42-.18-.73-.18-1.05-.01-.29.05-.55-.3-.7-.22-.09-.39-.28-.6-.4-.07-.04-.19-.01-.29.02-.09.02-.17.07-.25.11-.08.07-.17.15-.24.23-.07.07-.15.15-.19.24-.18.33-.35.67-.5 1-.16.32-.31.64-.44.97-.16.42-.28.85-.41 1.27l-.29.88c-.07.22-.15.44-.21.66-.04.13-.06.27-.1.41-.19.61-.39 1.22-.55 1.84-.14.53-.24 1.08-.33 1.62-.1.57-.17 1.15-.25 1.72-.03.19-.08.38-.1.57-.04.23-.04.46-.08.69-.06.31-.01.44.27.56-.12.15-.3.29-.36.47-.11.29.27.24.35.45l1.58-1.43-.05-.06.46.06zM8.57 2.84c-.06.017-.1.015-.11.032-.233.332-.47.664-.693 1.004-.03.04.01.12.02.18.07-.01.18-.01.21-.06.2-.33.39-.68.58-1.02.01-.02-.01-.07-.02-.13zm4.45 23.783l-.1.092c.09.14.17.285.27.41.04.05.14.045.22.065 0-.066.01-.152-.02-.195-.11-.13-.23-.25-.35-.37zm-1.47-2.193c-.04-.442-.14-.52-.43-.32l.42.32zM9.04 2.473c-.35.07-.377.126-.193.386l.193-.39zm38.95 14.77c-.195.79-.05 1.542-.305 2.28.263.292.073.692.09 1.063.022.55-.01 1.102-.047 1.65-.03.494-.12.984-.15 1.478-.036.702-.035 1.407-.06 2.11-.023.704-.07 1.408-.08 2.113-.017.78-.008 1.56-.01 2.34 0 .525.033 1.052-.01 1.572-.028.31-.17.62-.263.93-.037.12-.056.26-.116.37-.06.1-.14.23-.25.28-.36.15-.73.35-1.11.36-.29 0-.73.18-.92-.32-.06.09-.1.15-.15.23-.07-.17-.14-.32-.2-.47l-.08.02c-.04.11-.07.21-.1.32l-.09.02c-.08-.13-.17-.26-.22-.4-.11-.36-.14-.38-.45-.19-.04.02-.08.03-.16.06.02-.15.17-.35-.13-.33.01-.04.01-.06.02-.07l.22-.3-.4-.14c-.12-.04-.24-.08-.35-.13-.11-.06-.21-.15-.33-.23.06-.05.13-.07.15-.12.03-.09.04-.19.05-.29-.08 0-.17-.04-.23-.01-.19.11-.26.01-.29-.16-.01-.06 0-.13 0-.26-.41.31-.65.05-.89-.24.59-.21.64-.73.64-1.28l-.17.21c-.02-1.98-.02-3.94.18-5.88.19-1.94.09-3.9.47-5.81l.24.04c-.03-.1-.05-.21-.1-.3-.21-.35-.22-.73-.2-1.11.02-.28.01-.59.32-.78.01-.01-.04-.17-.08-.24-.04-.07-.15-.12-.15-.18-.01-.58.05-1.17-.03-1.75-.09-.6.11-1.15.15-1.72.03-.41-.07-.82-.06-1.23.02-.56.11-1.11.15-1.66.02-.33-.02-.67.03-1 .11-.63.07-1.29.34-1.9.17-.4.2-.85.37-1.24.13-.29.34-.58.59-.77.12-.09.43.02.64.1.18.07.28.06.41-.09.12-.14.28-.25.44-.35.16-.11.33-.13.47.06.03.04.09.1.13.1.52-.02.98.35 1.54.21.19-.05.44.09.66.15.16.05.31.12.46.19.07.04.14.09.19.16.29.44.59.88.86 1.33.25.42.47.87.71 1.3.5.89.66 1.9.96 2.85.36 1.14.63 2.33.83 3.51.13.75.35 1.47.49 2.21.07.35.19.69.31 1.02.1.27.24.28.46.1.25-.22.54-.39.78-.61.22-.2.47-.41.59-.68.41-.9.78-1.83 1.15-2.76.28-.68.53-1.38.81-2.06.05-.13.18-.23.28-.34.01-.02.05-.03.06-.05.1-.5.62-.77.69-1.29.03-.24.2-.45.27-.69.03-.13-.06-.29-.03-.42.04-.18.11-.46.23-.5.26-.07.3-.3.44-.46.12-.15.2-.33.28-.52.04-.11.03-.25.05-.37l-.09-.03c.16-.23.32-.46.5-.67.15-.18.32-.29.59-.14.17.09.42.04.63.06.25.01.35-.18.48-.35.06-.08.17-.15.27-.19.13-.05.26-.01.25.15-.02.22.1.23.26.2.09-.02.19-.03.28-.04.05 0 .15.02.15.03-.01.43.46.21.6.44.02.04.14.01.21.01.29 0 .58-.03.87 0 .15.02.29.15.41.25.15.13.24.31.39.43.34.3.6.64.73 1.09.21.69.46 1.38.61 2.08.11.5.07 1.03.1 1.55 0 .03-.01.07 0 .08.34.44.2.96.27 1.45.1.64.18 1.3.23 1.95.04.49.02.99.03 1.49.01.63.05 1.25.03 1.88-.02.67-.11 1.35-.14 2.02-.03.43.01.86-.02 1.29-.07.83-.18 1.66-.24 2.5-.07.88-.11 1.77-.15 2.66-.03.54-.06 1.09-.06 1.63 0 .32.08.65.05.98-.04.44-.14.88-.23 1.32-.07.37-.16.74-.24 1.11a.2.2 0 0 0 .02.13c.2.45.06.87-.12 1.28-.03.07-.09.12-.14.19l-.25-.06c-.03.15-.02.33-.1.42-.05.06-.23.01-.39.01 0 .01-.01.04-.03.07l-.13.25c-.08-.07-.16-.13-.23-.2-.05-.04-.09-.12-.13-.12-.05 0-.12.07-.13.12-.08.25-.19.25-.36.08-.03-.03-.1-.06-.12-.04-.26.16-.42-.03-.61-.14-.15-.09-.32-.13-.46-.21-.54-.31-.76-.88-1.09-1.36-.11-.17-.26-.32-.39-.47-.12-.13-.26-.25-.34-.4a4.87 4.87 0 0 1-.57-1.96c-.06-1.07-.05-2.14-.04-3.21 0-.51.09-1.03.12-1.54.02-.48-.01-.95.03-1.43.01-.2.15-.39.23-.6-.2-.06-.23-.2-.14-.45.09-.27.22-.59.15-.83-.16-.53.06-1 .06-1.5 0-.13.08-.26.12-.39.02-.05.05-.14.02-.17-.25-.27-.09-.58-.06-.86.04-.31.13-.61.22-.9.06-.2-.03-.28-.19-.34-.18-.07-.31 0-.35.16-.09.33-.18.65-.49.86-.03.02 0 .1-.02.15-.05.142-.1.29-.17.43-.05.112-.17.24-.16.34.06.33-.16.51-.33.73-.25.33-.57.63-.72 1-.14.38-.38.66-.62.95-.24.29-.55.53-.82.79-.09.08-.17.18-.26.25-.25.19-.49.41-.77.55-.62.302-1.3.43-1.99.48-.94.063-1.77-.18-2.44-.87-.4-.42-.82-.83-1.18-1.28-.28-.35-.48-.76-.72-1.14-.29-.45-.59-.9-.84-1.37-.28-.49-.51-1.01-.77-1.51-.04-.08-.1-.16-.2-.3zM43.75 7.94c.032-.028.077-.056.115-.09.302-.28.154-.69.28-1.03.062-.17-.09-.416.194-.51.02-.007.02-.084.03-.13.05-.345.11-.69.16-1.04a.246.246 0 0 0-.08-.2c-.26-.196-.57-.02-.64.35-.05.27-.14.54-.18.814-.02.147.01.304.02.514-.07.15-.18.37-.28.6-.01.03.03.08.05.122l.31.595zm-.67 4.47l.094-.005c.007-.095-.007-.197.025-.283.03-.086.1-.157.16-.227.04-.11.05-.272.13-.322.24-.146.14-.29.05-.49a3.47 3.47 0 0 1-.2.228c-.02-.4-.07-.76-.03-1.11.03-.37.05-.73-.03-1.1-.1.26-.13.51-.15.77-.04.37-.06.75-.1 1.12-.02.21-.05.41-.05.61 0 .28.04.55.07.82zm.056 9.835c.03-.048.055-.085.08-.123.23-.35.18-.467-.245-.597-.05-.014-.08-.08-.12-.13-.04-.08-.08-.164-.12-.247l-.37.195c.28.147.43.324.27.527-.24.314-.03.55.08.802.04.07.2.153.25.126.1-.047.17-.164.21-.27.01-.036-.1-.12-.16-.182-.06-.064-.12-.124-.18-.186l.07-.054.25.142zm-.073-4.74c.09.157.18.32.284.503.152-.17.153-.284.034-.434-.13-.173-.31-.354.01-.58.11-.076.08-.355.1-.544.01-.013-.14-.065-.21-.05-.05.01-.09.098-.13.152-.04-.124-.02-.23-.02-.336 0-.103-.02-.203-.04-.303l-.13.013c-.02.33-.03.66-.05.99 0 .093-.03.183-.04.274-.01.095-.04.2-.01.28.02.038.16.025.24.034zm.066-3.512l-.14-.01c-.02.177-.03.355-.05.532-.02.17-.05.338-.08.507-.03.2-.07.402-.08.604 0 .045.13.147.17.133.27-.1.43-.05.44.33.2-.21.22-.41.13-.58-.05-.11-.21-.16-.33-.23l-.09.06V14zm.19-5.164c.28-.42.32-.56.09-.88-.29.19-.34.54-.1.88zm-.28 8.93c-.32.18-.35.44-.13 1.03.21-.36.04-.72.12-1.04zm-.19 2.47c-.02 0-.05-.01-.07-.01-.03.22-.08.44-.07.67 0 .05.15.12.24.16.02.01.13-.1.12-.14-.07-.24-.15-.46-.23-.69zm-.19 4.32v-.81c-.21.22-.24.6 0 .8zm.72-10.45l.1-.01c0-.23.21-.46.01-.68h-.12v.67zm-.86 13.43c.36-.1.47-.31.36-.67l-.37.67zm.15 1.52h.17c0-.14.02-.28.01-.41 0-.02-.12-.03-.19-.05v.45zm.23-9.72c-.2.47-.21.54 0 .72v-.72zm-.31 4.1l.08-.01c.13-.29.12-.38-.12-.53l.03.53zm.71-8.35l.14.04.12-.33c0-.01-.11-.05-.17-.07l-.1.35zm16.75-8.84c-.15-.29-.27-.31-.49-.09l.49.09zM42.42 27.71l.036-.156c-.096-.016-.192-.037-.288-.04-.013-.002-.03.084-.045.13l.298.066z"/><path d="M39.48 18.137c0 .262-.008.49 0 .718.012.276.04.553.055.83.008.14.007.28 0 .42-.026.448-.038.898-.088 1.343-.058.52-.155 1.037-.226 1.557-.01.103.02.212.03.32.01.1.02.21-.01.3-.26.747-.31 1.547-.51 2.297-.17.65-.27 1.37-.74 1.927-.02.02-.05.06-.05.09.07.59-.36.91-.7 1.27-.49.52-.98 1.03-1.44 1.57-.48.57-1.09.99-1.75 1.31-.28.13-.61.18-.87.38-.06.05-.18.05-.27.04-.41-.06-.76.12-1.13.25-.26.09-.57.12-.85.1-.33-.03-.65-.18-.98-.22-.3-.04-.58-.07-.85-.24-.35-.24-.72-.44-1.08-.66-.52-.33-1.03-.66-1.55-.99a.572.572 0 0 1-.16-.15c-.25-.33-.49-.67-.73-1-.04-.06-.09-.13-.16-.15-.18-.07-.21-.21-.22-.38a.815.815 0 0 0-.12-.34c-.35-.57-.73-1.12-1.05-1.71-.26-.48-.44-1-.66-1.51-.02-.05-.03-.13-.07-.15-.21-.14-.26-.32-.2-.56.02-.08-.07-.24-.15-.28-.23-.12-.29-.23-.01-.42l-.24-.09c-.07-.19-.14-.34-.17-.5-.04-.22-.05-.44-.09-.66-.03-.21-.04-.44-.13-.62-.15-.32-.23-.62-.12-.95.01-.05.02-.1.01-.14-.32-.97-.11-1.96-.14-2.94-.02-.61 0-1.22.04-1.83.02-.39.1-.77.15-1.15.02-.17.04-.35.05-.52 0-.04-.01-.08 0-.11.23-.74.1-1.55.44-2.28.2-.44.29-.93.44-1.4.04-.14.04-.27.23-.38.16-.09.21-.4.27-.63.06-.28.07-.56.12-.84.04-.23.08-.48.38-.55.04-.01.04-.18.05-.27.01-.08 0-.21.02-.22.34-.06.38-.39.53-.61.21-.32.39-.65.58-.99.15-.27.31-.53.44-.81.15-.31.32-.59.65-.75.04-.02.09-.07.11-.12.07-.22.12-.45.19-.71L26.51 4c.04-.037.06-.08.098-.09.19-.06.35-.13.376-.368.002-.055.102-.097.15-.15.044-.05.113-.115.11-.17-.006-.23.076-.256.28-.186.073.028.19-.062.28-.1-.066-.064-.13-.182-.2-.19-.14-.01-.288.05-.43.07-.077.01-.175.03-.22-.01-.046-.032-.07-.154-.04-.203.03-.05.125-.09.2-.1.085-.016.18-.003.3-.064l-.35-.23c.215-.13.47.41.62-.07.69.06.78.03.77-.19.44.01.882.06 1.322.03.16-.01.384 0 .49-.2.01-.02.05-.03.07-.03.376 0 .75.01 1.12.02.055 0 .125.03.16.01.474-.3.975-.13 1.46-.08.33.04.655.16.975.26.16.05.3.16.44.24.08.04.15.11.22.12.5.07.86.39 1.27.63.11.07.27.04.43.06l-.01.18c.03.01.06.03.08.03.38-.11.65-.02.97.25.51.42.8.99 1.22 1.47.06.07.08.17.11.26.19.7.33 1.4.36 2.13.04.95.2 1.9.26 2.86.05.78.03 1.58.06 2.36.01.38.06.76.08 1.14.02.48.01.96.01 1.44 0 .13.01.26.01.39v1.99c0 .09.01.19.05.27.07.15.08.27-.05.31zm-6.333 5.62l.11.006c.01.136.058.286.017.404-.233.674-.49 1.34-.733 2.01-.02.058 0 .13 0 .193l.08.027c.06-.074.15-.14.18-.224.12-.288.23-.58.31-.878.08-.287.11-.55.49-.63.27-.057.38-1.04.15-1.295l-.11.48c-.05-.56-.28-1.134.09-1.537-.04-.35-.14-.628-.09-.878.06-.27.2-.508-.04-.752-.01-.02 0-.073.01-.11.09-.444.17-.887.25-1.332.03-.13.04-.27.04-.41.01-.34-.02-.69.01-1.03.03-.25.16-.5-.03-.75-.03-.03 0-.12 0-.14l.25.01-.08-.53c.41-.23.42-.28.16-.75-.07-.12-.12-.24-.18-.37l.06-.03c.09.15.18.3.27.44l.35-.27-.74-.8.21.01c0-.24.02-.46-.01-.68-.01-.1-.11-.19-.18-.28-.07-.24-.06-.51-.07-.77-.01-.42-.02-.84-.05-1.26-.01-.15-.02-.25.15-.26.32-.03.26-.3.26-.47 0-.13-.12-.27-.18-.4l-.09.04-.09.44-.04-.01-.05-.73c.09.02.16.04.22.05.39-.48.14-.99.16-1.51.2.08.3-.01.29-.24-.01-.47-.02-.94-.04-1.41 0-.06-.05-.11-.08-.16-.04.05-.12.1-.12.15 0 .22.01.45.03.67.01.2.02.39.04.59l-.1.02c-.04-.09-.1-.17-.12-.26-.04-.19-.05-.39-.09-.58-.02-.09-.08-.2-.16-.23-.24-.1-.22-.24-.09-.39.12-.14.11-.21-.07-.26.22-.15.22-.27.03-.45-.12-.12-.16-.31-.24-.48l.06-.02.14.09c.05-.17-.16-.35-.5-.43-.19-.04-.32.08-.35.35-.32-.09-.72.16-.79.48-.02.11-.14.2-.22.28-.07.07-.2.09-.25.17-.32.42-.67.82-.94 1.27-.45.76-.86 1.54-1.28 2.32-.19.36-.38.73-.54 1.12-.14.34-.22.7-.34 1.04-.17.49-.45.96-.52 1.46-.08.52-.39.95-.39 1.49 0 .2-.17.39-.19.59-.08.79-.15 1.57-.21 2.35-.01.16.05.32.04.48-.02.71-.05 1.41-.08 2.11-.02.39-.07.78-.05 1.17.02.4.09.8.15 1.21 0 .02.01.04.03.05.19.2.18.44.16.69 0 .17 0 .35.05.51.14.48.28.97.47 1.44.21.52.44 1.04.72 1.53.3.52.67 1 1.01 1.49.11.16.26.16.41.04.38-.3.76-.61 1.15-.9.07-.05.17-.04.26-.06.05-.02.14-.07.14-.08-.07-.31.12-.42.35-.53.04-.01.05-.09.07-.14.23-.56.46-1.12.68-1.69.05-.13.07-.28.11-.42.13-.44.27-.88.4-1.33zm1.103-9.76l.154.018c.038-.175.04-.368.12-.52.235-.444.13-.462-.24-.65.017.124.052.25.045.374-.02.26-.06.51-.08.77zm-11.61.916c.257-.525.295-1.11.11-1.334-.202.41-.24.83-.11 1.33zm12.23 1.038c-.438.45-.463.54-.244.79.076-.14.12-.32.234-.4.196-.14.126-.23.01-.37zm-.23 1.38c-.23.21-.246.44-.132.75.235-.25.163-.5.13-.75zm-.04 1.24l-.145.06c.033.11.05.22.108.31.015.03.143-.02.22-.03l-.183-.32zm-.365 2.38l.178.03.067-.46-.154-.02-.09.46zm-.157 1.83l-.12-.03-.17.34.05.07c.07-.02.184-.02.203-.06.04-.09.03-.2.04-.3zm-11.434-7.64l-.138.02.057.27.114-.02-.033-.27z"/></g></svg>
