<?xml version="1.0" encoding="utf-8"?>
<!-- Generator: Adobe Illustrator 22.0.1, SVG Export Plug-In . SVG Version: 6.00 Build 0)  -->
<svg version="1.1" id="Layer_1" xmlns="http://www.w3.org/2000/svg" xmlns:xlink="http://www.w3.org/1999/xlink" x="0px" y="0px"
	 viewBox="0 0 425.9 425.4" style="enable-background:new 0 0 425.9 425.4;" xml:space="preserve">
<style type="text/css">
	.st0{fill:#F2F2F2;}
	.st1{fill:#CCCCCC;}
	.st2{fill:#FFFFFF;}
	.st3{fill:#FDFEFE;}
	.st4{fill:#595A5A;}
</style>
<g>
	<path class="st0" d="M365.2,233c0.4-10.8,3.7-20.3,12.9-26.7c8-5.6,16.6-6.3,25.4-2c14.9,7.3,23.2,23.4,20.4,39.6
		c-0.7,4.1-1.5,8.2-3.2,12c-1.8,0.2-2.3,1.6-3.1,2.9c-1.9,2.7-3.7,5.6-5.9,8c-18.2,19.2-47.9,22.4-70.3,8.3
		c-9-5.7-15.7-13.8-24-20.1c-6.4-4.9-12.9-9.7-21.7-13.1c2.2,4.2,3.9,7.3,5.6,10.4c0.3,0.3,0.6,0.6,0.9,0.9l-0.1,0
		c7.4,20.1,6.5,41.1,6.9,62c0.1,5.2,1.3,10.2,3.3,15c5.8,13.4,21.1,18.6,33.8,11.6c1.8-1,4.2-1.7,3.9-4.6c3-2.6,2.8-5.4-0.4-7.7
		c-3.8-2.7-8.1-2.9-12.3-2c-2.9,0.6-5.5,0.6-8.1-0.3c0.1-13.7,10.6-24.9,24.6-26c14.6-1.2,25.4,6.9,28.3,20.9
		c1.9,9.2,0.5,18.2-2.2,27c-3.9,2.8-5.8,7.5-9.9,10.3c-11,7.6-23,10.3-36.2,8.9c-15-1.6-27.1-8.4-36.6-19.9
		c-10.1-12.3-12.6-27.1-14-42.3c-1.4-15.3-6.1-29.6-13.8-42.8c-2.4-4.1-4.6-8.5-9-11.2c1.7,4.6,2.7,9.3,4,13.8
		c4.2,16.6,0.5,32.3-6,47.5c-5.1,11.8-12.4,22.3-19.9,32.8c-3.2,4.5-6.4,8.9-8.3,14.2c-2.8,7.8-0.9,14.8,4.4,20.8
		c5.6,6.3,12.8,9.4,21.4,8.2c1.4-0.2,2.5-0.7,3.1-2.1c3.6-3,1.7-6-0.3-8.6c-3-3.9-7.2-6.2-11.9-7.4c-1.6-2.9-1-5.2,1.6-7.4
		c8.3-7,17.5-8.5,27.5-4.8c9.8,3.6,16.1,10.4,17.6,21c0.9,6-1.3,11.5-2.8,17.1c-1.1,0.2-1.6,1-2.1,1.9
		c-11.8,21.3-35.3,22.4-53.1,12.6c-9.2-5.1-16.5-12-21.9-20.8c-0.5,0.2-0.7,0.2-0.8,0.3c-0.4,0.5-0.8,1.1-1.1,1.6
		c-7.8,11.8-18.3,19.8-32,23.8c-15,4.3-28.9-0.3-38.6-12.3c-4.2-5.2-5.8-11.4-9-17c0.5-20.2,16.5-33.5,34.8-29.1
		c4.1,1,7.6,3.2,10.9,5.7c3.5,2.7,4,5.4,0.3,8.3c-8,2.7-12,7.1-12,13.1c0.3,3.7,3.2,4.5,6,4.7c11,1.1,25.6-9.5,24.3-19.7
		c2.5-0.9,1.7-3.1,1.5-4.7c-0.6-4.2-1.5-8.4-3.3-12.4c-4.7-10-11.9-18.4-17.7-27.6c-6.8-10.7-12.7-21.8-15.4-34.3
		c-0.7-3.3,1-7-1.6-10c0.1-6.6,2-13,3.3-19.5c-1.6-0.6-2,0.5-2.5,1.2c-10.2,14.2-16.1,30.1-17.5,47.6c-0.8,9.8-2.7,19.4-6.3,28.6
		c-1.8,0.3-2,2-2.8,3.2c-4.7,7.3-10.4,13.7-17.8,18.4c-12.5,7.8-26.1,10-40.5,7.5c-16-2.8-27.8-13.4-31.2-28.3
		c-0.5-2.2,0.6-4.7-1.2-6.7c0.7-9.6,2-19,9.8-25.8c14.5-12.7,39.4-4.6,43.9,14.2c0.5,2.2,1.1,4.6-1,6.5c-3.3,0-6.6,0.2-9.9-0.6
		c-3.9-1-7.3,0.6-9.9,3.4c-1.2,1.3-3.7,3.1-0.7,5.3c-0.2,3.1,2.3,4.2,4.4,5.5c14.8,8.9,33.2,0.3,36.3-16.9
		c1.5-8.1,0.7-16.2,0.9-24.4c0.4-16.2,2.1-32.1,8.1-47.3c0.2-0.5,0-1.3,0-1.9c0,0-0.1,0.1-0.1,0.1c0.8,0.1,0.8-0.5,0.9-1
		c2-2.2,3.8-4.6,4.8-7.8c-9.4,3.4-20.5,11.3-30.8,21.4c-8.9,8.8-19.1,15.2-31.2,18.7c-22.9,6.6-50.6-5-61.7-26.1
		c-2.6-4.9-3.4-10.3-5.9-15.2c0-14.2,6.2-25.3,17.3-33.8c8.8-6.6,19.7-7.2,28.5-1.6c9.8,6.1,15.2,17.5,13.2,28.1
		c-0.6,3.4-1.6,6.8-2.5,10.2c-3.7,2.8-6.4,1.7-9.1-1.7c-2.1-2.5-4.3-5.1-7.4-6.6c-6.4-3-10.4-0.4-10,6.6c2.1,14.7,18.1,23.8,32,18.1
		c3.7-1.5,7.2-3.5,10.2-6.2c9.4-8.6,17.5-18.5,25.8-28.2c1.7,0,2.5-1.4,3.6-2.4c2.2-1.9,2.1-2.8-1-3.7c-18.6-5.5-31.1-17.6-37.5-36
		c-1.7-4.9-1.7-10-3.3-14.9c0.7-23,14.8-38.2,36.4-39.1c17.7-0.8,30.3,13.7,27.2,31.2c-0.5,2.9-1.3,5.8-2,8.7c-3.6,2.8-6,6.9-10,9.4
		c-4.5,2.8-6.3,2.1-7.6-3.1c-0.6-2.4-1.1-4.8-1.9-7.1c-1.5-4.1-4-7.7-8.9-6.9c-4.7,0.8-5,5-5.1,8.9c-2.8,19.5,11.3,32.7,30.3,28
		c14.6-3.6,27.6-10.5,38-21.7c4-4.3,6.4-9.3,5.8-15.4c2.8-1.1,1.5-3.2,1.3-5.1c-1.2-10.8-7.4-19.5-12-28.8
		c-4.5-9.1-8.2-18.5-10.1-28.5c-0.9-4.9,1-10-1.2-14.7c1.9-29.9,11.7-56,37.6-73.5c28-18.9,64.9-12.4,86.3,15.7
		c23.4,30.7,25.2,64.4,11.6,99.6c-1.7,4.5-3.5,9.1-6.1,13.1c-10.7,16.2-1.7,42.4,17.2,51.9c9.7,4.9,20,7,31,5.3
		c10.6-1.6,17.8-8.8,18.9-18.9c2.8-2.9,1.1-6,0.7-9.2c-0.6-3.9-2.4-7.5-6.5-7.6c-4.3-0.1-6.8,3.5-8.4,7.4c-0.4,1-0.2,2.3-0.2,3.4
		c-0.8,2.6-1.7,5.2-2.5,7.7c-1.7,0.8-3.4,1.1-5.2,0c-7.1-4.4-12.4-10-13.5-18.6c-0.1-1.1,0.1-2.4-1-3.2c0.8-8.6,2.6-16.8,9.6-22.8
		c5.5-4.7,12-6.5,19.1-5.6c26.4,3.2,39.6,22.4,33.9,49.2c-0.8,3.7-2,7.4-3,11.1c-1.8,0.4-2,2-2.7,3.3c-6.6,12.3-16.6,20.7-29.8,25.3
		c-7,2.4-7,2.4-1.4,7.6c6.7,6.7,12.9,13.8,19.1,20.9c6.1,7,13.1,12.7,22.5,14.6c11.4,2.4,24.8-6.9,25.8-17.6c3.1-2.3,2-5.1,0.4-7.4
		c-1.8-2.6-4.5-3-7.6-2c-4,1.4-6.5,4.5-9.3,7.3c-4.8,4.8-6.1,4.5-9.2-1.7C367.3,237.8,367.2,235,365.2,233z M185.1,14.6
		c47.2-9.2,73.7,15.9,91.8,55.3C273.4,48,264.4,28.9,245,16.9c-19.1-11.8-39.4-12.2-60.3-1.5c0.1-0.2,0.2-0.3,0.2-0.4
		c-0.3,0-0.6,0-0.9,0.1c-0.5,0.1-0.5,0.4-0.1,0.6C184.2,15.8,184.5,15.5,185.1,14.6z M232.1,275c2.2-15.1-1.3-29.3-8.4-42.5
		c-2.5-4.7-10.4-5.8-16.4-3.7c-5.3,1.9-7.1,6.1-7.2,11.3c-0.9,1.9-2.3,3.6-2.8,5.6c-2.4,10.5-4.1,21.1-3.7,32
		c0.7,20.9,8.4,39.2,19.5,56.9C225.1,316.1,232.9,296.9,232.1,275z M277,92.8c1.8-17.4-16.6-32.1-30.7-32
		c-18.6,0.2-32.1,14.7-32.1,31.3c0,18.2,14.3,31.4,31.5,31.9C261.5,124.6,278.4,109.3,277,92.8z M209,92.7
		c1.6-17-15.6-31.8-30.8-31.8c-18.5,0-32,15.1-32.1,31.8c-0.1,16.9,14.6,31.1,31.7,31.3C194.2,124.3,210.2,109.2,209,92.7z
		 M161,47.7c0.1,4.4,3.6,8.2,7.7,8.1c4.2-0.1,7.9-4,8-8.6c0.1-4.3-3.4-7.3-8.3-7.3C163.4,40,160.9,42.6,161,47.7z M103,153
		c4.6,0,8-3.5,7.9-7.8c-0.2-4.2-3.5-7.3-7.8-7.3c-5.5,0-8.1,2.5-8,7.8C95.1,150.7,97.6,153.1,103,153z M248,281
		c4.4,0,7.9-3.3,7.7-7.3c-0.2-3.9-3.4-6.8-7.6-6.8c-4.4,0-7.9,3.2-7.7,7.3C240.5,278.1,243.8,281,248,281z M262.9,200
		c3.8,0,7.1-3.3,7.2-7.2c0.1-3.9-3.1-7.5-6.8-7.7c-3.5-0.2-7.2,3.4-7.3,7.2C255.8,197.1,258.4,200,262.9,200z M173,296.9
		c0,3.4,3.5,7,7,7c3.4,0,7.1-3.8,7-7.1c-0.1-3.2-3.6-6.7-6.8-6.8C176.7,290,173,293.5,173,296.9z M44,220.3
		c-0.1-4.1-2.4-6.4-6.6-6.4c-3.6,0-7.4,3.5-7.3,6.7c0.1,3.3,3.9,6.5,7.6,6.4C41.8,226.9,44.1,224.5,44,220.3z M363.3,325
		c2.2-0.1,4.6-1.9,4.7-6c0.1-4.2-2.7-7.2-6.6-7c-4.1,0.3-6.3,2.6-6.4,6.7C354.9,322.7,357.5,325.1,363.3,325z M71,323.6
		c-0.1-4.8-2.8-7.6-6.5-7.6c-3.1,0-6.6,3.7-6.5,6.9c0.2,3.7,3,6.3,7,6.1C69,328.9,70.9,326.5,71,323.6z M401,217.7
		c0.2-4.3-2.4-6.4-6.1-6.5c-3.7-0.1-5.9,2.4-5.9,6.1c0,3.8,2.3,5.6,6,5.8C399,223.2,401.2,221.6,401,217.7z M280.1,391.5
		c-0.4-3-2.1-5.5-5.9-5.4c-3.6,0.1-6,2.2-6,5.9c0,3.6,2.3,6,5.9,5.9C277.5,397.7,280,395.9,280.1,391.5z M227.1,132.3
		c-1,1.9-1.7,2.6-1.9,3.5c-1.9,8.5-8,10.6-13.6,10.7c-6.9,0.1-12.9-4.9-13.7-11.3c-0.1-1-0.3-2.2-1.6-2c-1.7,0.3-1,1.6-0.8,2.8
		c0.9,4.4,3.7,7.5,7.1,9.9c5.6,4.1,11.6,4.1,17.7,0.5C225.2,143.4,228,138.6,227.1,132.3z M143,270.9c-0.5-2.3-2-4.9-5.6-4.8
		c-3.4,0.1-5.6,2.2-5.4,5.8c0.2,3.5,2,5.4,5.8,5.2C141.4,276.9,143,275.3,143,270.9z M84.6,144.1c-3,0.5-5.2,2.2-5.3,5.1
		c-0.1,3.2,2.1,5.4,5.2,5.5c2.9,0.1,5.1-2.1,5.2-5C89.9,146.5,87.6,144.8,84.6,144.1z M342.9,257.6c-0.5-3-2.2-5.2-5.1-5.3
		c-3.2-0.1-5.4,2.1-5.5,5.2c-0.1,2.9,2.1,5.1,5,5.2C340.5,262.9,342.3,260.6,342.9,257.6z M328.9,145.5c-0.5-3-2.2-5.2-5.2-5.3
		c-3.2-0.1-5.4,2.1-5.5,5.2c-0.1,2.9,2.1,5.1,5,5.2C326.5,150.9,328.2,148.6,328.9,145.5z M152.1,384.9c0-4-1.4-5.8-4.7-6
		c-3.4-0.2-5,1.8-5.2,4.7c-0.2,3,1.9,5.1,4.8,5.2C149.8,388.9,152.1,387.5,152.1,384.9z M326.6,241.1c-2.5,0.6-4.6,1.5-4.6,4.8
		c0,3.2,1.4,5.1,4.7,5.1c3.1,0,4.7-2.2,4.9-4.6C331.8,243.3,329.4,241.7,326.6,241.1z M242,296c-0.3,3.1,1.8,4.7,4.4,4.7
		c2.6,0,4.6-2.1,4.5-4.9c-0.1-2.5-1.9-4.5-4.4-4.5C243.9,291.2,241.8,292.7,242,296z M367.1,331.9c-2.3,0.3-4.1,1.6-4.1,4.4
		c0,3,1.5,4.7,4.5,4.7c2.7,0,4.3-1.5,4.4-4.3C372.1,333.7,370.4,332.2,367.1,331.9z M260,177.8c0-3.3-2.2-4.5-4.5-4.5
		c-2.4,0-4.5,1.3-4.5,4.3c0.1,3,1.8,4.6,4.8,4.5C258.6,181.9,259.9,180.2,260,177.8z M56.9,334c-2.6,0.5-4,2.1-3.9,4.8
		c0.1,2.8,2.2,3.9,4.3,3.9c2.5,0,4.4-2,4.4-4.5C61.7,335.6,59.6,334.3,56.9,334z M160,396c0-3.2-1.8-4.6-4.1-4.6
		c-2.6,0-4.5,1.9-4.5,4.4c-0.1,2.5,1.4,4.4,4.4,4.2C158.6,399.8,159.9,398.2,160,396z M190.6,316c2.4-0.1,4.2-1.3,4.3-3.8
		c0.1-2.8-1.7-4.1-4.4-4.2c-2.7-0.1-4.1,1.8-4,4.1C186.5,314.3,187.8,316.1,190.6,316z M183,27.8c-0.1-2.1-1.9-3.5-4.1-3.4
		c-2.3,0.1-4,1.5-3.9,4.2c0.2,2.8,1.6,4.5,4.4,4.3C181.8,32.7,183,30.9,183,27.8z M75.8,159c-2.4,0.5-3.7,1.9-3.8,4.5
		c-0.1,2.7,1.7,4.1,4,4.1c2.6,0,4.3-1.6,4-4.5C79.7,160.5,78.3,159.2,75.8,159z M338.2,143c-2.4,0.3-4.1,1.5-4,4.1
		c0.1,2.5,1.7,3.8,4.2,3.9c2.4,0.1,3.7-1.1,3.7-3.6C341.9,144.9,340.6,143.5,338.2,143z M21.3,219.1c-1.9,0.8-4,1.9-3.8,4.4
		c0.2,2.2,1.8,3.8,4.5,3.5c2.7-0.3,3.8-2.1,3.6-4.4C25.4,220.5,23.6,219.4,21.3,219.1z M159,377c2.2-0.3,3.8-1.5,3.9-3.8
		c0.1-2.5-1.4-4.1-3.9-4.1c-2.5,0-4,1.6-3.9,4.2C155.2,375.5,156.8,376.7,159,377z M406.9,222c-2.2,0.4-3.8,1.6-3.8,3.9
		c0,2.5,1.5,4.1,4,4c2.3,0,3.7-1.5,3.8-3.8C410.9,223.6,409.3,222.3,406.9,222z M260.2,394.1c-1.6,0.7-3.1,1.7-3.1,3.8
		c0,2.3,1.4,3.2,3.5,3.1c2.2,0,3.5-1.1,3.3-3.3C263.7,395.7,262.4,394.5,260.2,394.1z M53,231c-0.1-1.7-1.3-2.6-2.9-2.7
		c-1.8,0-3.2,0.9-3.1,3c0.2,1.8,1.2,3.3,3,3.2C51.9,234.5,52.8,232.9,53,231z"/>
	<path class="st1" d="M132.1,387c3.2,5.5,4.8,11.8,9,17c9.6,12,23.5,16.6,38.6,12.3c13.7-3.9,24.2-12,32-23.8
		c0.4-0.5,0.7-1.1,1.1-1.6c0.1-0.1,0.3-0.1,0.8-0.3c5.4,8.8,12.7,15.8,21.9,20.8c17.8,9.8,41.3,8.7,53.1-12.6c0.5-0.9,1-1.7,2.1-1.9
		c-4.9,17.5-20.9,30.5-41.3,26.6c-15-2.8-26.5-11-35.2-23.4c-0.6-0.9-1.2-1.9-2.2-3.3c-4.6,7-9.6,13.1-16.2,17.7
		c-10.6,7.5-22.1,11.2-35.2,9.4c-14.6-2-30.2-20.5-29.4-35.3C131.3,388.1,131.8,387.6,132.1,387z"/>
	<path class="st1" d="M264.3,265.6c-1.3-4.6-2.3-9.2-4-13.8c4.3,2.7,6.6,7.1,9,11.2c7.6,13.2,12.3,27.5,13.8,42.8
		c1.4,15.2,4,30,14,42.3c9.5,11.6,21.5,18.3,36.6,19.9c13.3,1.4,25.2-1.3,36.2-8.9c4.1-2.8,5.9-7.5,9.9-10.3
		c-2.8,12.1-11.3,19-22.2,23c-30.1,10.9-64.9-4.3-73.5-42c-2.7-11.8-2.4-24.1-5.9-35.9c-2.5-8.5-6-16.6-10.3-24.3
		C266.9,268.2,266.2,266.4,264.3,265.6z"/>
	<path class="st1" d="M1.1,241c2.5,4.9,3.3,10.3,5.9,15.2c11.1,21,38.8,32.7,61.7,26.1c12.1-3.5,22.3-10,31.2-18.7
		c10.3-10.1,21.5-18,30.8-21.4c-1,3.3-2.8,5.6-4.8,7.8c-0.3,0.3-0.6,0.7-0.9,1c0,0,0.1-0.1,0.1-0.1c-11.1,5-20,13.1-28.7,21.3
		c-12.6,11.8-27.1,18.9-44.8,18.7c-24.9-0.3-47.7-20.1-51.1-44.7C0.2,244.5-0.4,242.6,1.1,241z"/>
	<path class="st1" d="M301.1,252.2c-1.7-3.1-3.3-6.3-5.6-10.4c8.9,3.4,15.3,8.3,21.7,13.1c8.3,6.3,15.1,14.5,24,20.1
		c22.4,14.2,52.1,11,70.3-8.3c2.3-2.4,4.1-5.2,5.9-8c0.9-1.2,1.4-2.7,3.1-2.9c-3.6,12.2-11.8,20.7-22.4,26.8
		c-23,13.3-49.2,9.6-69.6-9.6c-6.9-6.5-13.9-12.9-21.9-18c-1.5-1-2.8-2.4-4.9-2.1c0,0,0.1,0,0.1,0
		C301.7,252.8,301.4,252.5,301.1,252.2z"/>
	<path class="st1" d="M43.1,333c1.8,1.9,0.7,4.5,1.2,6.7c3.5,14.9,15.2,25.5,31.2,28.3c14.5,2.5,28,0.3,40.5-7.5
		c7.5-4.7,13.1-11.1,17.8-18.4c0.8-1.2,1-2.9,2.8-3.2c-4.4,17.5-23.2,33.3-42.4,36.1c-14.5,2.1-27.7-0.3-39.6-9.2
		C45.6,359,40.1,344.9,43.1,333z"/>
	<path class="st1" d="M159.7,281c2.6,3,0.9,6.7,1.6,10c2.7,12.6,8.7,23.6,15.4,34.3c5.8,9.3,13.1,17.6,17.7,27.6
		c1.9,4,2.7,8.2,3.3,12.4c0.2,1.6,1,3.8-1.5,4.7c-1.9-8.7-6-16.4-11.1-23.7c-10.1-14.4-20.5-28.7-24.6-46.3
		C159.1,293.8,158.1,287.4,159.7,281z"/>
	<path class="st1" d="M61.1,169c1.6,4.8,1.6,10,3.3,14.9c6.4,18.4,18.8,30.5,37.5,36c3.1,0.9,3.2,1.8,1,3.7c-1.1,1-1.9,2.4-3.6,2.4
		C87,223,77.8,215.9,70.6,205.8c-6.5-9.1-10-19.4-10.4-30.6C60.1,173.2,59.6,170.9,61.1,169z"/>
	<path class="st1" d="M141.1,85c2.2,4.7,0.3,9.8,1.2,14.7c1.9,10.1,5.6,19.4,10.1,28.5c4.6,9.3,10.8,18,12,28.8
		c0.2,1.9,1.5,4-1.3,5.1c-3.4-12.4-10.6-23.1-16-34.6c-6.1-13-7.6-26.6-6.9-40.7C140.3,86.2,140.8,85.6,141.1,85z"/>
	<path class="st1" d="M89.1,171.1c0.1-3.9,0.4-8.1,5.1-8.9c4.9-0.8,7.4,2.8,8.9,6.9c0.8,2.3,1.3,4.8,1.9,7.1
		c1.4,5.2,3.1,5.8,7.6,3.1c4-2.4,6.4-6.6,10-9.4c-1.1,7.9-6.1,12.9-12.5,16.9c-2.9,1.9-5.1,1-6.1-2.3c-0.9-3-1.4-6.2-2.4-9.1
		C99.3,168.8,94.4,167.1,89.1,171.1z"/>
	<path class="st1" d="M365.2,233c2,2,2.1,4.8,3.3,7.1c3.2,6.2,4.4,6.5,9.2,1.7c2.8-2.8,5.3-5.9,9.3-7.3c3-1,5.8-0.6,7.6,2
		c1.6,2.3,2.7,5.1-0.4,7.4c-4.7-4.1-8.4-4.1-13.1,0.1c-2.2,2-4.2,4.3-6.3,6.4c-1.6,1.6-3.3,2.2-5.3,0.5
		C366.2,248.3,363.6,237.6,365.2,233z"/>
	<path class="st1" d="M326.8,226c-5.6-5.2-5.6-5.1,1.4-7.6c13.2-4.6,23.2-12.9,29.8-25.3c0.7-1.3,1-2.9,2.7-3.3
		c-4.4,15.4-14.2,26.1-28.3,33.2C330.5,224,328.2,224.3,326.8,226z"/>
	<path class="st1" d="M31.2,242.3c-0.4-7,3.6-9.7,10-6.6c3.1,1.5,5.3,4.1,7.4,6.6c2.7,3.3,5.5,4.5,9.1,1.7c0.2,1.6-0.7,2.9-1.3,4.2
		c-2.4,5-4.6,5.3-8.5,1.4c-1.5-1.5-3-3.1-4.5-4.6C39.9,241.5,35.9,240.1,31.2,242.3z"/>
	<path class="st1" d="M301,158c1.1,0.8,0.8,2.1,1,3.2c1.1,8.7,6.4,14.3,13.5,18.6c1.8,1.1,3.4,0.8,5.2,0c-0.2,1.5-0.4,2.9-0.8,4.4
		c-0.8,3.2-2.7,3.8-5.6,2.6C304.3,182.7,297.8,168.4,301,158z"/>
	<path class="st1" d="M329.1,327c2.7,0.9,5.3,0.9,8.1,0.3c4.2-0.9,8.5-0.7,12.3,2c3.2,2.3,3.4,5.1,0.4,7.7
		c-4.6-3.6-9.9-3.6-15.2-2.7c-2.2,0.4-4.6,1.1-6-0.9C327.2,331.5,327.4,329.1,329.1,327z"/>
	<path class="st1" d="M75.3,336c-3-2.1-0.5-4,0.7-5.3c2.6-2.8,6-4.4,9.9-3.4c3.3,0.9,6.6,0.7,9.9,0.6c0.4,6.8-0.8,8.1-7.5,6.7
		C83.7,333.7,79.5,334.2,75.3,336z"/>
	<path class="st1" d="M246.9,371c4.7,1.2,8.9,3.5,11.9,7.4c2,2.6,4,5.6,0.3,8.6c-2.9-4.2-7.2-6.4-11.5-8.8
		C243.3,375.8,243.3,374.5,246.9,371z"/>
	<path class="st1" d="M323.1,172.1c0.1-1.1-0.2-2.4,0.2-3.4c1.6-3.8,4.1-7.4,8.4-7.4c4.1,0.1,5.8,3.6,6.5,7.6
		c0.5,3.1,2.1,6.3-0.7,9.2c-0.2-0.5-0.3-0.9-0.4-1.4C334.9,167.1,330.5,165.6,323.1,172.1z"/>
	<path class="st1" d="M166.1,385.1c0-6,4-10.4,12-13.1c2.4,2.4,1.7,4.3-0.9,5.9C173.4,380.3,169.3,382,166.1,385.1z"/>
	<path class="st2" d="M185.1,14.6c20.5-9.9,40.8-9.5,59.9,2.3c19.4,12,28.3,31.1,31.9,52.9C258.9,30.4,232.4,5.3,185.1,14.6z"/>
	<path class="st1" d="M277,92.8c1.4,16.5-15.5,31.8-31.3,31.3c-17.2-0.5-31.5-13.7-31.5-31.9c0-16.6,13.5-31.1,32.1-31.3
		C260.4,60.6,278.8,75.4,277,92.8z M240.3,119.6c1.5,0.1,3,0.3,4.5,0.4c12.4,0.6,21.9-4.7,26.3-14.9c5.3-11.9,3.1-24.3-5.4-33.2
		c-7.5-7.9-16.9-7.4-26.4-6.5c-10.7,1-22.3,13.1-22.3,27.3C217.1,105.9,227.5,118.1,240.3,119.6z"/>
	<path class="st1" d="M209,92.7c1.1,16.5-14.8,31.6-31.3,31.4c-17-0.3-31.8-14.5-31.7-31.3c0.1-16.8,13.6-31.8,32.1-31.8
		C193.5,60.9,210.6,75.7,209,92.7z M172,119.2c11.6,2.7,21.5,0.1,28.6-9.8c7.1-9.9,7.1-23.3,0.5-33.2c-7.3-11-17.9-12.6-29.8-10.7
		c-0.3-0.1-0.7-0.2-1-0.2c-10.4,2.6-17,9.3-20.1,19.4c-3.2,10.5-0.5,19.9,6.9,27.5C160.9,116,165.3,120.5,172,119.2z"/>
	<path class="st1" d="M232.1,275c-1.9-7-1.5-14.4-4-21.3c-0.9-2.7-1.8-5.3-2.4-8.1c-2.6-12.7-19.9-14.2-25.7-5.5
		c0.2-5.2,1.9-9.4,7.2-11.3c6-2.1,13.9-1,16.4,3.7C230.8,245.7,234.3,259.8,232.1,275z"/>
	<path class="st1" d="M161,47.7c-0.1-5.1,2.4-7.7,7.5-7.8c4.9,0,8.3,3,8.3,7.3c-0.1,4.6-3.8,8.5-8,8.6C164.6,55.9,161,52.2,161,47.7
		z"/>
	<path class="st1" d="M103,153c-5.4,0-7.9-2.3-8-7.3c-0.1-5.3,2.5-7.8,8-7.8c4.4,0,7.7,3.1,7.8,7.3C111,149.6,107.5,153,103,153z"/>
	<path class="st1" d="M248,281c-4.2,0-7.5-3-7.6-6.8c-0.2-4,3.3-7.3,7.7-7.3c4.2,0,7.5,2.9,7.6,6.8C255.8,277.8,252.4,281.1,248,281
		z"/>
	<path class="st1" d="M262.9,200c-4.5,0-7-2.9-6.9-7.8c0.1-3.8,3.8-7.4,7.3-7.2c3.6,0.2,6.9,3.9,6.8,7.7
		C269.9,196.7,266.7,200,262.9,200z"/>
	<path class="st1" d="M173,296.9c0-3.4,3.7-7,7.1-6.9c3.2,0.1,6.7,3.5,6.8,6.8c0.1,3.4-3.6,7.1-7,7.1
		C176.5,303.9,173,300.4,173,296.9z"/>
	<path class="st1" d="M44,220.3c0.1,4.2-2.2,6.6-6.2,6.7c-3.7,0.1-7.5-3.1-7.6-6.4c-0.1-3.2,3.7-6.7,7.3-6.7
		C41.6,214,44,216.3,44,220.3z"/>
	<path class="st1" d="M363.3,325c-5.8,0.1-8.3-2.3-8.2-6.2c0.1-4.1,2.3-6.5,6.4-6.7c3.9-0.2,6.7,2.8,6.6,7
		C367.8,323.1,365.5,324.9,363.3,325z"/>
	<path class="st1" d="M71,323.6c-0.2,3-2,5.3-6,5.4c-4,0.1-6.8-2.4-7-6.1c-0.2-3.1,3.3-6.8,6.5-6.9C68.2,316,70.9,318.7,71,323.6z"
		/>
	<path class="st1" d="M401,217.7c0.1,3.9-2,5.6-5.9,5.4c-3.8-0.2-6.1-2-6-5.8c0-3.6,2.2-6.2,5.9-6.1
		C398.7,211.3,401.2,213.3,401,217.7z"/>
	<path class="st1" d="M280.1,391.5c-0.1,4.4-2.6,6.3-6,6.4c-3.6,0.1-5.9-2.3-5.9-5.9c0-3.6,2.4-5.8,6-5.9
		C278,386,279.6,388.5,280.1,391.5z"/>
	<path class="st1" d="M227.1,132.3c0.8,6.3-1.9,11.1-6.9,14.1c-6.1,3.7-12,3.6-17.7-0.5c-3.3-2.4-6.2-5.5-7.1-9.9
		c-0.2-1.1-0.9-2.4,0.8-2.8c1.4-0.3,1.5,0.9,1.6,2c0.7,6.4,6.8,11.4,13.7,11.3c5.6-0.1,11.7-2.2,13.6-10.7
		C225.4,135,226.1,134.2,227.1,132.3z"/>
	<path class="st1" d="M143,270.9c0,4.4-1.7,6-5.2,6.2c-3.8,0.2-5.6-1.7-5.8-5.2c-0.2-3.6,2-5.7,5.4-5.8
		C141.1,266,142.6,268.5,143,270.9z"/>
	<path class="st1" d="M84.6,144.1c3,0.7,5.3,2.4,5.2,5.7c-0.1,2.9-2.3,5.1-5.2,5c-3.2-0.1-5.4-2.3-5.2-5.5
		C79.4,146.3,81.6,144.6,84.6,144.1z"/>
	<path class="st1" d="M342.9,257.6c-0.7,3.1-2.4,5.3-5.6,5.2c-3-0.1-5.1-2.3-5-5.2c0.1-3.1,2.3-5.4,5.5-5.2
		C340.7,252.4,342.4,254.6,342.9,257.6z"/>
	<path class="st1" d="M328.9,145.5c-0.7,3.1-2.4,5.4-5.6,5.2c-3-0.1-5.1-2.3-5-5.2c0.1-3.1,2.3-5.4,5.5-5.2
		C326.7,140.4,328.4,142.6,328.9,145.5z"/>
	<path class="st1" d="M152.1,384.9c0.1,2.6-2.2,4-5.1,3.9c-2.9-0.1-5-2.1-4.8-5.2c0.2-2.9,1.8-4.9,5.2-4.7
		C150.6,379.1,152,380.9,152.1,384.9z"/>
	<path class="st1" d="M326.6,241.1c2.9,0.7,5.3,2.2,5,5.2c-0.2,2.5-1.9,4.7-4.9,4.6c-3.3,0-4.6-2-4.7-5.1
		C321.9,242.6,324,241.7,326.6,241.1z"/>
	<path class="st1" d="M242,296c-0.2-3.3,1.9-4.8,4.5-4.7c2.4,0.1,4.3,2,4.4,4.5c0.1,2.8-1.9,4.9-4.5,4.9
		C243.8,300.7,241.7,299.1,242,296z"/>
	<path class="st1" d="M367.1,331.9c3.2,0.3,4.9,1.7,4.8,4.8c-0.1,2.7-1.7,4.3-4.4,4.3c-3,0-4.6-1.7-4.5-4.7
		C363.1,333.5,364.8,332.3,367.1,331.9z"/>
	<path class="st1" d="M260,177.8c-0.1,2.4-1.4,4.1-4.2,4.2c-3,0.1-4.7-1.4-4.8-4.5c-0.1-3,2.1-4.3,4.5-4.3
		C257.8,173.2,260,174.5,260,177.8z"/>
	<path class="st1" d="M56.9,334c2.7,0.3,4.8,1.6,4.9,4.2c0.1,2.6-1.9,4.5-4.4,4.5c-2.1,0-4.2-1.1-4.3-3.9
		C52.9,336.1,54.3,334.5,56.9,334z"/>
	<path class="st1" d="M160,396c-0.1,2.2-1.4,3.8-4.2,4c-3,0.2-4.5-1.7-4.4-4.2c0.1-2.5,2-4.4,4.5-4.4C158.2,391.4,160,392.7,160,396
		z"/>
	<path class="st1" d="M190.6,316c-2.8,0.1-4.1-1.7-4.2-4c0-2.3,1.3-4.1,4-4.1c2.7,0.1,4.5,1.4,4.4,4.2
		C194.8,314.7,193,315.9,190.6,316z"/>
	<path class="st1" d="M183,27.8c0,3-1.2,4.8-3.7,5c-2.8,0.2-4.2-1.5-4.4-4.3c-0.2-2.7,1.6-4.1,3.9-4.2
		C181.2,24.3,182.9,25.7,183,27.8z"/>
	<path class="st1" d="M75.8,159c2.5,0.2,4,1.5,4.2,4c0.3,2.9-1.5,4.5-4,4.5c-2.3,0-4-1.4-4-4.1C72,160.9,73.3,159.5,75.8,159z"/>
	<path class="st1" d="M338.2,143c2.4,0.5,3.8,1.9,3.8,4.4c0,2.5-1.2,3.6-3.7,3.6c-2.5-0.1-4.1-1.4-4.2-3.9
		C334.1,144.6,335.7,143.3,338.2,143z"/>
	<path class="st1" d="M21.3,219.1c2.3,0.3,4.2,1.4,4.3,3.5c0.2,2.2-0.9,4.1-3.6,4.4c-2.7,0.3-4.3-1.3-4.5-3.5
		C17.2,221,19.3,219.9,21.3,219.1z"/>
	<path class="st1" d="M159,377c-2.3-0.3-3.8-1.5-3.9-3.7c-0.1-2.5,1.4-4.1,3.9-4.2c2.5,0,4,1.6,3.9,4.1
		C162.8,375.5,161.3,376.7,159,377z"/>
	<path class="st1" d="M406.9,222c2.5,0.3,4.1,1.6,4,4.1c0,2.3-1.5,3.8-3.8,3.8c-2.5,0-4.1-1.5-4-4
		C403.1,223.6,404.6,222.4,406.9,222z"/>
	<path class="st1" d="M260.2,394.1c2.2,0.4,3.6,1.6,3.7,3.6c0.2,2.3-1.1,3.3-3.3,3.3c-2.1,0-3.5-0.8-3.5-3.1
		C257.1,395.7,258.6,394.8,260.2,394.1z"/>
	<path class="st1" d="M53,231c-0.2,1.9-1.1,3.4-2.9,3.5c-1.9,0.1-2.9-1.4-3-3.2c-0.2-2.1,1.3-3,3.1-3C51.7,228.4,52.9,229.3,53,231z
		"/>
	<path class="st1" d="M184.8,15.4c-0.3,0.1-0.6,0.4-0.8,0.3c-0.4-0.2-0.4-0.5,0.1-0.6c0.3-0.1,0.6-0.1,0.9-0.1
		C184.9,15.1,184.9,15.3,184.8,15.4z"/>
	<path class="st3" d="M301.1,252.2c0.3,0.3,0.6,0.6,0.9,0.9C301.7,252.8,301.4,252.5,301.1,252.2z"/>
	<path class="st3" d="M125,251.1c0.3-0.3,0.6-0.7,0.9-1C125.8,250.6,125.8,251.2,125,251.1z"/>
	<path class="st3" d="M239.3,65.4c9.6-0.9,18.9-1.4,26.4,6.5c8.4,8.9,10.7,21.3,5.4,33.2c-4.5,10.1-13.9,15.5-26.3,14.9
		c-1.5-0.1-3-0.2-4.5-0.4c-0.3-1-1.1-1.6-2.1-2c-12.8-5.6-20.5-24.7-10.6-41.1C230.6,71.7,235.4,69.1,239.3,65.4z M267.2,92.4
		c0.2-2.3-0.3-5-1.4-7.4c-1.1-2.3-1.6-4.9-5.4-2c-4,3.1-10.3-0.3-10-5.4c0.3-4.6-2-3.9-4.6-3.7c-9.3,0.9-16.8,9.9-16.3,19.4
		c0.6,10.8,9,18.6,19.7,18.2C259.3,111.2,267.1,103.1,267.2,92.4z"/>
	<path class="st2" d="M239.3,65.4c-3.9,3.7-8.7,6.4-11.6,11.2c-9.9,16.4-2.2,35.4,10.6,41.1c0.9,0.4,1.7,1,2.1,2
		c-12.8-1.6-23.2-13.7-23.3-27C217,78.5,228.6,66.4,239.3,65.4z"/>
	<path class="st3" d="M171.3,65.4c11.9-1.9,22.5-0.3,29.8,10.7c6.6,9.9,6.6,23.4-0.5,33.2c-7.1,9.9-17,12.5-28.6,9.8
		c-0.6-0.5-1.1-1.2-1.8-1.5c-14-7.9-18.8-23.9-11.9-38.4C161.2,73,166.6,69.6,171.3,65.4z M199.2,92.4c0.1-2.3-0.5-5.1-1.8-7.9
		c-1.1-2.3-1.7-4-4.8-1.6c-4,3-10.3,0.4-10.2-4.4c0.2-6.6-3.8-4.9-6.9-4.1c-9.1,2-15.5,11.8-14.1,20.7c1.7,10.5,10.1,17.3,20.3,16.5
		C191.5,110.8,198.9,103,199.2,92.4z"/>
	<path class="st2" d="M171.3,65.4c-4.8,4.2-10.1,7.7-13.1,13.8c-6.9,14.5-2.1,30.5,11.9,38.4c0.7,0.4,1.2,1,1.8,1.5
		c-6.7,1.4-11.1-3.1-14.8-7c-7.4-7.6-10.1-17-6.9-27.5c3.1-10.1,9.7-16.8,20.1-19.4C170.6,65.1,171,65.3,171.3,65.4z"/>
	<path class="st4" d="M267.2,92.4c-0.1,10.6-7.9,18.8-18.1,19.1c-10.7,0.4-19.1-7.4-19.7-18.2c-0.5-9.5,7-18.6,16.3-19.4
		c2.6-0.2,4.9-0.9,4.6,3.7c-0.3,5.1,5.9,8.5,10,5.4c3.8-2.9,4.3-0.3,5.4,2C266.9,87.5,267.3,90.1,267.2,92.4z M240.2,87.8
		c2.2-0.3,3.7-1.6,3.6-3.9c-0.1-2.1-1.6-3.3-3.6-3.4c-2.1-0.1-3.5,1.2-3.6,3.3C236.5,86.2,237.9,87.5,240.2,87.8z"/>
	<path class="st4" d="M199.2,92.4c-0.2,10.6-7.7,18.4-17.5,19.2c-10.2,0.8-18.6-6.1-20.3-16.5c-1.5-8.9,5-18.7,14.1-20.7
		c3.2-0.7,7.1-2.5,6.9,4.1c-0.1,4.8,6.2,7.4,10.2,4.4c3.1-2.4,3.7-0.7,4.8,1.6C198.7,87.2,199.3,90.1,199.2,92.4z M171.9,80.5
		c-2.1,0.4-3.6,1.7-3.4,4c0.2,2,1.6,3.4,3.7,3.2c2.3-0.2,3.7-1.6,3.5-3.9C175.6,81.8,174.1,80.7,171.9,80.5z"/>
	<path class="st3" d="M240.2,87.8c-2.3-0.3-3.7-1.6-3.6-3.9c0.1-2.1,1.5-3.4,3.6-3.3c2,0.1,3.5,1.3,3.6,3.4
		C243.9,86.3,242.5,87.5,240.2,87.8z"/>
	<path class="st3" d="M171.9,80.5c2.2,0.1,3.7,1.2,3.8,3.3c0.2,2.3-1.3,3.8-3.5,3.9c-2.1,0.2-3.5-1.2-3.7-3.2
		C168.3,82.3,169.7,80.9,171.9,80.5z"/>
</g>
</svg>
