<?xml version="1.0" encoding="utf-8"?>
<!-- Generator: Adobe Illustrator 22.0.1, SVG Export Plug-In . SVG Version: 6.00 Build 0)  -->
<svg version="1.1" id="Layer_1" xmlns="http://www.w3.org/2000/svg" xmlns:xlink="http://www.w3.org/1999/xlink" x="0px" y="0px"
	 viewBox="0 0 1708.5 516" style="enable-background:new 0 0 1708.5 516;" xml:space="preserve">
<style type="text/css">
	.st0{fill:#FFFFFF;stroke:#D0C7DD;stroke-width:6;stroke-miterlimit:10;}
	.st1{opacity:0.8;}
	.st2{fill:none;stroke:#FFFFFF;stroke-width:0.7567;stroke-miterlimit:10;}
	.st3{fill:#FFFFFF;}
	.st4{opacity:0.2;fill:#533657;enable-background:new    ;}
	.st5{fill:#2E1633;}
	.st6{fill:#533657;}
	.st7{fill:none;stroke:#CC6699;stroke-width:3;stroke-miterlimit:10;}
	.st8{fill:none;stroke:#B8A7D6;stroke-width:3;stroke-miterlimit:10;}
	.st9{fill:none;stroke:#FFFDAB;stroke-width:3;stroke-miterlimit:10;}
	.st10{fill:none;stroke:#14D7F3;stroke-width:3;stroke-miterlimit:10;}
	.st11{fill:none;stroke:#2E1633;stroke-width:8;stroke-linecap:round;stroke-linejoin:round;stroke-miterlimit:10;}
	.st12{opacity:0.28;}
	.st13{fill:none;stroke:#2E1633;stroke-width:8;stroke-linejoin:round;stroke-miterlimit:10;}
	.st14{fill:none;stroke:#2E1633;stroke-width:3;stroke-miterlimit:10;}
	.st15{fill:#FFFAB6;}
	.st16{opacity:0.23;fill:#2E1633;enable-background:new    ;}
	.st17{fill:none;stroke:#BBE2DC;stroke-width:3;stroke-miterlimit:10;}
	.st18{fill:#B3ABD3;}
	.st19{fill:none;stroke:#2E1633;stroke-width:7;stroke-linecap:round;stroke-linejoin:round;stroke-miterlimit:10;}
	.st20{opacity:0.28;fill:#533657;enable-background:new    ;}
	.st21{fill:#CC6699;}
	.st22{fill:none;stroke:#2E1633;stroke-width:3;stroke-linecap:round;stroke-linejoin:round;stroke-miterlimit:10;}
	.st23{fill:none;stroke:#2E1633;stroke-width:2.1774;stroke-miterlimit:10;}
</style>
<path class="st0" d="M196.4,364.4l-30,28l-139-139v-0.5l139-139l31,29.5l-111,110L196.4,364.4z"/>
<path class="st0" d="M242.4,489.4h-48.5l162-465.5h49L242.4,489.4z"/>
<path class="st0" d="M1546.7,392.4l-30-28l110-111l-111-110l31-29.5l139,139v0.5L1546.7,392.4z"/>
<g class="st1">
	<path class="st2" d="M1195.3,401.5"/>
</g>
<g class="st1">
	<path class="st2" d="M1216.5,414.5"/>
</g>
<g>
	<path class="st3" d="M1451.3,294.6l-24.1-1.8l-2.2-4l4.5,2.9c-2-1.3-3.8-2.8-5.4-4.5c0,0-7.8-13.7-7.8-13.8
		c-9-46.5-7.8-43.7-10.2-52.5c-0.2-0.6,0.2-4.4,0.7-9.1c39.8-32.2,35.3-69.4,35.3-69.4s-17.2-15.5-47.5,1.5l-10.4,42.5
		c0,0-60.4-28.9-112.8-13.2l0,0c0,0-7.5,2.2-16.7,5.9l1.1,0.7c-0.2,0.1-0.5,0.2-0.7,0.3c-21.6-36.6-46.2-42.9-46.2-42.9
		c-32.3,40.2-48.8,104.3,23.2,156.2l0,0l23.9,68.1c93.3,12.7,69.3,24.7,115,19l19.5,5.7l10.3-8c0,0-11.5-13.2-8.7-30
		c1.2-7.2,29,0.7,29,0.7C1445.9,337.3,1453,310.3,1451.3,294.6z"/>
	<path class="st4" d="M1274.8,340.9c19.8,22.2,60.7,28.8,60.7,28.8s31.8,9.2-18.5,11.5C1296.6,379.1,1286.7,362.2,1274.8,340.9z"/>
	<g>
		<path class="st5" d="M1393.8,347.4c0,0,0.1,0.1,0.2,0.3c0.1,0.2,0.3,0.4,0.4,0.6c0.3,0.5,0.6,1.2,0.5,1.8
			c-0.3,1.2-0.8,2.9-0.9,5.1s0.1,4.9,1.2,7.7c1,2.9,2.9,5.9,5.5,8.7l0.6,0.6l0.1,0.1l0.1,0.2l0.3,0.4c0.1,0.2,0.3,0.4,0.4,0.6
			c0.5,0.9,0.8,1.9,0.9,2.9c0.2,2-0.4,3.8-1.2,5.2c-1.6,2.9-4.2,4.8-6.9,6.1c-2.8,1.2-5.9,1.8-9,1.6c-3.1-0.1-6.1-0.9-8.9-2.1
			c-0.6-0.3-1.2-0.5-1.9-0.8c-0.6-0.2-1.1-0.4-1.6-0.6c-1.2-0.4-2.4-0.7-3.6-1c-2.5-0.6-5.1-0.9-7.7-1.1c-5.3-0.4-10.9-0.3-16.6-0.2
			c-5.7,0.1-11.5,0.3-17.3,0c-5.8-0.3-11.6-1-17.1-2.4c-2.7-0.7-5.4-1.6-8-2.7c-2.5-1.1-4.9-2.4-7.2-3.8c-4.5-2.8-8.2-6.2-11.2-9.6
			c-1.5-1.7-2.8-3.4-4-5.1c-0.6-0.8-1.1-1.7-1.6-2.5s-1-1.6-1.4-2.4c-1.8-3.2-3-6.1-3.8-8.5c-0.2-0.6-0.4-1.2-0.6-1.7
			c-0.2-0.5-0.3-1.1-0.5-1.5c-0.3-1-0.5-1.8-0.7-2.4c-0.3-1.3-0.4-2.1-0.4-2.1c-0.1-0.7,0.4-1.5,1.1-1.6c0.6-0.1,1.1,0.2,1.4,0.6
			l0,0c0,0,0.4,0.6,1.1,1.8c0.7,1.1,1.6,2.8,2.9,4.9c1.3,2.1,2.8,4.6,4.6,7.4c0.5,0.7,1,1.4,1.5,2.1c0.5,0.7,1,1.4,1.6,2.2
			c1.1,1.5,2.4,3,3.7,4.4c2.8,2.9,6.1,5.7,10,8s8.4,4.1,13.3,5.3c4.9,1.2,10.2,1.7,15.6,1.9c5.4,0.2,11.1,0.1,16.8,0
			c5.7-0.1,11.5-0.2,17.4,0.3c2.9,0.3,5.9,0.7,8.8,1.4c1.4,0.3,2.9,0.8,4.3,1.3c0.7,0.2,1.5,0.6,2.1,0.8c0.6,0.3,1.2,0.5,1.8,0.8
			c2.1,0.9,4.3,1.5,6.4,1.6c2.1,0.1,4.1-0.2,5.8-0.9c1.7-0.7,3.1-1.9,3.8-3c0.3-0.6,0.4-1,0.4-1.3c0-0.1,0-0.2-0.1-0.3
			c0,0,0,0,0-0.1l0,0l0,0l-0.1-0.1l-0.1-0.1l0,0c0,0-0.1-0.1,0,0l-0.1-0.2l-0.3-0.3c-3-3.6-5.1-7.6-6.1-11.4s-1-7.3-0.5-10.1
			c0.5-2.7,1.2-4.8,1.9-6.1c0.4-0.6,1.2-0.9,1.8-1c0.3-0.1,0.6-0.1,0.8-0.1C1393.7,347.4,1393.8,347.4,1393.8,347.4z"/>
	</g>
	<path class="st6" d="M1181.9,203c-24-2.5-59,45.3-22.3,90.9c-6.6,49.9,32.8,90.5,61.5,90.1c18.6,34.4,63.8,49.8,94.8,39.3
		c7.8,21.3,28.5,34.1,56.9,25.9s38.8-3.3,38.8-3.3s-4.1-27.3-32.1-33.9c-24.1-36.4-51-44.4-121.3-48.3
		c-12.1-37.3-30.8-73.3-30.8-73.3S1173.9,236.8,1181.9,203z"/>
	<g>
		<path class="st5" d="M1233.4,350.3c0,0,0.6,0.3,1.6,1c1.1,0.6,2.6,1.5,4.6,2.4s4.5,2,7.4,3c2.9,1,6.2,2,9.8,2.8
			c3.7,0.9,7.7,1.7,12,2.4c4.3,0.7,8.9,1.3,13.7,1.7c4.8,0.5,9.8,0.8,14.9,1.2c5.1,0.4,10.3,0.8,15.5,1.4c5.2,0.5,10.5,1.2,15.6,2.1
			c5.2,0.9,10.3,2.1,15.1,3.7c4.9,1.6,9.5,3.6,13.6,6.1c4.1,2.4,7.8,5.3,10.7,8.4s5.2,6.3,6.9,9.3c1.7,3,2.9,5.7,3.7,8
			c0.4,1.1,0.7,2.2,1,3.1c0.3,0.9,0.5,1.7,0.6,2.3c0.3,1.3,0.5,1.9,0.5,1.9c0.5,1.9-0.7,3.8-2.6,4.2c-1.8,0.4-3.6-0.6-4.2-2.4
			l-0.1-0.2c0,0-0.2-0.6-0.5-1.7c-0.2-0.6-0.4-1.2-0.7-2c-0.3-0.8-0.6-1.7-1-2.6c-1.6-3.9-4.4-9.3-9.4-14.3
			c-2.5-2.5-5.6-4.8-9.2-6.9c-1.8-1-3.7-2-5.7-2.8s-4.1-1.6-6.3-2.3c-4.4-1.4-9.1-2.6-14-3.5c-2.4-0.5-4.9-0.8-7.4-1.2
			c-2.5-0.4-5-0.7-7.6-1c-5.1-0.6-10.2-1.1-15.3-1.6s-10.1-1.1-15-1.7s-9.6-1.4-14.1-2.3s-8.7-2-12.5-3.4c-3.8-1.4-7.2-3-10-4.7
			c-2.8-1.7-5.1-3.4-6.9-5.1c-1.7-1.6-3-3-3.7-4C1233.8,350.8,1233.4,350.3,1233.4,350.3z"/>
	</g>
	<path class="st6" d="M1334,168.3c-1.7-31.6,13.9-74,29.2-103.6c-21.3-2.9-51.3,6.2-51.3,6.2s-17.7,31.3-14,74
		c-11-30.5-10-62.7-10-62.7s-38.4,13.9-76.7,57c0,0,32.5,8.4,45.6,42C1292.4,167.8,1334,168.3,1334,168.3z"/>
	<path class="st7" d="M1340.6,64.1c0,0-28.4,42.2-26.9,104.1"/>
	<path class="st8" d="M1267.4,90.5c0,0-1.8,41.8,23.2,80.3"/>
	<path class="st9" d="M1230.2,116.9c0,0,12.6,17.3,37.1,60.8"/>
	<path class="st10" d="M1155.9,218.3c-17.3,28,0.7,59.1,38,87.3c25.8,19.5,52,24,60.7,50.7"/>
	<path class="st8" d="M1177.6,202.1c-20,22.2-3.6,61.9,33.7,90.2c25.8,19.5,33.1,26.5,38,45.3"/>
	<path class="st9" d="M1159.7,308.2c10.2,46.8,66,65.2,113.3,70.6c32.2,3.7,84.9,5.8,91.9,33.1"/>
	<path class="st5" d="M1159.9,311c6.4,8.3,34.8,7.5,34.8,7.5s-26.1-9.1-35.1-24.7C1159.7,308.2,1159.9,311,1159.9,311z"/>
	<g>
		<path class="st5" d="M1182.6,207.2c0,0-0.6,0.1-1.7,0.3c-0.6,0.1-1.3,0.2-2.1,0.4c-0.7,0.2-1.4,0.4-2.3,0.7
			c-0.8,0.2-1.8,0.7-2.9,1.1c-1.1,0.4-2.2,1-3.4,1.6c-0.3,0.2-0.6,0.3-0.9,0.5c-0.3,0.2-0.6,0.4-0.9,0.6c-0.6,0.4-1.2,0.8-1.8,1.2
			s-1.2,0.9-1.8,1.4c-0.6,0.5-1.3,1-1.8,1.6c-0.6,0.6-1.2,1.2-1.8,1.8c-0.6,0.7-1.2,1.3-1.8,2s-1.2,1.4-1.7,2.2s-1.2,1.5-1.6,2.3
			c-0.5,0.8-1,1.7-1.6,2.5c-0.5,0.9-0.9,1.8-1.4,2.7s-0.8,1.9-1.3,2.8c-0.2,0.5-0.4,1-0.6,1.4c-0.2,0.5-0.3,1-0.5,1.5
			c-0.2,0.5-0.3,1-0.5,1.5c-0.2,0.5-0.3,1-0.5,1.5c-0.3,1-0.5,2.1-0.8,3.2c-0.2,1.1-0.4,2.2-0.5,3.3c-0.1,0.5-0.2,1.1-0.2,1.7
			l-0.1,1.7c-0.3,4.4-0.1,9,0.8,13.5l0.1,0.8l0.2,0.8l0.4,1.6l0.4,1.6c0.1,0.5,0.3,1.1,0.5,1.6c0.4,1.1,0.7,2.2,1,3.2
			c0.4,1,0.8,2.1,1.2,3.1c1.8,4.1,3.7,8.1,6.2,11.7c0.6,0.9,1.2,1.8,1.8,2.7c0.7,0.8,1.3,1.7,1.9,2.5c1.2,1.7,2.7,3.2,4,4.7
			c0.3,0.4,0.7,0.8,1,1.1c0.4,0.3,0.7,0.7,1.1,1c0.7,0.7,1.4,1.4,2.1,2.1c1.3,1.4,2.8,2.5,4.1,3.7c0.7,0.6,1.3,1.2,2,1.7
			c0.7,0.5,1.3,1,2,1.5c1.3,1,2.5,2,3.7,2.8c2.4,1.7,4.5,3.2,6.3,4.3c1.8,1.1,3.2,2,4.2,2.6s1.5,0.9,1.5,0.9s-0.6-0.2-1.7-0.6
			s-2.7-0.9-4.7-1.7c-1-0.3-2.1-0.9-3.3-1.4s-2.5-1.1-3.9-1.7c-1.4-0.7-2.8-1.5-4.3-2.3c-0.7-0.4-1.5-0.8-2.3-1.3
			c-0.8-0.5-1.5-1-2.3-1.5c-3.2-2-6.5-4.4-9.8-7.2c-1.6-1.5-3.4-2.9-4.9-4.6c-0.8-0.8-1.6-1.7-2.4-2.6c-0.8-0.9-1.5-1.8-2.3-2.8
			c-1.6-1.8-2.9-3.9-4.3-6l-0.5-0.8l-0.5-0.8l-0.9-1.7c-0.6-1.1-1.3-2.2-1.7-3.4c-0.5-1.2-1-2.4-1.5-3.6c-0.4-1.2-0.8-2.5-1.2-3.7
			c-0.2-0.6-0.4-1.2-0.6-1.9l-0.4-1.9l-0.4-1.9l-0.2-1l-0.1-1l-0.5-3.9c-0.1-1.3-0.1-2.6-0.2-3.9c-0.1-1.3,0-2.6,0-3.9v-1.9l0.2-1.9
			l0.2-1.9c0.1-0.6,0.1-1.3,0.3-1.9c0.2-1.3,0.4-2.5,0.7-3.7s0.6-2.4,0.9-3.6c0.1-0.6,0.3-1.2,0.5-1.8c0.2-0.6,0.4-1.2,0.6-1.8
			c0.2-0.6,0.4-1.2,0.6-1.7c0.2-0.6,0.5-1.1,0.7-1.7c0.5-1.1,0.9-2.2,1.5-3.3c0.5-1.1,1.1-2.1,1.6-3.1c0.6-1,1.2-2,1.8-2.9
			c0.6-1,1.3-1.8,1.9-2.7c0.7-0.9,1.3-1.8,2-2.5c0.7-0.8,1.4-1.6,2.1-2.4c0.7-0.7,1.5-1.4,2.2-2.1c0.7-0.7,1.5-1.3,2.2-1.9
			c0.8-0.6,1.5-1.2,2.2-1.7c0.8-0.5,1.5-1,2.2-1.5c0.4-0.2,0.7-0.5,1.1-0.7s0.7-0.4,1.1-0.6c1.5-0.8,2.8-1.5,4.1-2
			c1.3-0.5,2.5-1.1,3.7-1.4c1.2-0.3,2.3-0.6,3.2-0.9c0.8-0.1,1.5-0.3,2.1-0.4c1.1-0.2,1.7-0.3,1.7-0.3c2.2-0.4,4.2,1.1,4.6,3.3
			C1186.3,204.8,1184.8,206.8,1182.6,207.2z"/>
	</g>
	<g>
		<path class="st5" d="M1164.1,295.3c0,0-0.1,0.7-0.2,1.9c0,0.6-0.1,1.3-0.2,2.2c0,0.9-0.1,1.9-0.1,3c-0.1,2.3,0,5,0.2,8.2
			c0.2,3.2,0.7,6.7,1.5,10.5c0.8,3.8,2,7.9,3.5,12c0.4,1,0.8,2.1,1.3,3.1s1,2.1,1.4,3.1c1.1,2.1,2.2,4.2,3.5,6.2
			c2.6,4.1,5.6,8.1,9.2,11.7c0.4,0.5,0.9,0.9,1.3,1.4l1.4,1.3c1,0.8,1.9,1.7,2.9,2.5c2,1.6,4.1,3.2,6.3,4.6l1.6,1.1l0.8,0.5l0.8,0.5
			c1.1,0.7,2.2,1.3,3.4,2c1.1,0.7,2.3,1.2,3.4,1.8c1.2,0.6,2.3,1.2,3.4,1.8c1.2,0.5,2.4,1,3.5,1.5c1.2,0.5,2.3,1.1,3.5,1.5
			c1.2,0.4,2.4,0.9,3.5,1.3c1.2,0.4,2.3,1,3.5,1.3c2.4,0.8,4.7,1.5,7,2.3c2.3,0.6,4.6,1.3,6.8,1.9c2.2,0.6,4.4,1.1,6.5,1.6
			c1.1,0.3,2.1,0.5,3.1,0.8c1,0.2,2,0.4,3,0.6c2,0.4,3.9,0.8,5.7,1.2c1.8,0.3,3.5,0.6,5.2,0.9c1.6,0.3,3.2,0.6,4.6,0.9
			s2.7,0.4,3.9,0.6c2.4,0.4,4.2,0.7,5.5,1c1.3,0.2,1.9,0.4,1.9,0.4s-0.7,0.1-2,0.2c-1.3,0.1-3.2,0.3-5.6,0.5c-1.2,0.1-2.5,0.2-4,0.2
			s-3,0-4.7,0c-1.7,0-3.5,0-5.4,0c-1.9-0.1-3.9-0.2-5.9-0.3c-1-0.1-2.1-0.1-3.2-0.2c-1.1-0.1-2.2-0.3-3.3-0.4
			c-2.2-0.3-4.5-0.5-6.9-0.9c-2.4-0.4-4.8-0.9-7.2-1.4c-2.5-0.5-4.9-1.3-7.5-1.9c-2.5-0.7-5.1-1.6-7.6-2.5c-2.6-0.9-5.1-2.1-7.6-3.2
			c-5-2.5-10-5.2-14.6-8.6c-2.4-1.6-4.6-3.4-6.8-5.3c-1.1-0.9-2.1-1.9-3.1-2.9l-1.5-1.5c-0.5-0.5-1-1-1.5-1.5
			c-3.9-4-7.3-8.5-10.2-13c-1.5-2.3-2.7-4.6-3.9-6.9c-0.5-1.2-1.1-2.3-1.6-3.5c-0.5-1.1-0.9-2.3-1.4-3.5c-1.7-4.6-3.1-9.1-3.9-13.3
			c-0.8-4.2-1.4-8.1-1.6-11.5c-0.2-3.5-0.3-6.5-0.3-9c0-1.2,0.1-2.4,0.1-3.3c0.1-1,0.1-1.8,0.2-2.5c0.1-1.3,0.2-2,0.2-2
			c0.2-2.2,2.2-3.8,4.4-3.6C1162.5,290.9,1164.3,293.1,1164.1,295.3z"/>
	</g>
	<path class="st4" d="M1251.6,306.6c0,0,9.8,33.9,19.1,59.9c-6.7-1.5-5-2.5-12.2-4.1c-6.2-22.1-24.2-66.9-24.2-66.9
		S1236.9,298,1251.6,306.6z"/>
	<g>
		<path class="st5" d="M1252.4,306.6c0,0-1.1-0.3-3.2-1s-5.1-1.8-8.8-3.5c-3.7-1.7-8-4.1-12.7-7.3c-2.4-1.6-4.8-3.4-7.3-5.4
			c-2.4-2.1-5-4.3-7.5-6.7c-5-4.9-10.2-10.6-14.8-17.4c-2.3-3.4-4.5-7-6.5-10.8s-3.7-7.9-5.2-12.1c-3-8.4-4.8-17.6-5.2-27
			c-0.5-9.4,0.3-18.9,2.2-28.1c1.9-9.2,4.7-18.2,8.3-26.7c0.9-2.1,1.8-4.2,2.8-6.3l0.4-0.8l0.4-0.8c0.3-0.6,0.6-1.1,0.9-1.6
			c0.6-1.1,1.2-2.1,1.9-3.1c1.4-2,3-4,5-5.7s4.4-3.2,7.3-3.9c2.8-0.7,5.9-0.5,8.4,0.3c1.3,0.4,2.5,0.9,3.6,1.5s2.2,1.3,2.9,1.8
			c3.6,2.4,6.9,5,10,7.7c6.2,5.4,11.3,11.3,15.2,17.3c4,5.9,6.8,11.9,8.9,17.2s3.3,10.2,3.9,14.3c0.6,4.1,0.7,7.3,0.7,9.5
			c-0.1,2.2-0.2,3.4-0.2,3.4s-0.7-1-1.6-3c-0.5-1-1.1-2.2-1.8-3.6c-0.7-1.4-1.5-3-2.3-4.8c-1.7-3.5-3.7-7.8-6-12.6
			c-2.4-4.8-5.3-10.1-8.9-15.4c-3.7-5.4-8.1-10.9-13.5-16c-2.7-2.6-5.7-5-8.9-7.2c-0.9-0.6-1.6-1.1-2.3-1.5c-0.7-0.4-1.4-0.7-2.1-1
			c-1.4-0.5-2.8-0.5-4.1-0.2c-2.6,0.6-5.3,3.2-7.5,6.4c-0.5,0.8-1,1.6-1.5,2.5c-0.2,0.4-0.5,0.9-0.7,1.3l-0.3,0.7l-0.3,0.7
			c-0.9,2-1.8,4-2.6,6c-3.3,8.1-5.9,16.5-7.5,25.2c-1.6,8.6-2.2,17.4-1.6,25.9c0.5,8.5,2.3,16.8,4.9,24.5c1.3,3.8,2.9,7.5,4.7,11
			c1.7,3.5,3.7,6.8,5.7,9.9c4.1,6.2,8.7,11.7,13.3,16.5c4.6,4.7,9.2,8.7,13.3,12.3c4.1,3.6,7.8,6.6,10.8,9.2c3,2.5,5.4,4.6,7,6.1
			C1251.6,305.8,1252.4,306.6,1252.4,306.6z"/>
	</g>
	<path class="st4" d="M1243.5,224.4c-8,14.2-9.3,32.2-9.3,32.2c-52.3-47.1-25.6-89.1-23.3-94.8
		C1199.4,185.8,1225.2,237.3,1243.5,224.4z"/>
	<g>
		<path class="st5" d="M1212.9,155.8c-1,2.1-1.8,4.3-2.6,6.5c-0.8,2.2-1.4,4.4-2,6.6c-1.1,4.5-1.9,9-2.3,13.5
			c-0.4,4.5-0.5,9.1-0.1,13.6c0.3,4.5,1.1,8.9,2.2,13.2c0.6,2.2,1.2,4.3,2,6.4c0.7,2.1,1.6,4.1,2.5,6.2c0.9,2,2,4,3,5.9
			c1.1,1.9,2.2,3.9,3.4,5.7c0.6,1,1.2,1.9,1.8,2.8l1.9,2.8c1.3,1.9,2.6,3.7,4,5.4c1.4,1.8,2.9,3.5,4.4,5.2c0.8,0.9,1.5,1.7,2.3,2.5
			l2.4,2.5l-4.1,1.9c0-1,0.1-1.8,0.1-2.7c0.1-0.9,0.2-1.7,0.3-2.6c0.2-1.7,0.5-3.4,0.8-5c0.3-1.7,0.7-3.3,1.2-5
			c0.5-1.6,1-3.2,1.7-4.8c0.6-1.6,1.3-3.1,2.1-4.6s1.6-3,2.6-4.4c0.5-0.7,1-1.4,1.5-2.1c0.5-0.7,1-1.3,1.6-1.9
			c0.5-0.6,1.1-1.3,1.7-1.8c0.6-0.6,1.2-1.1,1.8-1.7c-0.5,0.7-1.1,1.3-1.5,2c-0.5,0.7-1,1.3-1.4,2s-0.9,1.4-1.3,2.1
			c-0.4,0.7-0.8,1.4-1.1,2.2c-0.4,0.7-0.7,1.5-1,2.2c-0.3,0.8-0.6,1.5-0.9,2.3c-0.6,1.5-1,3.1-1.4,4.6c-0.8,3.1-1.3,6.3-1.6,9.5
			c-0.2,1.6-0.3,3.2-0.3,4.8c0,0.8,0,1.6,0,2.4c0,0.8,0,1.6,0.1,2.3c0.1,1.3-0.9,2.5-2.2,2.6c-0.7,0.1-1.3-0.1-1.7-0.5l-0.2-0.1
			l-2.8-2.3c-0.9-0.8-1.8-1.6-2.7-2.4c-1.8-1.6-3.5-3.3-5.2-5c-0.8-0.9-1.7-1.7-2.5-2.6c-0.8-0.9-1.6-1.8-2.4-2.7
			c-1.6-1.9-3-3.8-4.4-5.8c-1.4-2-2.6-4.1-3.7-6.3s-2.1-4.4-3-6.7s-1.7-4.6-2.4-6.9c-0.7-2.3-1.3-4.7-1.7-7.1
			c-0.9-4.8-1.3-9.6-1.2-14.5c0.1-4.8,0.6-9.6,1.6-14.3c0.5-2.3,1.1-4.7,1.8-6.9c0.7-2.3,1.5-4.5,2.4-6.7s1.9-4.3,2.9-6.4
			C1210.4,159.7,1211.6,157.7,1212.9,155.8z"/>
	</g>
	<path class="st11" d="M1396.8,146.1c11.9-6.7,22.2-9.4,30.4-10.2c11.2-1.1,20.2,8.8,17.8,19.8c-3.5,16.4-12.9,41-38.8,60.6"/>
	<g class="st12">
		<path class="st6" d="M1408.2,290.4c5.5-12.2,9.5-3.8,9.5-3.8l1-15.2c0,0-9.7,1.4-11.3,8.7C1406,287.5,1408.2,290.4,1408.2,290.4z"
			/>
		<path class="st6" d="M1411.4,229.8c-11.2-6.3-23.8-2.6-23.8-2.6c8.3,3.4,10.6,7,12.7,13.8L1411.4,229.8z"/>
		<path class="st6" d="M1379.4,203c21.2,4.1,25,89.8,47.7,89.8c-6.9-17.2-12.9-68.7-24.7-84.3c-11.8-15.6-19.4-19.8-19.4-19.8
			L1379.4,203z"/>
	</g>
	<path class="st4" d="M1263.7,203.8c-1.4-24.1,74.8-41.5,91.3-27.7c3.5-1.4-21.7-9.5-21.7-9.5s-63.3-0.5-75.9,14.2
		C1258,185,1263.7,203.8,1263.7,203.8z"/>
	<path class="st11" d="M1257.9,181.9c67-29.3,112.3-11.3,137,15.3c26.2,28.3,10.7,79.9,36.8,96.6"/>
	<path class="st4" d="M1424.6,149.8c0,0-27,32.4-11.4,58.5c-8.5,12.6-25.9-18.3-25.9-18.3S1394.5,159.2,1424.6,149.8z"/>
	<g>
		<path class="st5" d="M1382.7,186.9c0,0,0.1-0.2,0.3-0.7c0.2-0.5,0.5-1.2,0.9-2.1c0.4-0.8,0.9-1.9,1.6-3c0.6-1.1,1.4-2.4,2.3-3.7
			c0.9-1.3,1.9-2.7,3-4.1c0.6-0.7,1.2-1.4,1.8-2.1c0.6-0.7,1.2-1.5,2-2.2c1.4-1.4,2.8-2.9,4.4-4.3c0.8-0.7,1.5-1.4,2.3-2.1
			c0.8-0.7,1.6-1.3,2.5-2c1.6-1.3,3.3-2.5,5-3.7c1.7-1.2,3.5-2.2,5.1-3.2c1.6-1.1,3.4-1.8,5-2.6c0.8-0.4,1.6-0.8,2.3-1.1
			c0.8-0.3,1.5-0.6,2.3-0.9c1.5-0.5,2.7-1.1,3.9-1.5c1.2-0.4,2.2-0.7,3.1-0.9c1.7-0.5,2.7-0.8,2.7-0.8s-0.9,0.5-2.4,1.4
			c-0.8,0.4-1.7,0.9-2.8,1.5s-2.2,1.4-3.5,2.2c-0.6,0.4-1.3,0.8-2,1.3c-0.7,0.4-1.3,1-2,1.5c-1.4,1.1-2.8,2.1-4.2,3.3
			s-2.9,2.4-4.3,3.8c-1.4,1.3-2.8,2.7-4.1,4.1c-0.7,0.7-1.3,1.4-2,2.2c-0.6,0.7-1.2,1.5-1.9,2.2c-1.3,1.4-2.4,3-3.5,4.4
			c-1,1.5-2.1,2.9-3,4.3c-0.9,1.4-1.8,2.7-2.6,3.9c-0.8,1.2-1.5,2.3-2.1,3.3s-1.2,1.8-1.6,2.6c-0.4,0.7-0.8,1.2-1,1.6
			c-0.2,0.3-0.4,0.6-0.4,0.6c-0.9,2-3.3,2.9-5.3,2C1382.7,191.3,1381.8,188.9,1382.7,186.9z"/>
	</g>
	<g>
		<path class="st5" d="M1202.7,141.9l4-5.2l4.2-5.3c1.4-1.7,2.8-3.4,4.3-5.1s2.9-3.4,4.5-5c1.5-1.6,3-3.3,4.6-4.8l2.4-2.4l2.4-2.3
			c1.6-1.6,3.3-3,4.9-4.5c1.7-1.4,3.4-2.9,5.1-4.3c1.7-1.4,3.5-2.8,5.3-4.1c1.8-1.3,3.6-2.7,5.5-3.9c1.9-1.3,3.8-2.5,5.7-3.7
			s3.9-2.3,5.9-3.4s4-2.1,6.1-3c2.1-1,4.2-1.8,6.3-2.7c2.1-0.8,4.3-1.6,6.5-2.2c1.1-0.3,2.2-0.6,3.4-0.9c0.6-0.1,1.2-0.3,1.7-0.4
			l0.9-0.2c0.3-0.1,0.6-0.1,1-0.2c2.2-0.3,4.1,1.3,4.4,3.5c0,0.2,0,0.4,0,0.5v0.1l0,0c0.1,1.2,0.2,2.5,0.2,3.8l0.2,3.9l0.3,7.8
			l0.3,7.8c0.1,1.3,0.2,2.6,0.2,3.9c0.1,1.3,0.2,2.6,0.3,3.9s0.2,2.6,0.3,3.9l0.4,3.9c0.1,1.3,0.3,2.6,0.5,3.9
			c0.2,1.3,0.3,2.6,0.5,3.9l0.6,3.9l0.7,3.9l0.3,2l0.4,1.9c0.3,1.3,0.5,2.6,0.8,3.9l-0.2,0.1l0,0c-0.3-1.6-0.7-3.1-1-4.7
			c-0.3-1.6-0.5-3.2-0.7-4.8c-0.2-1.6-0.4-3.2-0.5-4.8c-0.2-1.6-0.2-3.2-0.3-4.9c0-1.6-0.1-3.2-0.1-4.9c0-1.6,0.1-3.2,0.1-4.9
			c0.1-1.6,0.2-3.2,0.3-4.9c0.2-1.6,0.3-3.2,0.6-4.9c0.2-1.6,0.5-3.2,0.7-4.8c0.3-1.6,0.6-3.2,0.9-4.8c0.3-1.6,0.7-3.2,1.1-4.8
			c0.4-1.6,0.9-3.2,1.4-4.7c0.5-1.6,1-3.1,1.6-4.7c0.5-1.5,1.2-3.1,1.8-4.6s1.4-3,2.1-4.5c0.4-0.7,0.8-1.5,1.2-2.2s0.8-1.4,1.3-2.2
			l0.2-0.4c0.5-0.8,1.3-1.3,2.1-1.5l0,0c1.1-0.3,2.2-0.6,3.3-0.9l3.2-0.8c2.1-0.5,4.3-1,6.5-1.5c4.3-0.9,8.7-1.7,13.1-2.4
			c4.4-0.6,8.8-1.1,13.3-1.3c1.1,0,2.3-0.1,3.4-0.1c1.1,0,2.3,0,3.4,0c1.1,0.1,2.3,0.1,3.4,0.2c1.1,0.1,2.3,0.2,3.5,0.4
			c2.2,0.3,3.7,2.2,3.5,4.4c-0.1,0.5-0.2,0.9-0.4,1.3v0.1c-4.1,7.9-7.9,16.1-11.3,24.3c-3.4,8.3-6.5,16.7-9.2,25.2
			c-1.3,4.3-2.5,8.5-3.6,12.9c-0.5,2.2-1,4.3-1.5,6.5c-0.2,1.1-0.5,2.2-0.7,3.3c-0.2,1.1-0.4,2.2-0.6,3.3s-0.4,2.2-0.5,3.3
			c-0.2,1.1-0.3,2.2-0.5,3.3c-0.2,1.1-0.3,2.2-0.4,3.3c-0.1,1.1-0.2,2.2-0.3,3.3c-0.2,2.2-0.3,4.4-0.3,6.5c-0.1,2.2,0,4.3,0.1,6.5
			v0.1c0.1,2.2-1.6,4.1-3.8,4.2c-2.2,0.1-4.1-1.6-4.2-3.8c-0.1-2.4-0.2-4.7-0.1-7.1c0.1-2.4,0.2-4.7,0.4-7c0.1-1.2,0.2-2.3,0.3-3.5
			s0.3-2.3,0.4-3.5c0.1-1.2,0.3-2.3,0.5-3.5c0.2-1.1,0.4-2.3,0.6-3.4c0.2-1.1,0.4-2.3,0.6-3.4c0.2-1.1,0.4-2.3,0.7-3.4
			c0.5-2.3,1-4.5,1.6-6.7c1.1-4.5,2.4-8.9,3.7-13.3c2.7-8.8,5.9-17.4,9.4-25.9s7.4-16.8,11.6-24.9l3,5.8c-1-0.1-2-0.2-3-0.3
			c-1-0.1-2-0.1-3.1-0.2c-1,0-2.1,0-3.1,0s-2.1,0-3.1,0.1c-4.2,0.2-8.4,0.6-12.5,1.2c-4.2,0.6-8.4,1.4-12.5,2.3
			c-2.1,0.4-4.1,0.9-6.2,1.4l-3.1,0.8c-1,0.3-2.1,0.6-3,0.8l0,0l2.3-1.9l-0.8,2c-0.3,0.7-0.6,1.4-0.9,2.1c-0.6,1.4-1.1,2.8-1.7,4.3
			c-0.6,1.4-1.1,2.9-1.6,4.3s-1,2.9-1.5,4.3s-1,2.9-1.5,4.4l-1.4,4.4c-0.4,1.5-0.9,3-1.3,4.5s-0.8,3-1.2,4.5s-0.7,3-1.1,4.5
			c-0.3,1.5-0.7,3-1,4.6l-0.4,2.3l-0.4,2.3c-0.3,1.5-0.5,3.1-0.7,4.6c-0.2,1.6-0.4,3.1-0.6,4.7c-0.2,1.6-0.4,3.1-0.5,4.7
			c-0.2,1.6-0.3,3.2-0.4,4.7l-0.3,4.8l0,0c0,0.1,0,0.1-0.1,0.1s-0.1,0-0.1-0.1l0,0c-0.6-1.2-1.2-2.4-1.7-3.6l-0.8-1.8l-0.8-1.9
			l-1.5-3.7l-1.4-3.8l-0.7-1.9l-0.6-1.9c-0.4-1.3-0.8-2.6-1.2-3.9l-1-3.9c-0.4-1.3-0.6-2.6-1-3.9c-0.3-1.3-0.6-2.6-0.9-4
			c-0.3-1.3-0.5-2.7-0.8-4l-0.7-4l-0.5-4c-0.2-1.3-0.3-2.7-0.4-4.1c-0.1-1.4-0.2-2.7-0.2-4.1s-0.1-2.7,0-4.1c0-1.4,0.1-2.7,0.3-4.2
			l0,0l4.4,4.1l-0.6,0.1l-0.7,0.1c-0.5,0.1-1,0.2-1.5,0.3c-1,0.2-2,0.5-3,0.8c-2,0.6-3.9,1.3-5.9,2c-1.9,0.8-3.9,1.6-5.8,2.5
			c-1.9,0.9-3.8,1.8-5.7,2.8s-3.7,2.1-5.5,3.2c-1.8,1.1-3.6,2.2-5.4,3.4c-1.8,1.2-3.5,2.4-5.2,3.7c-1.7,1.3-3.4,2.6-5,3.9
			c-1.7,1.3-3.3,2.7-4.9,4.1s-3.2,2.8-4.7,4.3l-2.3,2.2l-2.3,2.3c-1.5,1.5-3,3.1-4.4,4.7c-1.5,1.6-2.9,3.2-4.3,4.8
			c-1.4,1.6-2.8,3.3-4.2,4.9l-4,5l-4,5.2c-1.3,1.8-3.8,2.1-5.6,0.8C1201.8,146.1,1201.4,143.6,1202.7,141.9z"/>
	</g>
	<line class="st13" x1="1363.3" y1="64.7" x2="1383" y2="89.9"/>
	<path class="st13" d="M1287.9,82.3c0,0,8.5,13.9,12.6,19.2"/>
	<path class="st14" d="M1412.2,344.8"/>
	<g>
		<path class="st5" d="M1233.4,350.3c0,0,0.6,0.3,1.6,1c1.1,0.6,2.6,1.5,4.6,2.4s4.5,2,7.4,3c2.9,1,6.2,2,9.8,2.8
			c3.7,0.9,7.7,1.7,12,2.4c4.3,0.7,8.9,1.3,13.7,1.7c4.8,0.5,9.8,0.8,14.9,1.2c5.1,0.4,10.3,0.8,15.5,1.4c5.2,0.5,10.5,1.2,15.6,2.1
			c5.2,0.9,10.3,2.1,15.1,3.7c4.9,1.6,9.5,3.6,13.6,6.1c4.1,2.4,7.8,5.3,10.7,8.4s5.2,6.3,6.9,9.3c1.7,3,2.9,5.7,3.7,8
			c0.4,1.1,0.7,2.2,1,3.1c0.3,0.9,0.5,1.7,0.6,2.3c0.3,1.3,0.5,1.9,0.5,1.9c0.5,1.9-0.7,3.8-2.6,4.2c-1.8,0.4-3.6-0.6-4.2-2.4
			l-0.1-0.2c0,0-0.2-0.6-0.5-1.7c-0.2-0.6-0.4-1.2-0.7-2c-0.3-0.8-0.6-1.7-1-2.6c-1.6-3.9-4.4-9.3-9.4-14.3
			c-2.5-2.5-5.6-4.8-9.2-6.9c-1.8-1-3.7-2-5.7-2.8s-4.1-1.6-6.3-2.3c-4.4-1.4-9.1-2.6-14-3.5c-2.4-0.5-4.9-0.8-7.4-1.2
			c-2.5-0.4-5-0.7-7.6-1c-5.1-0.6-10.2-1.1-15.3-1.6s-10.1-1.1-15-1.7s-9.6-1.4-14.1-2.3s-8.7-2-12.5-3.4c-3.8-1.4-7.2-3-10-4.7
			c-2.8-1.7-5.1-3.4-6.9-5.1c-1.7-1.6-3-3-3.7-4C1233.8,350.8,1233.4,350.3,1233.4,350.3z"/>
	</g>
	<path class="st4" d="M1291,268.5c0,0-1.2-59.2,49.5-53.7C1321.5,221.3,1300.3,241.1,1291,268.5z"/>
	<g>
		<path class="st6" d="M1290.1,268.2c0,0-0.1-0.3-0.3-1c-0.2-0.6-0.4-1.6-0.6-2.8c-0.2-1.2-0.4-2.7-0.5-4.4c-0.1-1.7-0.1-3.6,0-5.6
			c0.1-2.1,0.3-4.3,0.7-6.6c0.2-1.2,0.5-2.3,0.7-3.6c0.3-1.2,0.7-2.4,1-3.7c0.4-1.3,0.8-2.5,1.4-3.7c0.3-0.6,0.5-1.3,0.8-1.9
			c0.3-0.6,0.6-1.2,0.9-1.9c0.6-1.3,1.3-2.5,2-3.7c0.8-1.2,1.5-2.4,2.4-3.6c1.8-2.3,3.6-4.6,5.9-6.6c2.1-2.1,4.6-3.8,7.1-5.3
			c0.7-0.3,1.3-0.7,1.9-1c0.6-0.3,1.3-0.7,1.9-0.9c0.7-0.2,1.3-0.5,2-0.7c0.3-0.1,0.6-0.2,1-0.3c0.3-0.1,0.7-0.2,1-0.2
			c2.6-0.7,5.1-1,7.4-1c1.2,0.1,2.2,0,3.3,0.2c1,0.2,2,0.3,2.9,0.5s1.7,0.5,2.4,0.8c0.7,0.3,1.4,0.5,2,0.8c1.1,0.6,2,1.1,2.6,1.5
			s0.9,0.6,0.9,0.6l0.2,0.1c0.2,0.2,0.2,0.5,0.1,0.7c-0.1,0.1-0.3,0.2-0.4,0.2c0,0-1.2-0.1-3.4-0.3c-1.1,0-2.4,0-3.9,0.1
			c-0.8,0.1-1.6,0.2-2.4,0.3s-1.7,0.4-2.6,0.5c-0.9,0.2-1.8,0.5-2.8,0.8s-1.9,0.7-2.9,1.2l-0.7,0.3l-0.7,0.4c-0.5,0.3-1,0.5-1.4,0.8
			c-1,0.5-1.9,1.3-2.9,1.9c-0.9,0.7-1.9,1.4-2.7,2.3c-0.9,0.8-1.8,1.6-2.6,2.6l-1.3,1.4l-1.2,1.4c-0.8,0.9-1.5,2-2.3,3
			c-0.7,1-1.4,2.1-2.1,3.1c-0.6,1.1-1.3,2.1-1.9,3.2c-1.2,2.1-2.3,4.3-3.4,6.5c-1,2.1-1.9,4.2-2.7,6.3c-0.8,2-1.5,4-2.1,5.8
			c-1.2,3.6-2.1,6.6-2.6,8.8c-0.6,2.1-0.8,3.4-0.8,3.4c-0.1,0.3-0.3,0.4-0.5,0.4c-0.2,0-0.3-0.1-0.3-0.3L1290.1,268.2z"/>
	</g>
	<g>
		<path class="st6" d="M1387.2,226.5c0,0,0,0,0.1-0.1s0.2-0.2,0.4-0.3c0.4-0.3,0.9-0.7,1.6-1.1c0.7-0.4,1.6-0.9,2.7-1.2
			c0.5-0.2,1.1-0.4,1.7-0.5c0.6-0.2,1.3-0.3,2-0.4c1.4-0.2,2.9-0.3,4.5-0.2s3.3,0.3,5,0.8c1.7,0.4,3.4,1.1,5.1,1.9
			c0.9,0.4,1.6,0.9,2.4,1.4s1.6,1,2.3,1.6c1.4,1.3,2.8,2.5,3.9,3.9c0.6,0.7,1.1,1.4,1.6,2.1c0.5,0.7,1.1,1.4,1.4,2.2
			c0.8,1.5,1.5,3,2,4.4c0.5,1.5,0.8,2.9,1,4.2c0.1,0.7,0.2,1.3,0.3,1.9c0,0.6,0.1,1.2,0.1,1.7c0,1.1,0,2.1-0.1,2.9
			c-0.1,0.8-0.2,1.4-0.2,1.8c-0.1,0.4-0.1,0.7-0.1,0.7l-0.1,0.2c-0.1,0.2-0.3,0.3-0.4,0.3s-0.2-0.1-0.2-0.2c0,0-0.3-0.7-0.9-1.9
			c-0.3-0.6-0.7-1.3-1.1-2.2c-0.2-0.4-0.4-0.9-0.7-1.3c-0.3-0.5-0.5-0.9-0.8-1.4c-0.6-1-1.2-2.1-1.9-3.2c-0.8-1.1-1.6-2.2-2.5-3.3
			c-0.4-0.6-0.9-1.1-1.4-1.7c-0.5-0.5-1-1.1-1.5-1.6c-0.5-0.6-1.1-1-1.7-1.5l-1.7-1.5c-0.6-0.5-1.2-0.9-1.8-1.3
			c-0.6-0.4-1.2-0.9-1.9-1.3c-0.7-0.4-1.3-0.7-1.9-1.1c-0.6-0.4-1.3-0.6-2-0.9c-1.3-0.6-2.6-1-3.9-1.4c-0.6-0.2-1.3-0.3-1.9-0.5
			c-0.6-0.1-1.2-0.3-1.8-0.4c-0.6-0.1-1.1-0.2-1.6-0.3s-1-0.1-1.5-0.1c-0.9-0.1-1.7-0.1-2.4-0.1c-0.7,0-1.2,0-1.5,0.1
			c-0.3,0-0.5,0.1-0.5,0.1c-0.2,0-0.4-0.1-0.4-0.3c0-0.1,0-0.2,0.1-0.3L1387.2,226.5z"/>
	</g>
	<path class="st15" d="M1334.2,170.6c-2.9,13.4,23.4,43.3,47.1,27.8c14.2-51,35.9-134.4,28.9-138.7S1364.9,126,1334.2,170.6z"/>
	<path class="st16" d="M1406.9,65.6c-31.3,59.3-63,115.7-51.3,130c-16.7-5-22.7-26.7-22.7-26.7S1392.3,71.6,1406.9,65.6z"/>
	<g>
		<g>
			<path class="st17" d="M1358.8,133c-8.7,21.3,31.4,26.9,21.8,66.9"/>
			<path class="st17" d="M1380.2,98.7c-12.3,25,19.4,35.6,12.5,58.7"/>
		</g>
		<path class="st17" d="M1396.6,73.6c-10.5,16.6,9.3,27.6,4.3,50.1"/>
	</g>
	<path class="st11" d="M1334.2,170.6c-2.9,13.4,23.4,43.3,47.1,27.8c14.2-51,35.9-134.4,28.9-138.7S1364.9,126,1334.2,170.6z"/>
	<g>
		<g>
			<path class="st18" d="M1439.9,312.5c0,0,0,0,0-0.2c0-0.1,0.1-0.3,0.1-0.5c0.1-0.4,0.3-0.9,0.7-1.5c0.3-0.6,0.8-1.2,1.5-1.9
				c0.3-0.3,0.7-0.6,1.1-0.9c0.4-0.2,0.8-0.5,1.3-0.7l0.7-0.3c0.2-0.1,0.5-0.1,0.7-0.2c0.5-0.1,1-0.2,1.4-0.2c0.5,0,0.9,0,1.4,0.1
				c0.4,0,0.8,0.2,1.2,0.3c0.3,0.1,0.7,0.2,0.9,0.4c0.3,0.2,0.5,0.3,0.6,0.4c0.3,0.2,0.5,0.4,0.5,0.4c0.6,0.6,0.6,1.6-0.1,2.2
				c-0.1,0.1-0.3,0.2-0.5,0.3l-0.3,0.1c0,0-0.2,0.1-0.5,0.2c-0.2,0-0.3,0.1-0.5,0.1c-0.2,0-0.4,0.1-0.6,0.2c-0.2,0-0.4,0.1-0.7,0.2
				c-0.2,0.1-0.5,0.1-0.7,0.2c-0.2,0.1-0.5,0.1-0.7,0.2c-0.2,0.1-0.5,0.2-0.7,0.2c-0.3,0.1-0.5,0.2-0.8,0.3
				c-0.3,0.1-0.5,0.2-0.8,0.3c-0.5,0.2-1,0.5-1.5,0.7c-0.2,0.1-0.5,0.2-0.6,0.3c-0.2,0.1-0.4,0.2-0.5,0.2c-0.1,0.1-0.3,0.1-0.3,0.1
				c-0.1,0-0.1,0.1-0.1,0.1c-0.6,0.4-1.4,0.2-1.7-0.4c-0.1-0.2-0.2-0.3-0.2-0.5L1439.9,312.5z"/>
		</g>
		<g>
			<path class="st6" d="M1439.9,313.7c0,0,0-0.1,0-0.2s-0.1-0.3-0.1-0.6c0-0.2-0.1-0.5,0-0.9c0-0.3,0-0.7,0.1-1.1
				c0.1-0.8,0.3-1.8,0.8-2.8c0.2-0.5,0.6-1.1,1-1.6s1-1.1,1.6-1.5c0.7-0.4,1.5-0.7,2.3-0.8c0.8-0.1,1.6,0,2.2,0.1
				c0.3,0.1,0.6,0.2,0.9,0.3c0.3,0.1,0.5,0.3,0.8,0.4c0.5,0.3,0.9,0.6,1.2,0.9c0.3,0.3,0.6,0.6,0.8,0.8c0.2,0.3,0.4,0.5,0.5,0.7
				c0.3,0.4,0.4,0.7,0.4,0.7c0.4,0.8,0,1.7-0.7,2c-0.3,0.1-0.6,0.2-0.9,0.1h-0.2c0,0-0.3,0-0.6-0.2c-0.4-0.1-0.9-0.3-1.5-0.4
				c-0.3-0.1-0.6-0.1-0.9-0.2c-0.1,0-0.3,0-0.4-0.1c-0.1,0-0.2,0-0.4,0c-0.2,0-0.4,0-0.5,0.1c-0.1,0-0.3,0.1-0.4,0.1
				c-0.1,0.1-0.3,0.2-0.5,0.4c-0.2,0.2-0.4,0.4-0.6,0.6c-0.4,0.5-0.9,1.1-1.2,1.6c-0.4,0.6-0.7,1-0.9,1.4c-0.1,0.2-0.2,0.3-0.3,0.4
				s-0.1,0.1-0.1,0.1l-0.1,0.1c-0.4,0.6-1.2,0.7-1.8,0.3C1440.2,314.3,1440,314,1439.9,313.7z"/>
		</g>
	</g>
	<g>
		<path class="st5" d="M1389,312.6c1-1,2-2,3.1-2.9s2.2-1.9,3.3-2.8s2.3-1.8,3.4-2.6c1.2-0.8,2.3-1.7,3.6-2.4
			c1.2-0.8,2.4-1.5,3.7-2.2c1.2-0.7,2.5-1.4,3.8-2c1.3-0.7,2.6-1.2,3.9-1.8c1.3-0.6,2.7-1.1,4-1.6c1.4-0.5,2.7-1,4.1-1.4
			c1.4-0.4,2.8-0.8,4.2-1.2c1.4-0.4,2.9-0.7,4.3-1c1.4-0.3,2.9-0.5,4.4-0.7s3-0.3,4.4-0.4c1.5-0.1,3-0.1,4.5-0.1s3,0.2,4.5,0.4
			c0.8,0.1,1.5,0.2,2.3,0.4c0.4,0.1,0.8,0.2,1.2,0.3l0.6,0.2l0.7,0.2h0.1c1.7,0.5,2.9,2.1,2.8,3.8l0,0c0,1.5-0.1,2.8-0.2,4.2
			c-0.1,1.4-0.3,2.7-0.4,4.1c-0.3,2.7-0.8,5.4-1.4,8.1c-1.2,5.4-2.8,10.7-5.1,15.8c-2.3,5.1-5.3,10-9.3,14.2c-2,2.1-4.2,4-6.6,5.7
			s-5,3-7.7,4.1c-0.7,0.3-1.4,0.5-2.1,0.7l-1.1,0.4l-0.9,0.3l-1.9,0.5l-2.2,0.5c-0.7,0.2-1.4,0.3-2.1,0.4s-1.4,0.2-2.1,0.3
			c-1.4,0.1-2.8,0.3-4.2,0.3c-1.4,0.1-2.8,0-4.3,0c-1.4-0.1-2.8-0.2-4.2-0.3c-2.8-0.3-5.6-0.8-8.3-1.6c-5.4-1.5-10.6-3.6-15.4-6.3
			c-2.4-1.3-4.8-2.8-7-4.4c-1.1-0.8-2.2-1.6-3.3-2.5c-0.5-0.4-1.1-0.9-1.6-1.3c-0.6-0.5-1-0.9-1.7-1.5l3.9,1c-0.3,0-0.7,0.1-1,0.2
			l-1.1,0.2c-0.7,0.2-1.4,0.3-2.2,0.5c-1.4,0.4-2.9,0.8-4.3,1.3c-0.7,0.2-1.4,0.5-2.1,0.8s-1.4,0.6-2.1,0.9s-1.4,0.7-2,1
			c-0.7,0.3-1.3,0.8-1.9,1.1l-0.1,0.1c-0.8,0.5-1.9,0.2-2.3-0.6c-0.4-0.7-0.3-1.6,0.3-2.1c0.6-0.6,1.2-1.2,1.8-1.7
			c0.6-0.6,1.2-1.1,1.9-1.6c0.6-0.5,1.3-1,2-1.5c0.7-0.5,1.4-1,2.1-1.4c1.4-0.9,2.8-1.8,4.3-2.6c0.7-0.4,1.5-0.8,2.2-1.2l1.2-0.6
			c0.4-0.2,0.8-0.3,1.3-0.5c1.3-0.5,2.6-0.2,3.6,0.7l0.3,0.3c0.3,0.3,0.8,0.8,1.3,1.1c0.5,0.4,0.9,0.8,1.4,1.2c1,0.8,1.9,1.5,3,2.2
			c2,1.4,4.1,2.8,6.3,4c4.3,2.4,8.9,4.3,13.6,5.6c2.4,0.6,4.8,1.1,7.2,1.4c1.2,0.2,2.4,0.2,3.6,0.3c1.2,0,2.4,0.1,3.6,0
			c1.2,0,2.4-0.2,3.6-0.3c0.6-0.1,1.2-0.2,1.8-0.3c0.6-0.1,1.2-0.2,1.7-0.3l1.7-0.4l1.9-0.5l0.9-0.3c0.1,0-0.1,0-0.1,0l0,0h0.1h0.1
			l0.2-0.1l0.4-0.1c0.6-0.2,1.1-0.4,1.6-0.6c2.2-0.9,4.2-2,6.1-3.3s3.7-2.9,5.3-4.6c3.2-3.4,5.8-7.6,7.8-12c2-4.5,3.5-9.2,4.6-14.1
			c0.5-2.4,1-4.9,1.3-7.4c0.2-1.2,0.3-2.5,0.4-3.7s0.2-2.5,0.2-3.6l0,0l2.9,3.9c0,0-0.2,0-0.3,0l-0.4-0.1c-0.3,0-0.6-0.1-0.9-0.1
			c-0.6-0.1-1.2-0.1-1.9-0.1c-1.3-0.1-2.5-0.1-3.8-0.1c-1.3,0-2.6,0.1-3.9,0.2s-2.6,0.2-3.9,0.4c-1.3,0.2-2.6,0.4-3.9,0.6
			c-0.6,0.1-1.3,0.2-1.9,0.4c-0.6,0.1-1.3,0.3-1.9,0.4c-1.3,0.3-2.6,0.6-3.8,1c-1.3,0.4-2.5,0.7-3.8,1.1c-1.3,0.4-2.5,0.8-3.8,1.3
			c-1.3,0.5-2.5,0.9-3.8,1.4c-1.2,0.5-2.5,1-3.7,1.5c-1.2,0.5-2.5,1-3.7,1.6c-1.2,0.5-2.5,1.1-3.7,1.7c-1.2,0.6-2.5,1.2-3.7,1.7
			c-1.2,0.6-2.5,1.2-3.7,1.8c-1.3,0.6-2.5,1.2-3.8,1.8c-0.8,0.3-1.7,0-2-0.8C1388.4,313.7,1388.5,313.1,1389,312.6z"/>
	</g>
	<g>
		<path class="st5" d="M1401.2,272.9c0.3,0.7,0.6,1.4,0.9,2c0.3,0.7,0.6,1.3,0.9,2l0.9,2l0.9,1.9l0.9,1.9c0.3,0.6,0.6,1.2,0.8,1.8
			l0.8,1.8c0.1,0.3,0.3,0.6,0.4,0.8l0.2,0.4c0.1,0.1,0.2,0.3,0.2,0.3l-0.1,0.1l0,0l-5.5,1.1c0.1-1.8,0.3-3.6,0.7-5.4
			c0.2-0.9,0.4-1.8,0.7-2.8c0.3-0.9,0.6-1.8,1-2.8c0.8-1.8,1.8-3.7,3.4-5.3c1.5-1.6,3.6-2.9,5.7-3.5c1.1-0.3,2.1-0.5,3.2-0.6
			c1-0.1,2.1,0,3,0.1c1,0.1,1.9,0.3,2.9,0.5c0.5,0.1,0.9,0.2,1.4,0.3l1.2,0.3c0.3,0.1,0.6,0.2,0.9,0.2c0.3,0.1,0.6,0.1,0.9,0.1
			c0.5,0,1,0,1.5-0.3s1-0.8,1.4-1.4c0.4-0.7,0.8-1.5,1.1-2.3c0,0,0,0,0.1,0l0,0c0.4,0.9,0.6,1.8,0.7,2.8c0,1-0.2,2.1-0.9,3.1
			c-0.7,1-1.8,1.8-3,2.2c-0.6,0.2-1.2,0.3-1.7,0.4c-0.6,0.1-1.1,0-1.7,0l-0.7-0.1h-0.4h-0.3c-0.4,0-0.8-0.1-1.2-0.1
			c-0.8-0.1-1.6-0.1-2.3-0.1c-1.5,0-2.9,0.3-4,0.7c-1.2,0.5-2.1,1.2-2.9,2.1c-0.8,0.9-1.5,2.2-2.1,3.5c-0.6,1.4-1,2.9-1.4,4.4
			c-0.2,0.8-0.4,1.6-0.6,2.4l-0.5,2.4l-0.1,0.4c-0.3,1.6-1.9,2.6-3.5,2.3c-0.9-0.2-1.6-0.8-2-1.5l0,0l-0.1,0.1l0,0l0,0
			c-0.2-0.3-0.2-0.5-0.3-0.7s-0.2-0.4-0.3-0.6c-0.2-0.4-0.3-0.8-0.4-1.1c-0.3-0.7-0.5-1.5-0.7-2.2c-0.2-0.7-0.3-1.5-0.4-2.2
			s-0.2-1.5-0.2-2.3c-0.1-0.8-0.1-1.5-0.1-2.3c0-0.7,0.1-1.5,0.1-2.2c0-0.4,0.1-0.8,0.1-1.1c0-0.4,0.1-0.7,0.1-1.1
			c0.1-0.7,0.2-1.5,0.4-2.2C1401,272.8,1401.1,272.8,1401.2,272.9C1401.2,272.8,1401.2,272.8,1401.2,272.9z"/>
	</g>
	<path class="st4" d="M1305.2,297.8c10.4,5.5,32.2-5,51.4,7.7c-3.9-15.4-16-16.3-24.3-15.2C1324,291.4,1314.5,300.1,1305.2,297.8z"
		/>
	<g>
		<path class="st5" d="M1355.9,280.2c0.2,2,0.5,3.9,0.8,5.8c0.2,0.9,0.3,1.9,0.5,2.8c0.2,0.9,0.4,1.8,0.6,2.7
			c0.2,0.9,0.5,1.7,0.8,2.6c0.3,0.8,0.6,1.6,0.9,2.4l0.9,2.2c0.2,0.3,0.3,0.7,0.4,1c0.1,0.3,0.3,0.7,0.4,1l0,0
			c1.2,1.5,0.9,3.7-0.6,4.9c-1.3,1-3.1,1-4.3,0l-0.4-0.3l-1.6-1.3l-1.6-1.3c-1.1-0.8-2.2-1.6-3.3-2.4s-2.2-1.5-3.3-2.1
			s-2.2-1.3-3.4-1.8c-2.3-1-4.6-1.7-6.9-2c-2.3-0.3-4.7-0.2-7.3,0.2c-2.5,0.4-5.1,1.1-7.8,1.9l-4.1,1.2c-1.4,0.4-3.2,0.8-4.8,1
			c-1.7,0.2-3.4,0.1-5.1-0.2c-1.7-0.3-3.3-0.9-4.8-1.7c-1.5-0.8-2.8-2-3.8-3.3c-0.5-0.6-0.9-1.3-1.3-2.1c-0.3-0.7-0.6-1.5-0.7-2.3
			c1.3,0.8,2.6,1.4,3.9,1.9c1.3,0.5,2.5,0.8,3.7,0.9c1.2,0.2,2.4,0.2,3.5,0.1c1.2-0.1,2.3-0.2,3.5-0.5c1.2-0.3,2.2-0.6,3.5-1.1
			l4-1.5c2.7-1,5.6-2,8.7-2.7c3.1-0.7,6.5-0.9,9.8-0.5c1.7,0.2,3.3,0.6,4.9,1c1.6,0.5,3.1,1.1,4.6,1.8c1.5,0.7,2.8,1.5,4.2,2.3
			c1.3,0.9,2.6,1.8,3.8,2.7c1.2,1,2.3,2,3.4,3s2.1,2.1,3.1,3.2l-5.3,4.5l0,0c-0.4-0.4-0.8-0.9-1.1-1.4c-0.3-0.5-0.6-1-0.8-1.6
			c-0.2-0.5-0.4-1.1-0.6-1.6c-0.2-0.6-0.3-1.1-0.4-1.7c-0.1-0.6-0.1-1.1-0.2-1.7c0-0.5-0.1-1.1,0-1.6c0-1.1,0-2.1,0.2-3.2
			c0.1-1,0.2-2.1,0.5-3.1c0.2-1,0.4-2,0.7-3C1354.3,283.9,1355,282,1355.9,280.2z"/>
	</g>
	<g>
		<path class="st5" d="M1307.6,284.8c0,0,0.8,0.7,2,1.6c0.3,0.2,0.6,0.5,1,0.7c0.3,0.3,0.7,0.5,1.1,0.8c0.7,0.5,1.5,1,2.3,1.5
			c0.4,0.2,0.8,0.4,1.2,0.6s0.8,0.3,1.2,0.4s0.7,0.2,1.1,0.3c0.4,0.1,0.7,0.2,1,0.1c0.3,0,0.6,0,0.9,0.1c0.3,0,0.5,0,0.7,0
			c0.4,0,0.6,0,0.6,0h0.3c0.8,0,1.5,0.7,1.5,1.5c0,0.7-0.5,1.3-1.1,1.4c0,0-0.3,0.1-0.8,0.2c-0.3,0.1-0.6,0.1-0.9,0.2
			c-0.4,0-0.8,0-1.2,0.1c-0.5,0-0.9-0.1-1.5-0.1c-0.5-0.1-1-0.2-1.6-0.4c-0.5-0.1-1-0.4-1.6-0.7c-0.5-0.2-1-0.6-1.5-0.9
			c-0.4-0.4-0.9-0.7-1.3-1.1c-0.4-0.4-0.8-0.8-1.1-1.2c-0.6-0.8-1.1-1.7-1.5-2.4c-0.2-0.4-0.3-0.7-0.4-1s-0.2-0.6-0.2-0.8
			C1307.6,285.1,1307.6,284.8,1307.6,284.8z"/>
	</g>
	<path class="st14" d="M1372.8,375.2"/>
	<path class="st19" d="M1232,294.9c0,0,19.9,38.2,24.8,67.5"/>
	<path class="st14" d="M1320.5,416.2"/>
	<path class="st7" d="M1229,392.6c12.4,22.7,94.2,4.3,107.9,26.8"/>
	<path class="st8" d="M1322.5,421.9c14.4,33,78.5,2.4,92.2,24.8"/>
	<path class="st10" d="M1355.3,411.9c16.8,19.6,35.8,3.6,50.9,19.2"/>
	<g>
		<path class="st5" d="M1324,422c0.1,1,0.3,2,0.6,3.1c0.3,1.1,0.6,2.1,1,3.2c0.2,0.5,0.4,1,0.6,1.5s0.4,1,0.7,1.5c0.6,1,1,2,1.7,2.9
			l0.9,1.4l1.1,1.3c0.4,0.4,0.7,0.9,1.1,1.3l1.2,1.2c0.7,0.8,1.7,1.5,2.5,2.2c0.8,0.7,1.8,1.3,2.8,1.9c0.5,0.3,0.9,0.6,1.4,0.9
			l1.5,0.7l1.5,0.7c0.5,0.2,1.1,0.4,1.6,0.6c1.1,0.3,2.1,0.8,3.3,1l3.4,0.7l0.8,0.2l0.8,0.1c0.6,0.1,1.3,0.2,1.7,0.2
			c1,0.1,2.1,0,3.2,0c2.3-0.2,4.6-0.5,6.9-1c4.6-1,9.3-2.4,14.1-3.7c2.4-0.7,4.8-1.3,7.3-1.9c2.5-0.5,5-1.1,7.6-1.3
			c2.6-0.3,5.3-0.5,8-0.3c2.7,0.2,5.5,0.8,8.1,1.9c2.6,1.2,4.9,3,6.6,5.2c1.6,2.2,2.7,4.7,3.1,7.2l0,0l0,0c-1.5-2-2.9-4-4.2-6
			c-1.5-2-2.8-4-4.2-5.9l-2.1-2.9l-1-1.5l-1.1-1.4l-2.2-2.8c-0.7-0.9-1.5-1.8-2.3-2.7c-3.1-3.5-6.3-6.8-9.9-9.4s-7.6-4.4-11.8-5.5
			c-4.2-1-8.7-1.2-13.2-0.8c-4.5,0.4-9.1,1.3-13.8,2.3c-9.3,2.1-18.6,4.9-28.3,7c-4.8,1.1-9.7,2-14.6,2.7c-4.9,0.7-9.9,1.1-14.9,1.3
			c-4.9,0.2-9.9,0.3-14.9,0s-10.1-1-15-2.3c-5-1.3-9.8-3.1-14.3-5.6s-8.7-5.5-12.5-9.1c-3.7-3.6-7-7.6-9.7-11.9
			c-2.8-4.3-5.1-8.8-7-13.5c-0.7-1.8,0.1-3.8,1.9-4.6c1.8-0.7,3.8,0.1,4.6,1.9l0,0l0,0c3.6,8.6,8.5,16.6,15.1,22.9
			c3.3,3.1,7,5.8,11,8s8.3,3.8,12.7,5c4.5,1.2,9.1,1.8,13.7,2.1c4.7,0.3,9.4,0.2,14.2,0c4.7-0.2,9.4-0.7,14.1-1.4
			c4.7-0.7,9.3-1.6,14-2.8c4.6-1.1,9.3-2.4,13.9-3.7c4.7-1.3,9.4-2.7,14.2-3.8c4.8-1.2,9.8-2.2,14.9-2.5c5.1-0.4,10.5-0.1,15.7,1.3
			c5.2,1.3,10.1,3.9,14.2,7.1c4.2,3.2,7.6,7.1,10.6,11.2c0.7,1,1.4,2.1,2.1,3.1l1.9,3.3l0.9,1.6l0.8,1.7l1.6,3.4
			c1,2.3,1.9,4.6,2.7,6.9c0.8,2.3,1.5,4.7,2.1,7.1l0,0l0,0c-1.8-1.9-3.5-3.6-5.4-4.9s-3.9-2.1-6-2.5s-4.3-0.5-6.5-0.3
			c-2.2,0.1-4.5,0.4-6.8,0.9c-2.3,0.5-4.6,1-7,1.6l-7.1,1.8c-2.4,0.6-4.8,1.3-7.3,1.8c-2.5,0.6-4.9,1.1-7.5,1.6
			c-2.6,0.4-5.2,0.8-7.9,0.9c-1.4,0-2.7,0.1-4.2,0c-0.8,0-1.4-0.1-2-0.2l-1.1-0.1l-1-0.2l-3.9-0.9c-1.3-0.3-2.6-0.8-3.8-1.2
			c-0.6-0.2-1.3-0.4-1.9-0.7l-1.8-0.9l-1.8-0.9c-0.6-0.3-1.2-0.7-1.8-1c-1.2-0.7-2.4-1.4-3.4-2.3c-1.1-0.9-2.2-1.7-3.1-2.7l-1.5-1.4
			c-0.5-0.5-0.9-1-1.3-1.6l-1.3-1.6l-1.2-1.7c-0.8-1.1-1.4-2.3-2.1-3.5c-0.3-0.6-0.6-1.2-0.9-1.9c-0.3-0.6-0.6-1.2-0.8-1.9
			c-0.5-1.3-0.9-2.6-1.3-3.9c-0.3-1.3-0.6-2.7-0.8-4.2c-0.2-1.9,1.2-3.6,3.1-3.9C1321.5,418.4,1323.8,420,1324,422L1324,422
			L1324,422z"/>
	</g>
	<g>
		<path class="st5" d="M1426.2,262.9c0,0,0.1,0.1,0.1,0.4c0.1,0.2,0.1,0.6,0.2,1c0.1,0.8,0,2-0.7,3.1c-0.2,0.3-0.3,0.6-0.6,0.8
			c-0.2,0.3-0.5,0.5-0.7,0.6c-0.3,0.2-0.5,0.3-0.8,0.4c-0.3,0.1-0.5,0.2-0.8,0.2c-0.2,0-0.5,0.1-0.7,0.1c-0.2,0-0.4,0-0.5,0
			c-0.3,0-0.4,0-0.4,0c-0.8-0.2-1.3-0.9-1.2-1.7c0.1-0.5,0.4-0.8,0.8-1.1l0.4-0.2c0,0,0.1,0,0.2-0.1c0.1,0,0.2,0,0.3-0.1
			c0.1,0,0.2-0.1,0.3-0.1s0.2,0,0.3-0.1c0.1,0,0.3-0.1,0.4-0.1s0.3-0.1,0.4-0.2c0.1,0,0.3-0.1,0.4-0.2c0.3-0.2,0.5-0.5,0.8-0.8
			c0.2-0.3,0.4-0.6,0.6-0.9s0.3-0.6,0.4-0.8c0.1-0.2,0.1-0.3,0.1-0.3c0.1-0.1,0.2-0.2,0.4-0.1
			C1426.1,262.8,1426.2,262.9,1426.2,262.9z"/>
	</g>
	<path class="st5" d="M1287.9,83.9c0,0-1.7,43.2,10,61c1.5-38.3,5.1-43.5,5.1-43.5L1287.9,83.9z"/>
	<path class="st5" d="M1363.1,65.1c0,0-31.1,77.4-25.6,100.6c26.6-43.4,47-74.2,47-74.2L1363.1,65.1z"/>
	<path class="st5" d="M1257.6,95.5c0,0-1.9,22.2,8,46.9c-10.6-14.2-22-37.6-22-37.6"/>
	<path class="st5" d="M1235.2,397.3c10,3.2,41.4-4.7,41.4-4.7s-32.6,2.2-48.9-5.4C1236,398.9,1235.2,397.3,1235.2,397.3z"/>
	<path class="st5" d="M1337.6,443.1c-12.8-14.4,9-25.9,30.8-27.9c-2.5-9.6-27.7,2-47.9,8.1C1326.6,441.9,1337.6,443.1,1337.6,443.1z
		"/>
	<path class="st5" d="M1157.9,221.7c12.9-10.3,20.2,29.5,45.8,51.5c-8.3-23.3-19.8-70.6-19.8-70.6S1159.3,206.9,1157.9,221.7z"/>
	<path class="st5" d="M1215.6,285.8c17.8,12.8,40.2,73.2,27.2,69c14,7.6,15.3,8.9,15.3,8.9s-24.9-68.4-26.3-70.2
		C1230.4,291.7,1215.6,285.8,1215.6,285.8z"/>
	<g class="st1">
		<path class="st2" d="M1215.7,415.6"/>
	</g>
	<path class="st5" d="M1362.8,337.3c0,14.3-0.8,33.8,27.3,39.2c-5.2-4.6-7.4-21.2-1.6-27.6"/>
	<path class="st20" d="M1349.6,343.3c11.1-6.4,12.3,7.9,12.3,7.9l1.8-14.9L1349.6,343.3z"/>
	<g>
		<path class="st21" d="M1374.6,355.7c-0.4-4.9-4.8-8.9-8.7-7.7c0,0-3.1,14.1,11.7,21.2c0,0,5.9-14.4-4.5-17.7"/>
		<g>
			<g>
				<path class="st5" d="M1363.7,346.9c0,0,0,0,0.1-0.1c0,0,0.1-0.1,0.2-0.2c0.1-0.1,0.2-0.2,0.4-0.3c0.3-0.2,0.6-0.4,1-0.5
					s0.9-0.3,1.4-0.3c1-0.1,2.1,0.2,3.2,0.6c1.1,0.5,2.1,1.1,2.9,2c0.8,0.8,1.6,1.8,2,2.8c0.2,0.5,0.5,1,0.6,1.5s0.2,1,0.3,1.4
					c0.1,0.9-0.1,1.6-0.2,2.1c-0.1,0.5-0.3,0.8-0.3,0.8c-0.1,0.3-0.5,0.4-0.7,0.3c-0.2-0.1-0.3-0.2-0.3-0.4l0,0c0,0,0-0.3-0.1-0.7
					c0-0.2-0.1-0.5-0.1-0.8s-0.1-0.6-0.2-0.9c-0.2-0.7-0.4-1.4-0.9-2.2c-0.4-0.8-1-1.5-1.7-2.1c-0.7-0.6-1.5-1.1-2.2-1.5
					c-0.8-0.3-1.5-0.5-2.1-0.5c-0.3,0-0.5,0-0.7,0.1c-0.2,0.1-0.4,0.2-0.5,0.2c0,0-0.1,0-0.1,0.1c-0.1,0.1-0.1,0.1-0.2,0.1
					c-0.1,0.1-0.1,0.1-0.1,0.1c-0.5,0.4-1.1,0.3-1.5-0.1C1363.3,347.9,1363.4,347.3,1363.7,346.9z"/>
			</g>
			<path class="st22" d="M1374,349.6"/>
			<path class="st22" d="M1382.1,368.5"/>
		</g>
	</g>
	<g>
		<path class="st5" d="M1366.1,336.3c0,0,0,0.2,0,0.6s0,1,0,1.7c0,1.4,0.1,3.5,0.3,5.9c0.3,2.4,0.6,5.3,1.4,8.2
			c0.7,2.9,1.9,5.9,3.4,8.7c0.8,1.4,1.6,2.7,2.6,3.9c1,1.2,2,2.3,3.1,3.3c0.5,0.5,1.1,0.9,1.7,1.4c0.6,0.4,1.2,0.8,1.7,1.2
			c0.6,0.3,1.1,0.7,1.7,1c0.6,0.3,1.1,0.6,1.7,0.8c0.6,0.2,1.1,0.5,1.6,0.7s1,0.4,1.5,0.6c0.9,0.4,1.8,0.6,2.4,0.9
			c1.4,0.4,2.2,0.7,2.2,0.7h0.1c0.5,0.2,0.8,0.8,0.6,1.4c-0.2,0.4-0.5,0.6-0.9,0.7c0,0-0.9,0-2.5,0c-0.8-0.1-1.7-0.1-2.8-0.3
			c-0.5-0.1-1.1-0.2-1.7-0.3c-0.6-0.1-1.2-0.3-1.9-0.5c-1.3-0.4-2.7-1-4.1-1.7c-0.7-0.4-1.4-0.8-2.1-1.2c-0.7-0.5-1.4-0.9-2.1-1.5
			c-1.4-1-2.7-2.3-4-3.7c-1.2-1.4-2.3-2.9-3.3-4.5c-2-3.2-3.3-6.6-4.3-9.9c-0.9-3.3-1.5-6.4-1.8-9.1c-0.3-2.7-0.4-4.9-0.4-6.5
			c0-0.8,0-1.4,0-1.8s0-0.6,0-0.6c0-1.7,1.4-3,3-3C1364.8,333.3,1366.1,334.7,1366.1,336.3z"/>
	</g>
	<g>
		<path class="st22" d="M1386.8,375.3"/>
		<path class="st22" d="M1377.3,359.1"/>
		<path class="st22" d="M1387,359.3"/>
		<path class="st22" d="M1398.2,376.5"/>
	</g>
	<path class="st23" d="M1371.7,376.7"/>
	<g>
		<g>
			<path class="st18" d="M1394.2,326.7c0,0,0-0.1,0.1-0.2s0.3-0.3,0.5-0.5c0.2-0.2,0.4-0.4,0.7-0.6c0.3-0.2,0.6-0.5,1-0.7
				c0.8-0.5,1.7-0.9,2.8-1.2c0.5-0.1,1.1-0.3,1.7-0.4c0.6-0.1,1.2-0.2,1.8-0.1h0.9c0.3,0,0.6,0.1,0.9,0.1c0.6,0.1,1.2,0.3,1.8,0.5
				s1.1,0.4,1.5,0.7c0.5,0.2,0.9,0.5,1.3,0.8c0.7,0.6,1.2,1.2,1.5,1.6c0.3,0.4,0.5,0.7,0.5,0.7c0.5,0.9,0.1,2.1-0.9,2.5
				c-0.3,0.1-0.5,0.2-0.8,0.2h-0.4c0,0-0.3,0-0.7-0.1c-0.2,0-0.5-0.1-0.7-0.1c-0.3,0-0.6,0-0.9-0.1c-0.2,0-0.3,0-0.5-0.1
				c-0.2,0-0.3,0-0.5-0.1c-0.3,0-0.7-0.1-1-0.1c-0.4,0-0.7-0.1-1.1-0.1c-0.4-0.1-0.8-0.1-1.1-0.1c-0.4-0.1-0.8,0-1.2-0.1
				c-0.4,0-0.8,0-1.2,0c-0.8,0-1.6,0-2.3,0c-0.4,0-0.7,0-1,0c-0.3,0-0.6,0-0.8,0c-0.2,0-0.4,0-0.5,0s-0.2,0-0.2,0
				c-0.8,0.1-1.6-0.5-1.7-1.4c0-0.3,0-0.5,0.1-0.8L1394.2,326.7z"/>
		</g>
		<g>
			<path class="st6" d="M1393.6,328c0,0,0-0.1,0.1-0.3c0.1-0.2,0.1-0.4,0.3-0.7c0.1-0.3,0.3-0.6,0.5-1c0.2-0.4,0.5-0.8,0.8-1.2
				c0.6-0.9,1.5-1.8,2.7-2.6c0.6-0.4,1.3-0.8,2.1-1.1c0.8-0.3,1.6-0.5,2.6-0.6c0.9-0.1,1.9,0,2.7,0.3c0.9,0.2,1.7,0.6,2.4,1
				c0.7,0.4,1.2,0.9,1.7,1.4c0.4,0.5,0.8,1,1.1,1.5c0.3,0.5,0.5,0.9,0.7,1.3c0.2,0.4,0.3,0.7,0.4,1.1c0.2,0.6,0.2,0.9,0.2,0.9
				c0.1,1-0.6,2-1.6,2.1c-0.4,0.1-0.8,0-1.1-0.2l-0.2-0.1c0,0-0.3-0.1-0.7-0.4s-1-0.7-1.6-1.1c-0.3-0.2-0.6-0.4-1-0.6
				c-0.2-0.1-0.3-0.2-0.5-0.2c-0.2-0.1-0.3-0.1-0.5-0.2c-0.3-0.1-0.6-0.2-0.9-0.2c-0.3-0.1-0.5-0.1-0.8-0.1c-0.6,0-1.3,0.1-2.1,0.4
				c-0.8,0.3-1.6,0.6-2.3,1c-0.3,0.2-0.7,0.3-1,0.5c-0.3,0.2-0.6,0.3-0.8,0.4c-0.2,0.1-0.4,0.2-0.5,0.3c-0.1,0.1-0.2,0.1-0.2,0.1
				c-0.5,0.6-1.4,0.8-2,0.3C1393.3,329.6,1393.1,328.6,1393.6,328z"/>
		</g>
	</g>
</g>
<g>
	<g>
		<path class="st0" d="M608.6,334.7c0,22.5,0.4,42.3,1.8,59.4h-35.1l-2.2-35.5h-0.9c-10.4,17.5-33.3,40.5-72,40.5
			c-34.2,0-75.1-18.9-75.1-95.4V176.3h39.6v120.6c0,41.4,12.6,69.3,48.6,69.3c26.5,0,45-18.4,52.2-36c2.2-5.9,3.6-13.1,3.6-20.2
			V176.3h39.6V334.7z"/>
		<path class="st0" d="M674.3,235.2c0-22.5-0.4-40.9-1.8-58.9h35.1l2.2,36h0.9c10.8-20.7,36-40.9,72-40.9c30.1,0,76.9,18,76.9,92.7
			v130h-39.6V268.5c0-35.1-13.1-64.3-50.4-64.3c-26.1,0-46.3,18.5-53.1,40.5c-1.8,4.9-2.7,11.7-2.7,18.5v130.9h-39.6V235.2z"/>
		<path class="st0" d="M1044.7,394.1l-3.1-27.5h-1.3c-12.1,17.1-35.5,32.4-66.6,32.4c-44.1,0-66.6-31-66.6-62.5
			c0-52.6,46.8-81.4,130.9-81V251c0-18-5-50.4-49.5-50.4c-20.2,0-41.4,6.3-56.7,16.2l-9-26.1c18-11.7,44.1-19.4,71.5-19.4
			c66.6,0,82.8,45.4,82.8,89.1v81.4c0,18.9,0.9,37.3,3.6,52.2H1044.7z M1038.8,282.9c-43.2-0.9-92.2,6.8-92.2,49
			c0,25.6,17.1,37.8,37.3,37.8c28.4,0,46.3-18,52.6-36.5c1.4-4,2.2-8.5,2.2-12.6V282.9z"/>
	</g>
</g>
</svg>
